solid 
   facet normal 1.224647e-16 1.000000e+00 -1.173766e-17
      outer loop
         vertex 0.000000e+00 0.000000e+00 7.000000e+01
         vertex -3.026047e+01 3.629277e-15 6.347721e+01
         vertex -1.000000e+02 1.224647e-14 7.000000e+01
      endloop
   endfacet
   facet normal 1.148727e-16 1.000000e+00 -9.290851e-17
      outer loop
         vertex -3.026047e+01 3.629277e-15 6.347721e+01
         vertex -3.114907e+01 3.683687e-15 6.296418e+01
         vertex -1.000000e+02 1.224647e-14 7.000000e+01
      endloop
   endfacet
   facet normal 1.195438e-16 1.000000e+00 0.000000e+00
      outer loop
         vertex -1.000000e+02 1.224647e-14 7.000000e+01
         vertex -7.114906e+01 8.797516e-15 6.296418e+01
         vertex -1.000000e+02 1.224647e-14 0.000000e+00
      endloop
   endfacet
   facet normal -3.461695e-16 1.000000e+00 2.133954e-16
      outer loop
         vertex -7.114906e+01 8.797516e-15 6.296418e+01
         vertex -7.150000e+01 8.881784e-15 6.200000e+01
         vertex -1.000000e+02 1.224647e-14 0.000000e+00
      endloop
   endfacet
   facet normal 1.224647e-16 1.000000e+00 -8.040679e-18
      outer loop
         vertex -1.000000e+02 1.224647e-14 0.000000e+00
         vertex -4.550000e+01 5.773160e-15 2.500000e+01
         vertex 0.000000e+00 0.000000e+00 0.000000e+00
      endloop
   endfacet
   facet normal 1.268826e-16 1.000000e+00 0.000000e+00
      outer loop
         vertex -4.550000e+01 5.773160e-15 2.500000e+01
         vertex -2.450000e+01 3.108624e-15 2.500000e+01
         vertex 0.000000e+00 0.000000e+00 0.000000e+00
      endloop
   endfacet
   facet normal 1.268826e-16 1.000000e+00 0.000000e+00
      outer loop
         vertex 0.000000e+00 0.000000e+00 0.000000e+00
         vertex -2.450000e+01 3.108624e-15 2.500000e+01
         vertex 0.000000e+00 0.000000e+00 7.000000e+01
      endloop
   endfacet
   facet normal 9.781772e-17 1.000000e+00 1.582423e-17
      outer loop
         vertex -2.450000e+01 3.108624e-15 2.500000e+01
         vertex -1.959046e+01 2.399140e-15 3.948697e+01
         vertex 0.000000e+00 0.000000e+00 7.000000e+01
      endloop
   endfacet
   facet normal 1.121706e-16 1.000000e+00 4.274205e-17
      outer loop
         vertex 0.000000e+00 0.000000e+00 7.000000e+01
         vertex -2.859046e+01 3.527018e-15 6.251303e+01
         vertex -2.925000e+01 3.567403e-15 6.329904e+01
      endloop
   endfacet
   facet normal 1.075282e-16 1.000000e+00 1.253341e-17
      outer loop
         vertex -1.959046e+01 2.399140e-15 3.948697e+01
         vertex -2.450000e+01 3.108624e-15 2.500000e+01
         vertex -2.025000e+01 2.479910e-15 3.870096e+01
      endloop
   endfacet
   facet normal 8.764541e-17 1.000000e+00 1.497956e-16
      outer loop
         vertex -3.026047e+01 3.629277e-15 6.347721e+01
         vertex 0.000000e+00 0.000000e+00 7.000000e+01
         vertex -2.925000e+01 3.567403e-15 6.329904e+01
      endloop
   endfacet
   facet normal 1.224647e-16 1.000000e+00 0.000000e+00
      outer loop
         vertex -1.959046e+01 2.399140e-15 4.051303e+01
         vertex 0.000000e+00 0.000000e+00 7.000000e+01
         vertex -1.959046e+01 2.399140e-15 3.948697e+01
      endloop
   endfacet
   facet normal 1.233634e-16 1.000000e+00 0.000000e+00
      outer loop
         vertex -2.859046e+01 3.527018e-15 6.251303e+01
         vertex 0.000000e+00 0.000000e+00 7.000000e+01
         vertex -2.859046e+01 3.527018e-15 6.148697e+01
      endloop
   endfacet
   facet normal 1.235851e-16 1.000000e+00 -7.443727e-19
      outer loop
         vertex 0.000000e+00 0.000000e+00 7.000000e+01
         vertex -1.959046e+01 2.399140e-15 4.051303e+01
         vertex -2.859046e+01 3.527018e-15 6.148697e+01
      endloop
   endfacet
   facet normal 8.291688e-17 1.000000e+00 -1.819526e-17
      outer loop
         vertex -2.859046e+01 3.527018e-15 6.148697e+01
         vertex -1.959046e+01 2.399140e-15 4.051303e+01
         vertex -2.925000e+01 3.567403e-15 6.070096e+01
      endloop
   endfacet
   facet normal 1.244829e-16 1.000000e+00 1.693296e-18
      outer loop
         vertex -1.959046e+01 2.399140e-15 4.051303e+01
         vertex -2.025000e+01 2.479910e-15 4.129904e+01
         vertex -2.925000e+01 3.567403e-15 6.070096e+01
      endloop
   endfacet
   facet normal 6.573874e-17 1.000000e+00 -2.555646e-17
      outer loop
         vertex -2.925000e+01 3.567403e-15 6.070096e+01
         vertex -2.025000e+01 2.479910e-15 4.129904e+01
         vertex -3.026047e+01 3.629277e-15 6.052279e+01
      endloop
   endfacet
   facet normal 1.232380e-16 1.000000e+00 4.385370e-18
      outer loop
         vertex -2.025000e+01 2.479910e-15 4.129904e+01
         vertex -2.126047e+01 2.603657e-15 4.147721e+01
         vertex -3.026047e+01 3.629277e-15 6.052279e+01
      endloop
   endfacet
   facet normal 4.144979e-17 1.000000e+00 -3.426368e-17
      outer loop
         vertex -3.026047e+01 3.629277e-15 6.052279e+01
         vertex -2.126047e+01 2.603657e-15 4.147721e+01
         vertex -3.114907e+01 3.683687e-15 6.103582e+01
      endloop
   endfacet
   facet normal 1.194720e-16 1.000000e+00 5.183387e-18
      outer loop
         vertex -2.126047e+01 2.603657e-15 4.147721e+01
         vertex -2.214907e+01 2.712478e-15 4.096418e+01
         vertex -3.114907e+01 3.683687e-15 6.103582e+01
      endloop
   endfacet
   facet normal 1.641265e-15 1.000000e+00 6.875458e-16
      outer loop
         vertex -2.214907e+01 2.712478e-15 4.096418e+01
         vertex -2.450000e+01 3.108624e-15 4.600000e+01
         vertex -3.114907e+01 3.683687e-15 6.103582e+01
      endloop
   endfacet
   facet normal 1.268826e-16 1.000000e+00 1.786325e-17
      outer loop
         vertex -2.450000e+01 3.108624e-15 4.600000e+01
         vertex -4.550000e+01 5.773160e-15 4.600000e+01
         vertex -3.114907e+01 3.683687e-15 6.103582e+01
      endloop
   endfacet
   facet normal 2.371973e-18 1.000000e+00 1.367024e-16
      outer loop
         vertex -3.114907e+01 3.683687e-15 6.103582e+01
         vertex -4.550000e+01 5.773160e-15 4.600000e+01
         vertex -3.150000e+01 3.552714e-15 6.200000e+01
      endloop
   endfacet
   facet normal 2.630550e-17 1.000000e+00 0.000000e+00
      outer loop
         vertex -4.550000e+01 5.773160e-15 2.500000e+01
         vertex -4.759046e+01 5.828150e-15 3.948697e+01
         vertex -4.550000e+01 5.773160e-15 4.600000e+01
      endloop
   endfacet
   facet normal 2.630550e-17 1.000000e+00 0.000000e+00
      outer loop
         vertex -4.759046e+01 5.828150e-15 3.948697e+01
         vertex -4.759046e+01 5.828150e-15 4.051303e+01
         vertex -4.550000e+01 5.773160e-15 4.600000e+01
      endloop
   endfacet
   facet normal 9.243822e-17 1.000000e+00 -2.519568e-17
      outer loop
         vertex -4.759046e+01 5.828150e-15 4.051303e+01
         vertex -4.825000e+01 5.908921e-15 4.129904e+01
         vertex -4.550000e+01 5.773160e-15 4.600000e+01
      endloop
   endfacet
   facet normal 1.156300e-16 1.000000e+00 -3.876258e-17
      outer loop
         vertex -4.825000e+01 5.908921e-15 4.129904e+01
         vertex -4.926047e+01 6.032668e-15 4.147721e+01
         vertex -4.550000e+01 5.773160e-15 4.600000e+01
      endloop
   endfacet
   facet normal 1.718147e-16 1.000000e+00 -8.547732e-17
      outer loop
         vertex -4.926047e+01 6.032668e-15 4.147721e+01
         vertex -5.014907e+01 6.141489e-15 4.096418e+01
         vertex -4.550000e+01 5.773160e-15 4.600000e+01
      endloop
   endfacet
   facet normal -1.361753e-15 1.000000e+00 1.330312e-15
      outer loop
         vertex -4.550000e+01 5.773160e-15 4.600000e+01
         vertex -5.014907e+01 6.141489e-15 4.096418e+01
         vertex -3.150000e+01 3.552714e-15 6.200000e+01
      endloop
   endfacet
   facet normal 1.199663e-16 1.000000e+00 1.417026e-17
      outer loop
         vertex -4.825000e+01 5.908921e-15 3.870096e+01
         vertex -4.550000e+01 5.773160e-15 2.500000e+01
         vertex -4.926047e+01 6.032668e-15 3.852279e+01
      endloop
   endfacet
   facet normal 1.326881e-16 1.000000e+00 1.770798e-17
      outer loop
         vertex -4.926047e+01 6.032668e-15 3.852279e+01
         vertex -4.550000e+01 5.773160e-15 2.500000e+01
         vertex -5.014907e+01 6.141489e-15 3.903582e+01
      endloop
   endfacet
   facet normal 1.135597e-16 1.000000e+00 1.137212e-17
      outer loop
         vertex -4.550000e+01 5.773160e-15 2.500000e+01
         vertex -1.000000e+02 1.224647e-14 0.000000e+00
         vertex -5.014907e+01 6.141489e-15 3.903582e+01
      endloop
   endfacet
   facet normal 1.224646e-16 1.000000e+00 1.176973e-22
      outer loop
         vertex -5.014907e+01 6.141489e-15 3.903582e+01
         vertex -1.000000e+02 1.224647e-14 0.000000e+00
         vertex -5.050000e+01 6.184466e-15 4.000000e+01
      endloop
   endfacet
   facet normal 1.242699e-16 1.000000e+00 -2.233960e-18
      outer loop
         vertex -1.000000e+02 1.224647e-14 0.000000e+00
         vertex -7.114906e+01 8.797516e-15 6.103582e+01
         vertex -5.050000e+01 6.184466e-15 4.000000e+01
      endloop
   endfacet
   facet normal 1.254417e-16 1.000000e+00 -1.083701e-18
      outer loop
         vertex -5.050000e+01 6.184466e-15 4.000000e+01
         vertex -7.114906e+01 8.797516e-15 6.103582e+01
         vertex -5.014907e+01 6.141489e-15 4.096418e+01
      endloop
   endfacet
   facet normal -3.830613e-17 1.000000e+00 -1.724052e-16
      outer loop
         vertex -7.114906e+01 8.797516e-15 6.103582e+01
         vertex -7.026048e+01 8.743105e-15 6.052279e+01
         vertex -5.014907e+01 6.141489e-15 4.096418e+01
      endloop
   endfacet
   facet normal 1.337378e-16 1.000000e+00 4.501361e-18
      outer loop
         vertex -5.014907e+01 6.141489e-15 4.096418e+01
         vertex -7.026048e+01 8.743105e-15 6.052279e+01
         vertex -3.150000e+01 3.552714e-15 6.200000e+01
      endloop
   endfacet
   facet normal 1.539492e-16 1.000000e+00 -5.258249e-16
      outer loop
         vertex -7.026048e+01 8.743105e-15 6.052279e+01
         vertex -6.925000e+01 8.681231e-15 6.070096e+01
         vertex -3.150000e+01 3.552714e-15 6.200000e+01
      endloop
   endfacet
   facet normal 1.423116e-16 1.000000e+00 -1.876363e-16
      outer loop
         vertex -3.150000e+01 3.552714e-15 6.200000e+01
         vertex -6.925000e+01 8.681231e-15 6.070096e+01
         vertex -3.114907e+01 3.683687e-15 6.296418e+01
      endloop
   endfacet
   facet normal 1.348345e-16 1.000000e+00 -6.175986e-17
      outer loop
         vertex -6.925000e+01 8.681231e-15 6.070096e+01
         vertex -6.859046e+01 8.640847e-15 6.148697e+01
         vertex -3.114907e+01 3.683687e-15 6.296418e+01
      endloop
   endfacet
   facet normal 1.318057e-16 1.000000e+00 7.279386e-17
      outer loop
         vertex -3.114907e+01 3.683687e-15 6.296418e+01
         vertex -6.925000e+01 8.681231e-15 6.329904e+01
         vertex -1.000000e+02 1.224647e-14 7.000000e+01
      endloop
   endfacet
   facet normal -1.707092e-16 1.000000e+00 -1.315415e-15
      outer loop
         vertex -6.925000e+01 8.681231e-15 6.329904e+01
         vertex -7.026048e+01 8.743105e-15 6.347721e+01
         vertex -1.000000e+02 1.224647e-14 7.000000e+01
      endloop
   endfacet
   facet normal 1.022280e-16 1.000000e+00 -7.100490e-17
      outer loop
         vertex -1.000000e+02 1.224647e-14 7.000000e+01
         vertex -7.026048e+01 8.743105e-15 6.347721e+01
         vertex -7.114906e+01 8.797516e-15 6.296418e+01
      endloop
   endfacet
   facet normal 1.765846e-16 1.000000e+00 0.000000e+00
      outer loop
         vertex -2.450000e+01 3.108624e-15 4.600000e+01
         vertex -2.250000e+01 2.755455e-15 4.000000e+01
         vertex -2.450000e+01 3.108624e-15 2.500000e+01
      endloop
   endfacet
   facet normal 1.369750e-16 1.000000e+00 5.281271e-18
      outer loop
         vertex -2.250000e+01 2.755455e-15 4.000000e+01
         vertex -2.214907e+01 2.712478e-15 3.903582e+01
         vertex -2.450000e+01 3.108624e-15 2.500000e+01
      endloop
   endfacet
   facet normal 1.209911e-16 1.000000e+00 8.357262e-18
      outer loop
         vertex -2.450000e+01 3.108624e-15 2.500000e+01
         vertex -2.126047e+01 2.603657e-15 3.852279e+01
         vertex -2.025000e+01 2.479910e-15 3.870096e+01
      endloop
   endfacet
   facet normal 1.083552e-16 1.000000e+00 1.183973e-17
      outer loop
         vertex -4.759046e+01 5.828150e-15 3.948697e+01
         vertex -4.550000e+01 5.773160e-15 2.500000e+01
         vertex -4.825000e+01 5.908921e-15 3.870096e+01
      endloop
   endfacet
   facet normal 1.719994e-16 1.000000e+00 -2.479515e-17
      outer loop
         vertex -7.114906e+01 8.797516e-15 6.103582e+01
         vertex -1.000000e+02 1.224647e-14 0.000000e+00
         vertex -7.150000e+01 8.881784e-15 6.200000e+01
      endloop
   endfacet
   facet normal 1.316855e-16 1.000000e+00 5.911753e-17
      outer loop
         vertex -6.925000e+01 8.681231e-15 6.329904e+01
         vertex -3.114907e+01 3.683687e-15 6.296418e+01
         vertex -6.859046e+01 8.640847e-15 6.251303e+01
      endloop
   endfacet
   facet normal 1.323978e-16 1.000000e+00 -0.000000e+00
      outer loop
         vertex -3.114907e+01 3.683687e-15 6.296418e+01
         vertex -6.859046e+01 8.640847e-15 6.148697e+01
         vertex -6.859046e+01 8.640847e-15 6.251303e+01
      endloop
   endfacet
   facet normal 1.483358e-16 1.000000e+00 -9.416256e-18
      outer loop
         vertex -2.250000e+01 2.755455e-15 4.000000e+01
         vertex -2.450000e+01 3.108624e-15 4.600000e+01
         vertex -2.214907e+01 2.712478e-15 4.096418e+01
      endloop
   endfacet
   facet normal 1.265244e-16 1.000000e+00 7.031708e-18
      outer loop
         vertex -2.126047e+01 2.603657e-15 3.852279e+01
         vertex -2.450000e+01 3.108624e-15 2.500000e+01
         vertex -2.214907e+01 2.712478e-15 3.903582e+01
      endloop
   endfacet
   facet normal -9.396925e-01 0.000000e+00 3.420204e-01
      outer loop
         vertex -5.050000e+01 6.184466e-15 4.000000e+01
         vertex -5.014907e+01 6.141489e-15 4.096418e+01
         vertex -5.014907e+01 5.000000e+00 4.096418e+01
      endloop
   endfacet
   facet normal -9.396925e-01 0.000000e+00 3.420204e-01
      outer loop
         vertex -5.050000e+01 6.184466e-15 4.000000e+01
         vertex -5.014907e+01 5.000000e+00 4.096418e+01
         vertex -5.050000e+01 5.000000e+00 4.000000e+01
      endloop
   endfacet
   facet normal -5.000001e-01 0.000000e+00 8.660254e-01
      outer loop
         vertex -5.014907e+01 6.141489e-15 4.096418e+01
         vertex -4.926047e+01 6.032668e-15 4.147721e+01
         vertex -4.926047e+01 5.000000e+00 4.147721e+01
      endloop
   endfacet
   facet normal -5.000001e-01 0.000000e+00 8.660254e-01
      outer loop
         vertex -5.014907e+01 6.141489e-15 4.096418e+01
         vertex -4.926047e+01 5.000000e+00 4.147721e+01
         vertex -5.014907e+01 5.000000e+00 4.096418e+01
      endloop
   endfacet
   facet normal 1.736479e-01 -0.000000e+00 9.848078e-01
      outer loop
         vertex -4.926047e+01 6.032668e-15 4.147721e+01
         vertex -4.825000e+01 5.908921e-15 4.129904e+01
         vertex -4.825000e+01 5.000000e+00 4.129904e+01
      endloop
   endfacet
   facet normal 1.736479e-01 0.000000e+00 9.848078e-01
      outer loop
         vertex -4.926047e+01 6.032668e-15 4.147721e+01
         vertex -4.825000e+01 5.000000e+00 4.129904e+01
         vertex -4.926047e+01 5.000000e+00 4.147721e+01
      endloop
   endfacet
   facet normal 7.660444e-01 -0.000000e+00 6.427877e-01
      outer loop
         vertex -4.825000e+01 5.908921e-15 4.129904e+01
         vertex -4.759046e+01 5.828150e-15 4.051303e+01
         vertex -4.759046e+01 5.000000e+00 4.051303e+01
      endloop
   endfacet
   facet normal 7.660444e-01 0.000000e+00 6.427877e-01
      outer loop
         vertex -4.825000e+01 5.908921e-15 4.129904e+01
         vertex -4.759046e+01 5.000000e+00 4.051303e+01
         vertex -4.825000e+01 5.000000e+00 4.129904e+01
      endloop
   endfacet
   facet normal 1.000000e+00 0.000000e+00 0.000000e+00
      outer loop
         vertex -4.759046e+01 5.828150e-15 4.051303e+01
         vertex -4.759046e+01 5.828150e-15 3.948697e+01
         vertex -4.759046e+01 5.000000e+00 3.948697e+01
      endloop
   endfacet
   facet normal 1.000000e+00 0.000000e+00 -0.000000e+00
      outer loop
         vertex -4.759046e+01 5.828150e-15 4.051303e+01
         vertex -4.759046e+01 5.000000e+00 3.948697e+01
         vertex -4.759046e+01 5.000000e+00 4.051303e+01
      endloop
   endfacet
   facet normal 7.660444e-01 0.000000e+00 -6.427877e-01
      outer loop
         vertex -4.759046e+01 5.828150e-15 3.948697e+01
         vertex -4.825000e+01 5.908921e-15 3.870096e+01
         vertex -4.825000e+01 5.000000e+00 3.870096e+01
      endloop
   endfacet
   facet normal 7.660444e-01 0.000000e+00 -6.427877e-01
      outer loop
         vertex -4.759046e+01 5.828150e-15 3.948697e+01
         vertex -4.825000e+01 5.000000e+00 3.870096e+01
         vertex -4.759046e+01 5.000000e+00 3.948697e+01
      endloop
   endfacet
   facet normal 1.736479e-01 0.000000e+00 -9.848078e-01
      outer loop
         vertex -4.825000e+01 5.908921e-15 3.870096e+01
         vertex -4.926047e+01 6.032668e-15 3.852279e+01
         vertex -4.926047e+01 5.000000e+00 3.852279e+01
      endloop
   endfacet
   facet normal 1.736479e-01 0.000000e+00 -9.848078e-01
      outer loop
         vertex -4.825000e+01 5.908921e-15 3.870096e+01
         vertex -4.926047e+01 5.000000e+00 3.852279e+01
         vertex -4.825000e+01 5.000000e+00 3.870096e+01
      endloop
   endfacet
   facet normal -5.000001e-01 0.000000e+00 -8.660254e-01
      outer loop
         vertex -4.926047e+01 6.032668e-15 3.852279e+01
         vertex -5.014907e+01 6.141489e-15 3.903582e+01
         vertex -5.014907e+01 5.000000e+00 3.903582e+01
      endloop
   endfacet
   facet normal -5.000001e-01 0.000000e+00 -8.660254e-01
      outer loop
         vertex -4.926047e+01 6.032668e-15 3.852279e+01
         vertex -5.014907e+01 5.000000e+00 3.903582e+01
         vertex -4.926047e+01 5.000000e+00 3.852279e+01
      endloop
   endfacet
   facet normal -9.396925e-01 0.000000e+00 -3.420204e-01
      outer loop
         vertex -5.014907e+01 6.141489e-15 3.903582e+01
         vertex -5.050000e+01 6.184466e-15 4.000000e+01
         vertex -5.050000e+01 5.000000e+00 4.000000e+01
      endloop
   endfacet
   facet normal -9.396925e-01 0.000000e+00 -3.420204e-01
      outer loop
         vertex -5.014907e+01 6.141489e-15 3.903582e+01
         vertex -5.050000e+01 5.000000e+00 4.000000e+01
         vertex -5.014907e+01 5.000000e+00 3.903582e+01
      endloop
   endfacet
   facet normal -9.396925e-01 0.000000e+00 3.420204e-01
      outer loop
         vertex -2.250000e+01 2.755455e-15 4.000000e+01
         vertex -2.214907e+01 2.712478e-15 4.096418e+01
         vertex -2.214907e+01 5.000000e+00 4.096418e+01
      endloop
   endfacet
   facet normal -9.396925e-01 0.000000e+00 3.420204e-01
      outer loop
         vertex -2.250000e+01 2.755455e-15 4.000000e+01
         vertex -2.214907e+01 5.000000e+00 4.096418e+01
         vertex -2.250000e+01 5.000000e+00 4.000000e+01
      endloop
   endfacet
   facet normal -5.000001e-01 0.000000e+00 8.660254e-01
      outer loop
         vertex -2.214907e+01 2.712478e-15 4.096418e+01
         vertex -2.126047e+01 2.603657e-15 4.147721e+01
         vertex -2.126047e+01 5.000000e+00 4.147721e+01
      endloop
   endfacet
   facet normal -5.000001e-01 0.000000e+00 8.660254e-01
      outer loop
         vertex -2.214907e+01 2.712478e-15 4.096418e+01
         vertex -2.126047e+01 5.000000e+00 4.147721e+01
         vertex -2.214907e+01 5.000000e+00 4.096418e+01
      endloop
   endfacet
   facet normal 1.736479e-01 -0.000000e+00 9.848078e-01
      outer loop
         vertex -2.126047e+01 2.603657e-15 4.147721e+01
         vertex -2.025000e+01 2.479910e-15 4.129904e+01
         vertex -2.025000e+01 5.000000e+00 4.129904e+01
      endloop
   endfacet
   facet normal 1.736479e-01 0.000000e+00 9.848078e-01
      outer loop
         vertex -2.126047e+01 2.603657e-15 4.147721e+01
         vertex -2.025000e+01 5.000000e+00 4.129904e+01
         vertex -2.126047e+01 5.000000e+00 4.147721e+01
      endloop
   endfacet
   facet normal 7.660444e-01 -0.000000e+00 6.427877e-01
      outer loop
         vertex -2.025000e+01 2.479910e-15 4.129904e+01
         vertex -1.959046e+01 2.399140e-15 4.051303e+01
         vertex -1.959046e+01 5.000000e+00 4.051303e+01
      endloop
   endfacet
   facet normal 7.660444e-01 0.000000e+00 6.427877e-01
      outer loop
         vertex -2.025000e+01 2.479910e-15 4.129904e+01
         vertex -1.959046e+01 5.000000e+00 4.051303e+01
         vertex -2.025000e+01 5.000000e+00 4.129904e+01
      endloop
   endfacet
   facet normal 1.000000e+00 0.000000e+00 0.000000e+00
      outer loop
         vertex -1.959046e+01 2.399140e-15 4.051303e+01
         vertex -1.959046e+01 2.399140e-15 3.948697e+01
         vertex -1.959046e+01 5.000000e+00 3.948697e+01
      endloop
   endfacet
   facet normal 1.000000e+00 0.000000e+00 -0.000000e+00
      outer loop
         vertex -1.959046e+01 2.399140e-15 4.051303e+01
         vertex -1.959046e+01 5.000000e+00 3.948697e+01
         vertex -1.959046e+01 5.000000e+00 4.051303e+01
      endloop
   endfacet
   facet normal 7.660444e-01 0.000000e+00 -6.427877e-01
      outer loop
         vertex -1.959046e+01 2.399140e-15 3.948697e+01
         vertex -2.025000e+01 2.479910e-15 3.870096e+01
         vertex -2.025000e+01 5.000000e+00 3.870096e+01
      endloop
   endfacet
   facet normal 7.660444e-01 0.000000e+00 -6.427877e-01
      outer loop
         vertex -1.959046e+01 2.399140e-15 3.948697e+01
         vertex -2.025000e+01 5.000000e+00 3.870096e+01
         vertex -1.959046e+01 5.000000e+00 3.948697e+01
      endloop
   endfacet
   facet normal 1.736479e-01 0.000000e+00 -9.848078e-01
      outer loop
         vertex -2.025000e+01 2.479910e-15 3.870096e+01
         vertex -2.126047e+01 2.603657e-15 3.852279e+01
         vertex -2.126047e+01 5.000000e+00 3.852279e+01
      endloop
   endfacet
   facet normal 1.736479e-01 0.000000e+00 -9.848078e-01
      outer loop
         vertex -2.025000e+01 2.479910e-15 3.870096e+01
         vertex -2.126047e+01 5.000000e+00 3.852279e+01
         vertex -2.025000e+01 5.000000e+00 3.870096e+01
      endloop
   endfacet
   facet normal -5.000001e-01 0.000000e+00 -8.660254e-01
      outer loop
         vertex -2.126047e+01 2.603657e-15 3.852279e+01
         vertex -2.214907e+01 2.712478e-15 3.903582e+01
         vertex -2.214907e+01 5.000000e+00 3.903582e+01
      endloop
   endfacet
   facet normal -5.000001e-01 0.000000e+00 -8.660254e-01
      outer loop
         vertex -2.126047e+01 2.603657e-15 3.852279e+01
         vertex -2.214907e+01 5.000000e+00 3.903582e+01
         vertex -2.126047e+01 5.000000e+00 3.852279e+01
      endloop
   endfacet
   facet normal -9.396925e-01 0.000000e+00 -3.420204e-01
      outer loop
         vertex -2.214907e+01 2.712478e-15 3.903582e+01
         vertex -2.250000e+01 2.755455e-15 4.000000e+01
         vertex -2.250000e+01 5.000000e+00 4.000000e+01
      endloop
   endfacet
   facet normal -9.396925e-01 0.000000e+00 -3.420204e-01
      outer loop
         vertex -2.214907e+01 2.712478e-15 3.903582e+01
         vertex -2.250000e+01 5.000000e+00 4.000000e+01
         vertex -2.214907e+01 5.000000e+00 3.903582e+01
      endloop
   endfacet
   facet normal 0.000000e+00 0.000000e+00 -1.000000e+00
      outer loop
         vertex -1.000000e+02 -4.000000e+00 0.000000e+00
         vertex -1.000000e+02 1.224647e-14 0.000000e+00
         vertex 0.000000e+00 0.000000e+00 0.000000e+00
      endloop
   endfacet
   facet normal 0.000000e+00 0.000000e+00 -1.000000e+00
      outer loop
         vertex -4.898587e-16 -4.000000e+00 0.000000e+00
         vertex -1.000000e+02 -4.000000e+00 0.000000e+00
         vertex 0.000000e+00 0.000000e+00 0.000000e+00
      endloop
   endfacet
   facet normal -1.000000e+00 0.000000e+00 0.000000e+00
      outer loop
         vertex -1.000000e+02 1.224647e-14 7.000000e+01
         vertex -1.000000e+02 1.224647e-14 0.000000e+00
         vertex -1.000000e+02 -4.000000e+00 0.000000e+00
      endloop
   endfacet
   facet normal -1.000000e+00 0.000000e+00 0.000000e+00
      outer loop
         vertex -1.000000e+02 1.224647e-14 7.000000e+01
         vertex -1.000000e+02 -4.000000e+00 0.000000e+00
         vertex -1.000000e+02 -4.000000e+00 7.000000e+01
      endloop
   endfacet
   facet normal 0.000000e+00 0.000000e+00 1.000000e+00
      outer loop
         vertex 0.000000e+00 0.000000e+00 7.000000e+01
         vertex -1.000000e+02 1.224647e-14 7.000000e+01
         vertex -1.000000e+02 -4.000000e+00 7.000000e+01
      endloop
   endfacet
   facet normal 0.000000e+00 0.000000e+00 1.000000e+00
      outer loop
         vertex 0.000000e+00 0.000000e+00 7.000000e+01
         vertex -1.000000e+02 -4.000000e+00 7.000000e+01
         vertex -4.898587e-16 -4.000000e+00 7.000000e+01
      endloop
   endfacet
   facet normal 1.000000e+00 -1.224647e-16 0.000000e+00
      outer loop
         vertex -4.898587e-16 -4.000000e+00 7.000000e+01
         vertex -4.898587e-16 -4.000000e+00 0.000000e+00
         vertex 0.000000e+00 0.000000e+00 0.000000e+00
      endloop
   endfacet
   facet normal 1.000000e+00 -1.224647e-16 0.000000e+00
      outer loop
         vertex -4.898587e-16 -4.000000e+00 7.000000e+01
         vertex 0.000000e+00 0.000000e+00 0.000000e+00
         vertex 0.000000e+00 0.000000e+00 7.000000e+01
      endloop
   endfacet
   facet normal 9.396913e-01 0.000000e+00 -3.420236e-01
      outer loop
         vertex -7.114906e+01 8.881784e-15 6.296418e+01
         vertex -7.114906e+01 -4.000000e+00 6.296418e+01
         vertex -7.150000e+01 -4.000000e+00 6.200000e+01
      endloop
   endfacet
   facet normal 9.396913e-01 0.000000e+00 -3.420236e-01
      outer loop
         vertex -7.150000e+01 8.881784e-15 6.200000e+01
         vertex -7.114906e+01 8.881784e-15 6.296418e+01
         vertex -7.150000e+01 -4.000000e+00 6.200000e+01
      endloop
   endfacet
   facet normal 5.000033e-01 0.000000e+00 -8.660235e-01
      outer loop
         vertex -7.026048e+01 8.881784e-15 6.347721e+01
         vertex -7.026048e+01 -4.000000e+00 6.347721e+01
         vertex -7.114906e+01 -4.000000e+00 6.296418e+01
      endloop
   endfacet
   facet normal 5.000033e-01 0.000000e+00 -8.660235e-01
      outer loop
         vertex -7.114906e+01 8.881784e-15 6.296418e+01
         vertex -7.026048e+01 8.881784e-15 6.347721e+01
         vertex -7.114906e+01 -4.000000e+00 6.296418e+01
      endloop
   endfacet
   facet normal -1.736473e-01 0.000000e+00 -9.848079e-01
      outer loop
         vertex -6.925000e+01 8.881784e-15 6.329904e+01
         vertex -6.925000e+01 -4.000000e+00 6.329904e+01
         vertex -7.026048e+01 -4.000000e+00 6.347721e+01
      endloop
   endfacet
   facet normal -1.736473e-01 0.000000e+00 -9.848079e-01
      outer loop
         vertex -7.026048e+01 8.881784e-15 6.347721e+01
         vertex -6.925000e+01 8.881784e-15 6.329904e+01
         vertex -7.026048e+01 -4.000000e+00 6.347721e+01
      endloop
   endfacet
   facet normal -7.660444e-01 0.000000e+00 -6.427877e-01
      outer loop
         vertex -6.859046e+01 8.881784e-15 6.251303e+01
         vertex -6.859046e+01 -4.000000e+00 6.251303e+01
         vertex -6.925000e+01 -4.000000e+00 6.329904e+01
      endloop
   endfacet
   facet normal -7.660444e-01 0.000000e+00 -6.427877e-01
      outer loop
         vertex -6.925000e+01 8.881784e-15 6.329904e+01
         vertex -6.859046e+01 8.881784e-15 6.251303e+01
         vertex -6.925000e+01 -4.000000e+00 6.329904e+01
      endloop
   endfacet
   facet normal -1.000000e+00 0.000000e+00 0.000000e+00
      outer loop
         vertex -6.859046e+01 8.881784e-15 6.148697e+01
         vertex -6.859046e+01 -4.000000e+00 6.148697e+01
         vertex -6.859046e+01 -4.000000e+00 6.251303e+01
      endloop
   endfacet
   facet normal -1.000000e+00 0.000000e+00 0.000000e+00
      outer loop
         vertex -6.859046e+01 8.881784e-15 6.251303e+01
         vertex -6.859046e+01 8.881784e-15 6.148697e+01
         vertex -6.859046e+01 -4.000000e+00 6.251303e+01
      endloop
   endfacet
   facet normal -7.660444e-01 0.000000e+00 6.427877e-01
      outer loop
         vertex -6.925000e+01 8.881784e-15 6.070096e+01
         vertex -6.925000e+01 -4.000000e+00 6.070096e+01
         vertex -6.859046e+01 -4.000000e+00 6.148697e+01
      endloop
   endfacet
   facet normal -7.660444e-01 0.000000e+00 6.427877e-01
      outer loop
         vertex -6.859046e+01 8.881784e-15 6.148697e+01
         vertex -6.925000e+01 8.881784e-15 6.070096e+01
         vertex -6.859046e+01 -4.000000e+00 6.148697e+01
      endloop
   endfacet
   facet normal -1.736473e-01 0.000000e+00 9.848079e-01
      outer loop
         vertex -7.026048e+01 8.881784e-15 6.052279e+01
         vertex -7.026048e+01 -4.000000e+00 6.052279e+01
         vertex -6.925000e+01 -4.000000e+00 6.070096e+01
      endloop
   endfacet
   facet normal -1.736473e-01 0.000000e+00 9.848079e-01
      outer loop
         vertex -6.925000e+01 8.881784e-15 6.070096e+01
         vertex -7.026048e+01 8.881784e-15 6.052279e+01
         vertex -6.925000e+01 -4.000000e+00 6.070096e+01
      endloop
   endfacet
   facet normal 5.000033e-01 -0.000000e+00 8.660235e-01
      outer loop
         vertex -7.114906e+01 8.881784e-15 6.103582e+01
         vertex -7.114906e+01 -4.000000e+00 6.103582e+01
         vertex -7.026048e+01 -4.000000e+00 6.052279e+01
      endloop
   endfacet
   facet normal 5.000033e-01 0.000000e+00 8.660235e-01
      outer loop
         vertex -7.026048e+01 8.881784e-15 6.052279e+01
         vertex -7.114906e+01 8.881784e-15 6.103582e+01
         vertex -7.026048e+01 -4.000000e+00 6.052279e+01
      endloop
   endfacet
   facet normal 9.396913e-01 -0.000000e+00 3.420236e-01
      outer loop
         vertex -7.150000e+01 8.881784e-15 6.200000e+01
         vertex -7.150000e+01 -4.000000e+00 6.200000e+01
         vertex -7.114906e+01 -4.000000e+00 6.103582e+01
      endloop
   endfacet
   facet normal 9.396913e-01 0.000000e+00 3.420236e-01
      outer loop
         vertex -7.114906e+01 8.881784e-15 6.103582e+01
         vertex -7.150000e+01 8.881784e-15 6.200000e+01
         vertex -7.114906e+01 -4.000000e+00 6.103582e+01
      endloop
   endfacet
   facet normal 9.396925e-01 0.000000e+00 -3.420204e-01
      outer loop
         vertex -3.114907e+01 3.552714e-15 6.296418e+01
         vertex -3.114907e+01 -4.000000e+00 6.296418e+01
         vertex -3.150000e+01 -4.000000e+00 6.200000e+01
      endloop
   endfacet
   facet normal 9.396925e-01 0.000000e+00 -3.420204e-01
      outer loop
         vertex -3.150000e+01 3.552714e-15 6.200000e+01
         vertex -3.114907e+01 3.552714e-15 6.296418e+01
         vertex -3.150000e+01 -4.000000e+00 6.200000e+01
      endloop
   endfacet
   facet normal 5.000001e-01 0.000000e+00 -8.660254e-01
      outer loop
         vertex -3.026047e+01 3.552714e-15 6.347721e+01
         vertex -3.026047e+01 -4.000000e+00 6.347721e+01
         vertex -3.114907e+01 -4.000000e+00 6.296418e+01
      endloop
   endfacet
   facet normal 5.000001e-01 0.000000e+00 -8.660254e-01
      outer loop
         vertex -3.114907e+01 3.552714e-15 6.296418e+01
         vertex -3.026047e+01 3.552714e-15 6.347721e+01
         vertex -3.114907e+01 -4.000000e+00 6.296418e+01
      endloop
   endfacet
   facet normal -1.736479e-01 0.000000e+00 -9.848078e-01
      outer loop
         vertex -2.925000e+01 3.552714e-15 6.329904e+01
         vertex -2.925000e+01 -4.000000e+00 6.329904e+01
         vertex -3.026047e+01 -4.000000e+00 6.347721e+01
      endloop
   endfacet
   facet normal -1.736479e-01 0.000000e+00 -9.848078e-01
      outer loop
         vertex -3.026047e+01 3.552714e-15 6.347721e+01
         vertex -2.925000e+01 3.552714e-15 6.329904e+01
         vertex -3.026047e+01 -4.000000e+00 6.347721e+01
      endloop
   endfacet
   facet normal -7.660444e-01 0.000000e+00 -6.427877e-01
      outer loop
         vertex -2.859046e+01 3.552714e-15 6.251303e+01
         vertex -2.859046e+01 -4.000000e+00 6.251303e+01
         vertex -2.925000e+01 -4.000000e+00 6.329904e+01
      endloop
   endfacet
   facet normal -7.660444e-01 0.000000e+00 -6.427877e-01
      outer loop
         vertex -2.925000e+01 3.552714e-15 6.329904e+01
         vertex -2.859046e+01 3.552714e-15 6.251303e+01
         vertex -2.925000e+01 -4.000000e+00 6.329904e+01
      endloop
   endfacet
   facet normal -1.000000e+00 0.000000e+00 0.000000e+00
      outer loop
         vertex -2.859046e+01 3.552714e-15 6.148697e+01
         vertex -2.859046e+01 -4.000000e+00 6.148697e+01
         vertex -2.859046e+01 -4.000000e+00 6.251303e+01
      endloop
   endfacet
   facet normal -1.000000e+00 0.000000e+00 0.000000e+00
      outer loop
         vertex -2.859046e+01 3.552714e-15 6.251303e+01
         vertex -2.859046e+01 3.552714e-15 6.148697e+01
         vertex -2.859046e+01 -4.000000e+00 6.251303e+01
      endloop
   endfacet
   facet normal -7.660444e-01 0.000000e+00 6.427877e-01
      outer loop
         vertex -2.925000e+01 3.552714e-15 6.070096e+01
         vertex -2.925000e+01 -4.000000e+00 6.070096e+01
         vertex -2.859046e+01 -4.000000e+00 6.148697e+01
      endloop
   endfacet
   facet normal -7.660444e-01 0.000000e+00 6.427877e-01
      outer loop
         vertex -2.859046e+01 3.552714e-15 6.148697e+01
         vertex -2.925000e+01 3.552714e-15 6.070096e+01
         vertex -2.859046e+01 -4.000000e+00 6.148697e+01
      endloop
   endfacet
   facet normal -1.736479e-01 0.000000e+00 9.848078e-01
      outer loop
         vertex -3.026047e+01 3.552714e-15 6.052279e+01
         vertex -3.026047e+01 -4.000000e+00 6.052279e+01
         vertex -2.925000e+01 -4.000000e+00 6.070096e+01
      endloop
   endfacet
   facet normal -1.736479e-01 0.000000e+00 9.848078e-01
      outer loop
         vertex -2.925000e+01 3.552714e-15 6.070096e+01
         vertex -3.026047e+01 3.552714e-15 6.052279e+01
         vertex -2.925000e+01 -4.000000e+00 6.070096e+01
      endloop
   endfacet
   facet normal 5.000001e-01 -0.000000e+00 8.660254e-01
      outer loop
         vertex -3.114907e+01 3.552714e-15 6.103582e+01
         vertex -3.114907e+01 -4.000000e+00 6.103582e+01
         vertex -3.026047e+01 -4.000000e+00 6.052279e+01
      endloop
   endfacet
   facet normal 5.000001e-01 0.000000e+00 8.660254e-01
      outer loop
         vertex -3.026047e+01 3.552714e-15 6.052279e+01
         vertex -3.114907e+01 3.552714e-15 6.103582e+01
         vertex -3.026047e+01 -4.000000e+00 6.052279e+01
      endloop
   endfacet
   facet normal 9.396925e-01 -0.000000e+00 3.420204e-01
      outer loop
         vertex -3.150000e+01 3.552714e-15 6.200000e+01
         vertex -3.150000e+01 -4.000000e+00 6.200000e+01
         vertex -3.114907e+01 -4.000000e+00 6.103582e+01
      endloop
   endfacet
   facet normal 9.396925e-01 0.000000e+00 3.420204e-01
      outer loop
         vertex -3.114907e+01 3.552714e-15 6.103582e+01
         vertex -3.150000e+01 3.552714e-15 6.200000e+01
         vertex -3.114907e+01 -4.000000e+00 6.103582e+01
      endloop
   endfacet
   facet normal 0.000000e+00 0.000000e+00 -1.000000e+00
      outer loop
         vertex -4.550000e+01 -2.500000e+00 4.600000e+01
         vertex -4.550000e+01 5.773160e-15 4.600000e+01
         vertex -2.450000e+01 4.440892e-16 4.600000e+01
      endloop
   endfacet
   facet normal 0.000000e+00 0.000000e+00 -1.000000e+00
      outer loop
         vertex -2.450000e+01 -2.500000e+00 4.600000e+01
         vertex -4.550000e+01 -2.500000e+00 4.600000e+01
         vertex -2.450000e+01 4.440892e-16 4.600000e+01
      endloop
   endfacet
   facet normal 1.000000e+00 0.000000e+00 -0.000000e+00
      outer loop
         vertex -4.550000e+01 -2.500000e+00 2.500000e+01
         vertex -4.550000e+01 5.773160e-15 2.500000e+01
         vertex -4.550000e+01 5.773160e-15 4.600000e+01
      endloop
   endfacet
   facet normal 1.000000e+00 0.000000e+00 0.000000e+00
      outer loop
         vertex -4.550000e+01 -2.500000e+00 4.600000e+01
         vertex -4.550000e+01 -2.500000e+00 2.500000e+01
         vertex -4.550000e+01 5.773160e-15 4.600000e+01
      endloop
   endfacet
   facet normal 0.000000e+00 0.000000e+00 1.000000e+00
      outer loop
         vertex -2.450000e+01 -2.500000e+00 2.500000e+01
         vertex -2.450000e+01 3.108624e-15 2.500000e+01
         vertex -4.550000e+01 5.773160e-15 2.500000e+01
      endloop
   endfacet
   facet normal 0.000000e+00 0.000000e+00 1.000000e+00
      outer loop
         vertex -4.550000e+01 -2.500000e+00 2.500000e+01
         vertex -2.450000e+01 -2.500000e+00 2.500000e+01
         vertex -4.550000e+01 5.773160e-15 2.500000e+01
      endloop
   endfacet
   facet normal -1.000000e+00 -0.000000e+00 -0.000000e+00
      outer loop
         vertex -2.450000e+01 -2.500000e+00 4.600000e+01
         vertex -2.450000e+01 3.108624e-15 4.600000e+01
         vertex -2.450000e+01 3.108624e-15 2.500000e+01
      endloop
   endfacet
   facet normal -1.000000e+00 0.000000e+00 0.000000e+00
      outer loop
         vertex -2.450000e+01 -2.500000e+00 2.500000e+01
         vertex -2.450000e+01 -2.500000e+00 4.600000e+01
         vertex -2.450000e+01 3.108624e-15 2.500000e+01
      endloop
   endfacet
   facet normal 0.000000e+00 1.000000e+00 0.000000e+00
      outer loop
         vertex -5.014907e+01 5.000000e+00 3.903582e+01
         vertex -5.050000e+01 5.000000e+00 4.000000e+01
         vertex -4.926047e+01 5.000000e+00 3.852279e+01
      endloop
   endfacet
   facet normal 0.000000e+00 1.000000e+00 0.000000e+00
      outer loop
         vertex -5.050000e+01 5.000000e+00 4.000000e+01
         vertex -5.014907e+01 5.000000e+00 4.096418e+01
         vertex -4.926047e+01 5.000000e+00 3.852279e+01
      endloop
   endfacet
   facet normal 0.000000e+00 1.000000e+00 0.000000e+00
      outer loop
         vertex -4.926047e+01 5.000000e+00 3.852279e+01
         vertex -5.014907e+01 5.000000e+00 4.096418e+01
         vertex -4.825000e+01 5.000000e+00 3.870096e+01
      endloop
   endfacet
   facet normal 0.000000e+00 1.000000e+00 0.000000e+00
      outer loop
         vertex -5.014907e+01 5.000000e+00 4.096418e+01
         vertex -4.926047e+01 5.000000e+00 4.147721e+01
         vertex -4.825000e+01 5.000000e+00 3.870096e+01
      endloop
   endfacet
   facet normal 0.000000e+00 1.000000e+00 0.000000e+00
      outer loop
         vertex -4.825000e+01 5.000000e+00 3.870096e+01
         vertex -4.926047e+01 5.000000e+00 4.147721e+01
         vertex -4.759046e+01 5.000000e+00 3.948697e+01
      endloop
   endfacet
   facet normal 0.000000e+00 1.000000e+00 0.000000e+00
      outer loop
         vertex -4.926047e+01 5.000000e+00 4.147721e+01
         vertex -4.825000e+01 5.000000e+00 4.129904e+01
         vertex -4.759046e+01 5.000000e+00 3.948697e+01
      endloop
   endfacet
   facet normal 0.000000e+00 1.000000e+00 0.000000e+00
      outer loop
         vertex -4.759046e+01 5.000000e+00 3.948697e+01
         vertex -4.825000e+01 5.000000e+00 4.129904e+01
         vertex -4.759046e+01 5.000000e+00 4.051303e+01
      endloop
   endfacet
   facet normal 0.000000e+00 1.000000e+00 0.000000e+00
      outer loop
         vertex -2.214907e+01 5.000000e+00 3.903582e+01
         vertex -2.250000e+01 5.000000e+00 4.000000e+01
         vertex -2.126047e+01 5.000000e+00 3.852279e+01
      endloop
   endfacet
   facet normal 0.000000e+00 1.000000e+00 0.000000e+00
      outer loop
         vertex -2.250000e+01 5.000000e+00 4.000000e+01
         vertex -2.214907e+01 5.000000e+00 4.096418e+01
         vertex -2.126047e+01 5.000000e+00 3.852279e+01
      endloop
   endfacet
   facet normal 0.000000e+00 1.000000e+00 0.000000e+00
      outer loop
         vertex -2.126047e+01 5.000000e+00 3.852279e+01
         vertex -2.214907e+01 5.000000e+00 4.096418e+01
         vertex -2.025000e+01 5.000000e+00 3.870096e+01
      endloop
   endfacet
   facet normal 0.000000e+00 1.000000e+00 0.000000e+00
      outer loop
         vertex -2.214907e+01 5.000000e+00 4.096418e+01
         vertex -2.126047e+01 5.000000e+00 4.147721e+01
         vertex -2.025000e+01 5.000000e+00 3.870096e+01
      endloop
   endfacet
   facet normal 0.000000e+00 1.000000e+00 0.000000e+00
      outer loop
         vertex -2.025000e+01 5.000000e+00 3.870096e+01
         vertex -2.126047e+01 5.000000e+00 4.147721e+01
         vertex -1.959046e+01 5.000000e+00 3.948697e+01
      endloop
   endfacet
   facet normal 0.000000e+00 1.000000e+00 0.000000e+00
      outer loop
         vertex -2.126047e+01 5.000000e+00 4.147721e+01
         vertex -2.025000e+01 5.000000e+00 4.129904e+01
         vertex -1.959046e+01 5.000000e+00 3.948697e+01
      endloop
   endfacet
   facet normal 0.000000e+00 1.000000e+00 0.000000e+00
      outer loop
         vertex -1.959046e+01 5.000000e+00 3.948697e+01
         vertex -2.025000e+01 5.000000e+00 4.129904e+01
         vertex -1.959046e+01 5.000000e+00 4.051303e+01
      endloop
   endfacet
   facet normal 0.000000e+00 -1.000000e+00 0.000000e+00
      outer loop
         vertex -1.000000e+02 -4.000000e+00 7.000000e+01
         vertex -7.026048e+01 -4.000000e+00 6.347721e+01
         vertex -4.898587e-16 -4.000000e+00 7.000000e+01
      endloop
   endfacet
   facet normal 0.000000e+00 -1.000000e+00 0.000000e+00
      outer loop
         vertex -7.026048e+01 -4.000000e+00 6.347721e+01
         vertex -6.925000e+01 -4.000000e+00 6.329904e+01
         vertex -4.898587e-16 -4.000000e+00 7.000000e+01
      endloop
   endfacet
   facet normal 0.000000e+00 -1.000000e+00 0.000000e+00
      outer loop
         vertex -4.898587e-16 -4.000000e+00 7.000000e+01
         vertex -2.859046e+01 -4.000000e+00 6.251303e+01
         vertex -4.898587e-16 -4.000000e+00 0.000000e+00
      endloop
   endfacet
   facet normal 0.000000e+00 -1.000000e+00 0.000000e+00
      outer loop
         vertex -2.859046e+01 -4.000000e+00 6.251303e+01
         vertex -2.859046e+01 -4.000000e+00 6.148697e+01
         vertex -4.898587e-16 -4.000000e+00 0.000000e+00
      endloop
   endfacet
   facet normal 0.000000e+00 -1.000000e+00 -0.000000e+00
      outer loop
         vertex -4.898587e-16 -4.000000e+00 0.000000e+00
         vertex -2.625000e+01 -4.000000e+00 2.700000e+01
         vertex -1.000000e+02 -4.000000e+00 0.000000e+00
      endloop
   endfacet
   facet normal 0.000000e+00 -1.000000e+00 -0.000000e+00
      outer loop
         vertex -2.625000e+01 -4.000000e+00 2.700000e+01
         vertex -4.375000e+01 -4.000000e+00 2.700000e+01
         vertex -1.000000e+02 -4.000000e+00 0.000000e+00
      endloop
   endfacet
   facet normal -0.000000e+00 -1.000000e+00 0.000000e+00
      outer loop
         vertex -1.000000e+02 -4.000000e+00 0.000000e+00
         vertex -4.375000e+01 -4.000000e+00 2.700000e+01
         vertex -1.000000e+02 -4.000000e+00 7.000000e+01
      endloop
   endfacet
   facet normal -0.000000e+00 -1.000000e+00 -0.000000e+00
      outer loop
         vertex -4.375000e+01 -4.000000e+00 2.700000e+01
         vertex -4.375000e+01 -4.000000e+00 4.450000e+01
         vertex -1.000000e+02 -4.000000e+00 7.000000e+01
      endloop
   endfacet
   facet normal 0.000000e+00 -1.000000e+00 0.000000e+00
      outer loop
         vertex -1.000000e+02 -4.000000e+00 7.000000e+01
         vertex -7.150000e+01 -4.000000e+00 6.200000e+01
         vertex -7.114906e+01 -4.000000e+00 6.296418e+01
      endloop
   endfacet
   facet normal 0.000000e+00 -1.000000e+00 0.000000e+00
      outer loop
         vertex -7.150000e+01 -4.000000e+00 6.200000e+01
         vertex -1.000000e+02 -4.000000e+00 7.000000e+01
         vertex -7.114906e+01 -4.000000e+00 6.103582e+01
      endloop
   endfacet
   facet normal 0.000000e+00 -1.000000e+00 0.000000e+00
      outer loop
         vertex -2.859046e+01 -4.000000e+00 6.251303e+01
         vertex -4.898587e-16 -4.000000e+00 7.000000e+01
         vertex -2.925000e+01 -4.000000e+00 6.329904e+01
      endloop
   endfacet
   facet normal 0.000000e+00 -1.000000e+00 0.000000e+00
      outer loop
         vertex -7.026048e+01 -4.000000e+00 6.347721e+01
         vertex -1.000000e+02 -4.000000e+00 7.000000e+01
         vertex -7.114906e+01 -4.000000e+00 6.296418e+01
      endloop
   endfacet
   facet normal 0.000000e+00 -1.000000e+00 0.000000e+00
      outer loop
         vertex -7.114906e+01 -4.000000e+00 6.103582e+01
         vertex -1.000000e+02 -4.000000e+00 7.000000e+01
         vertex -7.026048e+01 -4.000000e+00 6.052279e+01
      endloop
   endfacet
   facet normal 0.000000e+00 -1.000000e+00 0.000000e+00
      outer loop
         vertex -1.000000e+02 -4.000000e+00 7.000000e+01
         vertex -4.375000e+01 -4.000000e+00 4.450000e+01
         vertex -7.026048e+01 -4.000000e+00 6.052279e+01
      endloop
   endfacet
   facet normal 0.000000e+00 -1.000000e+00 0.000000e+00
      outer loop
         vertex -7.026048e+01 -4.000000e+00 6.052279e+01
         vertex -4.375000e+01 -4.000000e+00 4.450000e+01
         vertex -6.925000e+01 -4.000000e+00 6.070096e+01
      endloop
   endfacet
   facet normal 0.000000e+00 -1.000000e+00 0.000000e+00
      outer loop
         vertex -4.375000e+01 -4.000000e+00 4.450000e+01
         vertex -2.625000e+01 -4.000000e+00 4.450000e+01
         vertex -6.925000e+01 -4.000000e+00 6.070096e+01
      endloop
   endfacet
   facet normal 0.000000e+00 -1.000000e+00 0.000000e+00
      outer loop
         vertex -6.925000e+01 -4.000000e+00 6.070096e+01
         vertex -2.625000e+01 -4.000000e+00 4.450000e+01
         vertex -6.859046e+01 -4.000000e+00 6.148697e+01
      endloop
   endfacet
   facet normal 0.000000e+00 -1.000000e+00 0.000000e+00
      outer loop
         vertex -2.625000e+01 -4.000000e+00 2.700000e+01
         vertex -4.898587e-16 -4.000000e+00 0.000000e+00
         vertex -2.625000e+01 -4.000000e+00 4.450000e+01
      endloop
   endfacet
   facet normal 0.000000e+00 -1.000000e+00 0.000000e+00
      outer loop
         vertex -4.898587e-16 -4.000000e+00 0.000000e+00
         vertex -2.859046e+01 -4.000000e+00 6.148697e+01
         vertex -2.625000e+01 -4.000000e+00 4.450000e+01
      endloop
   endfacet
   facet normal 0.000000e+00 -1.000000e+00 0.000000e+00
      outer loop
         vertex -2.859046e+01 -4.000000e+00 6.148697e+01
         vertex -2.925000e+01 -4.000000e+00 6.070096e+01
         vertex -2.625000e+01 -4.000000e+00 4.450000e+01
      endloop
   endfacet
   facet normal -0.000000e+00 -1.000000e+00 -0.000000e+00
      outer loop
         vertex -2.625000e+01 -4.000000e+00 4.450000e+01
         vertex -3.026047e+01 -4.000000e+00 6.052279e+01
         vertex -6.859046e+01 -4.000000e+00 6.148697e+01
      endloop
   endfacet
   facet normal -0.000000e+00 -1.000000e+00 -0.000000e+00
      outer loop
         vertex -3.026047e+01 -4.000000e+00 6.052279e+01
         vertex -3.114907e+01 -4.000000e+00 6.103582e+01
         vertex -6.859046e+01 -4.000000e+00 6.148697e+01
      endloop
   endfacet
   facet normal 0.000000e+00 -1.000000e+00 0.000000e+00
      outer loop
         vertex -6.859046e+01 -4.000000e+00 6.148697e+01
         vertex -3.114907e+01 -4.000000e+00 6.103582e+01
         vertex -6.859046e+01 -4.000000e+00 6.251303e+01
      endloop
   endfacet
   facet normal -0.000000e+00 -1.000000e+00 -0.000000e+00
      outer loop
         vertex -3.114907e+01 -4.000000e+00 6.103582e+01
         vertex -3.150000e+01 -4.000000e+00 6.200000e+01
         vertex -6.859046e+01 -4.000000e+00 6.251303e+01
      endloop
   endfacet
   facet normal 0.000000e+00 -1.000000e+00 0.000000e+00
      outer loop
         vertex -6.859046e+01 -4.000000e+00 6.251303e+01
         vertex -3.150000e+01 -4.000000e+00 6.200000e+01
         vertex -6.925000e+01 -4.000000e+00 6.329904e+01
      endloop
   endfacet
   facet normal -0.000000e+00 -1.000000e+00 0.000000e+00
      outer loop
         vertex -3.150000e+01 -4.000000e+00 6.200000e+01
         vertex -3.114907e+01 -4.000000e+00 6.296418e+01
         vertex -6.925000e+01 -4.000000e+00 6.329904e+01
      endloop
   endfacet
   facet normal -0.000000e+00 -1.000000e+00 0.000000e+00
      outer loop
         vertex -6.925000e+01 -4.000000e+00 6.329904e+01
         vertex -3.026047e+01 -4.000000e+00 6.347721e+01
         vertex -4.898587e-16 -4.000000e+00 7.000000e+01
      endloop
   endfacet
   facet normal 0.000000e+00 -1.000000e+00 0.000000e+00
      outer loop
         vertex -3.026047e+01 -4.000000e+00 6.347721e+01
         vertex -2.925000e+01 -4.000000e+00 6.329904e+01
         vertex -4.898587e-16 -4.000000e+00 7.000000e+01
      endloop
   endfacet
   facet normal 0.000000e+00 -1.000000e+00 0.000000e+00
      outer loop
         vertex -3.026047e+01 -4.000000e+00 6.052279e+01
         vertex -2.625000e+01 -4.000000e+00 4.450000e+01
         vertex -2.925000e+01 -4.000000e+00 6.070096e+01
      endloop
   endfacet
   facet normal 0.000000e+00 -1.000000e+00 0.000000e+00
      outer loop
         vertex -3.026047e+01 -4.000000e+00 6.347721e+01
         vertex -6.925000e+01 -4.000000e+00 6.329904e+01
         vertex -3.114907e+01 -4.000000e+00 6.296418e+01
      endloop
   endfacet
   facet normal 0.000000e+00 1.000000e+00 0.000000e+00
      outer loop
         vertex -4.550000e+01 -2.500000e+00 2.500000e+01
         vertex -4.375000e+01 -2.500000e+00 2.700000e+01
         vertex -2.450000e+01 -2.500000e+00 2.500000e+01
      endloop
   endfacet
   facet normal 0.000000e+00 1.000000e+00 0.000000e+00
      outer loop
         vertex -4.375000e+01 -2.500000e+00 2.700000e+01
         vertex -2.625000e+01 -2.500000e+00 2.700000e+01
         vertex -2.450000e+01 -2.500000e+00 2.500000e+01
      endloop
   endfacet
   facet normal -0.000000e+00 1.000000e+00 0.000000e+00
      outer loop
         vertex -2.450000e+01 -2.500000e+00 2.500000e+01
         vertex -2.625000e+01 -2.500000e+00 2.700000e+01
         vertex -2.450000e+01 -2.500000e+00 4.600000e+01
      endloop
   endfacet
   facet normal -0.000000e+00 1.000000e+00 0.000000e+00
      outer loop
         vertex -2.625000e+01 -2.500000e+00 2.700000e+01
         vertex -2.625000e+01 -2.500000e+00 4.450000e+01
         vertex -2.450000e+01 -2.500000e+00 4.600000e+01
      endloop
   endfacet
   facet normal 0.000000e+00 1.000000e+00 -0.000000e+00
      outer loop
         vertex -2.450000e+01 -2.500000e+00 4.600000e+01
         vertex -2.625000e+01 -2.500000e+00 4.450000e+01
         vertex -4.550000e+01 -2.500000e+00 4.600000e+01
      endloop
   endfacet
   facet normal 0.000000e+00 1.000000e+00 -0.000000e+00
      outer loop
         vertex -2.625000e+01 -2.500000e+00 4.450000e+01
         vertex -4.375000e+01 -2.500000e+00 4.450000e+01
         vertex -4.550000e+01 -2.500000e+00 4.600000e+01
      endloop
   endfacet
   facet normal 0.000000e+00 1.000000e+00 0.000000e+00
      outer loop
         vertex -4.550000e+01 -2.500000e+00 4.600000e+01
         vertex -4.375000e+01 -2.500000e+00 4.450000e+01
         vertex -4.550000e+01 -2.500000e+00 2.500000e+01
      endloop
   endfacet
   facet normal 0.000000e+00 1.000000e+00 -0.000000e+00
      outer loop
         vertex -4.375000e+01 -2.500000e+00 4.450000e+01
         vertex -4.375000e+01 -2.500000e+00 2.700000e+01
         vertex -4.550000e+01 -2.500000e+00 2.500000e+01
      endloop
   endfacet
   facet normal 0.000000e+00 0.000000e+00 -1.000000e+00
      outer loop
         vertex -4.375000e+01 -4.000000e+00 4.450000e+01
         vertex -4.375000e+01 -2.500000e+00 4.450000e+01
         vertex -2.625000e+01 -2.500000e+00 4.450000e+01
      endloop
   endfacet
   facet normal 0.000000e+00 0.000000e+00 -1.000000e+00
      outer loop
         vertex -2.625000e+01 -4.000000e+00 4.450000e+01
         vertex -4.375000e+01 -4.000000e+00 4.450000e+01
         vertex -2.625000e+01 -2.500000e+00 4.450000e+01
      endloop
   endfacet
   facet normal -1.000000e+00 -0.000000e+00 -0.000000e+00
      outer loop
         vertex -2.625000e+01 -4.000000e+00 4.450000e+01
         vertex -2.625000e+01 -2.500000e+00 4.450000e+01
         vertex -2.625000e+01 -2.500000e+00 2.700000e+01
      endloop
   endfacet
   facet normal -1.000000e+00 0.000000e+00 0.000000e+00
      outer loop
         vertex -2.625000e+01 -4.000000e+00 2.700000e+01
         vertex -2.625000e+01 -4.000000e+00 4.450000e+01
         vertex -2.625000e+01 -2.500000e+00 2.700000e+01
      endloop
   endfacet
   facet normal 0.000000e+00 0.000000e+00 1.000000e+00
      outer loop
         vertex -2.625000e+01 -4.000000e+00 2.700000e+01
         vertex -2.625000e+01 -2.500000e+00 2.700000e+01
         vertex -4.375000e+01 -2.500000e+00 2.700000e+01
      endloop
   endfacet
   facet normal 0.000000e+00 0.000000e+00 1.000000e+00
      outer loop
         vertex -4.375000e+01 -4.000000e+00 2.700000e+01
         vertex -2.625000e+01 -4.000000e+00 2.700000e+01
         vertex -4.375000e+01 -2.500000e+00 2.700000e+01
      endloop
   endfacet
   facet normal 1.000000e+00 0.000000e+00 -0.000000e+00
      outer loop
         vertex -4.375000e+01 -4.000000e+00 2.700000e+01
         vertex -4.375000e+01 -2.500000e+00 2.700000e+01
         vertex -4.375000e+01 -2.500000e+00 4.450000e+01
      endloop
   endfacet
   facet normal 1.000000e+00 0.000000e+00 0.000000e+00
      outer loop
         vertex -4.375000e+01 -4.000000e+00 4.450000e+01
         vertex -4.375000e+01 -4.000000e+00 2.700000e+01
         vertex -4.375000e+01 -2.500000e+00 4.450000e+01
      endloop
   endfacet
endsolid
