solid 
   facet normal 0.000000e+00 0.000000e+00 1.000000e+00
      outer loop
         vertex -7.093629e+00 2.435246e+00 1.300000e+01
         vertex -7.500000e+00 9.184850e-16 1.300000e+01
         vertex -5.918554e+00 4.606596e+00 1.300000e+01
      endloop
   endfacet
   facet normal 0.000000e+00 -0.000000e+00 1.000000e+00
      outer loop
         vertex -7.500000e+00 9.184850e-16 1.300000e+01
         vertex -7.093629e+00 -2.435246e+00 1.300000e+01
         vertex -5.918554e+00 4.606596e+00 1.300000e+01
      endloop
   endfacet
   facet normal 0.000000e+00 0.000000e+00 1.000000e+00
      outer loop
         vertex -5.918554e+00 4.606596e+00 1.300000e+01
         vertex -7.093629e+00 -2.435246e+00 1.300000e+01
         vertex -4.102111e+00 6.278749e+00 1.300000e+01
      endloop
   endfacet
   facet normal 0.000000e+00 -0.000000e+00 1.000000e+00
      outer loop
         vertex -7.093629e+00 -2.435246e+00 1.300000e+01
         vertex -5.918554e+00 -4.606596e+00 1.300000e+01
         vertex -4.102111e+00 6.278749e+00 1.300000e+01
      endloop
   endfacet
   facet normal 0.000000e+00 0.000000e+00 1.000000e+00
      outer loop
         vertex -4.102111e+00 6.278749e+00 1.300000e+01
         vertex -5.918554e+00 -4.606596e+00 1.300000e+01
         vertex -1.841141e+00 7.270502e+00 1.300000e+01
      endloop
   endfacet
   facet normal 0.000000e+00 -0.000000e+00 1.000000e+00
      outer loop
         vertex -5.918554e+00 -4.606596e+00 1.300000e+01
         vertex -4.102111e+00 -6.278749e+00 1.300000e+01
         vertex -1.841141e+00 7.270502e+00 1.300000e+01
      endloop
   endfacet
   facet normal 0.000000e+00 0.000000e+00 1.000000e+00
      outer loop
         vertex -1.841141e+00 7.270502e+00 1.300000e+01
         vertex -2.660110e+00 1.492084e+00 1.300000e+01
         vertex 6.193451e-01 7.474384e+00 1.300000e+01
      endloop
   endfacet
   facet normal 0.000000e+00 -0.000000e+00 1.000000e+00
      outer loop
         vertex -2.660110e+00 1.492084e+00 1.300000e+01
         vertex -1.590121e+00 2.602694e+00 1.300000e+01
         vertex 6.193451e-01 7.474384e+00 1.300000e+01
      endloop
   endfacet
   facet normal 0.000000e+00 0.000000e+00 1.000000e+00
      outer loop
         vertex 6.193451e-01 7.474384e+00 1.300000e+01
         vertex -1.590121e+00 2.602694e+00 1.300000e+01
         vertex 3.012716e+00 6.868300e+00 1.300000e+01
      endloop
   endfacet
   facet normal 0.000000e+00 -0.000000e+00 1.000000e+00
      outer loop
         vertex -1.590121e+00 2.602694e+00 1.300000e+01
         vertex -1.135925e-01 3.047884e+00 1.300000e+01
         vertex 3.012716e+00 6.868300e+00 1.300000e+01
      endloop
   endfacet
   facet normal 0.000000e+00 0.000000e+00 1.000000e+00
      outer loop
         vertex 3.012716e+00 6.868300e+00 1.300000e+01
         vertex -1.135925e-01 3.047884e+00 1.300000e+01
         vertex 5.079612e+00 5.517930e+00 1.300000e+01
      endloop
   endfacet
   facet normal 0.000000e+00 -0.000000e+00 1.000000e+00
      outer loop
         vertex -1.135925e-01 3.047884e+00 1.300000e+01
         vertex 1.391978e+00 2.713835e+00 1.300000e+01
         vertex 5.079612e+00 5.517930e+00 1.300000e+01
      endloop
   endfacet
   facet normal 0.000000e+00 0.000000e+00 1.000000e+00
      outer loop
         vertex 5.079612e+00 5.517930e+00 1.300000e+01
         vertex 1.391978e+00 2.713835e+00 1.300000e+01
         vertex 6.596053e+00 3.569605e+00 1.300000e+01
      endloop
   endfacet
   facet normal 0.000000e+00 -0.000000e+00 1.000000e+00
      outer loop
         vertex 1.391978e+00 2.713835e+00 1.300000e+01
         vertex 2.541667e+00 1.685951e+00 1.300000e+01
         vertex 6.596053e+00 3.569605e+00 1.300000e+01
      endloop
   endfacet
   facet normal -0.000000e+00 0.000000e+00 1.000000e+00
      outer loop
         vertex 6.596053e+00 3.569605e+00 1.300000e+01
         vertex 2.541667e+00 1.685951e+00 1.300000e+01
         vertex 7.397710e+00 1.234459e+00 1.300000e+01
      endloop
   endfacet
   facet normal 0.000000e+00 0.000000e+00 1.000000e+00
      outer loop
         vertex 2.541667e+00 1.685951e+00 1.300000e+01
         vertex 2.541667e+00 -1.685951e+00 1.300000e+01
         vertex 7.397710e+00 1.234459e+00 1.300000e+01
      endloop
   endfacet
   facet normal 0.000000e+00 0.000000e+00 1.000000e+00
      outer loop
         vertex 7.397710e+00 1.234459e+00 1.300000e+01
         vertex 2.541667e+00 -1.685951e+00 1.300000e+01
         vertex 7.397710e+00 -1.234459e+00 1.300000e+01
      endloop
   endfacet
   facet normal 0.000000e+00 0.000000e+00 1.000000e+00
      outer loop
         vertex 2.541667e+00 -1.685951e+00 1.300000e+01
         vertex 1.391978e+00 -2.713835e+00 1.300000e+01
         vertex 7.397710e+00 -1.234459e+00 1.300000e+01
      endloop
   endfacet
   facet normal -0.000000e+00 0.000000e+00 1.000000e+00
      outer loop
         vertex 7.397710e+00 -1.234459e+00 1.300000e+01
         vertex 1.391978e+00 -2.713835e+00 1.300000e+01
         vertex 6.596053e+00 -3.569605e+00 1.300000e+01
      endloop
   endfacet
   facet normal -0.000000e+00 0.000000e+00 1.000000e+00
      outer loop
         vertex 1.391978e+00 -2.713835e+00 1.300000e+01
         vertex -1.135925e-01 -3.047884e+00 1.300000e+01
         vertex 6.596053e+00 -3.569605e+00 1.300000e+01
      endloop
   endfacet
   facet normal 0.000000e+00 0.000000e+00 1.000000e+00
      outer loop
         vertex 6.596053e+00 -3.569605e+00 1.300000e+01
         vertex -1.135925e-01 -3.047884e+00 1.300000e+01
         vertex 5.079612e+00 -5.517930e+00 1.300000e+01
      endloop
   endfacet
   facet normal 0.000000e+00 0.000000e+00 1.000000e+00
      outer loop
         vertex -1.135925e-01 -3.047884e+00 1.300000e+01
         vertex -1.590121e+00 -2.602694e+00 1.300000e+01
         vertex 5.079612e+00 -5.517930e+00 1.300000e+01
      endloop
   endfacet
   facet normal 0.000000e+00 0.000000e+00 1.000000e+00
      outer loop
         vertex 5.079612e+00 -5.517930e+00 1.300000e+01
         vertex -1.590121e+00 -2.602694e+00 1.300000e+01
         vertex 3.012716e+00 -6.868300e+00 1.300000e+01
      endloop
   endfacet
   facet normal 0.000000e+00 0.000000e+00 1.000000e+00
      outer loop
         vertex -2.660110e+00 1.492084e+00 1.300000e+01
         vertex -1.841141e+00 7.270502e+00 1.300000e+01
         vertex -3.050000e+00 1.408004e-15 1.300000e+01
      endloop
   endfacet
   facet normal 0.000000e+00 0.000000e+00 1.000000e+00
      outer loop
         vertex -1.841141e+00 7.270502e+00 1.300000e+01
         vertex -4.102111e+00 -6.278749e+00 1.300000e+01
         vertex -3.050000e+00 1.408004e-15 1.300000e+01
      endloop
   endfacet
   facet normal 0.000000e+00 0.000000e+00 1.000000e+00
      outer loop
         vertex -4.102111e+00 -6.278749e+00 1.300000e+01
         vertex -1.841141e+00 -7.270502e+00 1.300000e+01
         vertex -3.050000e+00 1.408004e-15 1.300000e+01
      endloop
   endfacet
   facet normal 0.000000e+00 0.000000e+00 1.000000e+00
      outer loop
         vertex -3.050000e+00 1.408004e-15 1.300000e+01
         vertex -1.841141e+00 -7.270502e+00 1.300000e+01
         vertex -2.660110e+00 -1.492084e+00 1.300000e+01
      endloop
   endfacet
   facet normal 0.000000e+00 0.000000e+00 1.000000e+00
      outer loop
         vertex -1.841141e+00 -7.270502e+00 1.300000e+01
         vertex 6.193451e-01 -7.474384e+00 1.300000e+01
         vertex -2.660110e+00 -1.492084e+00 1.300000e+01
      endloop
   endfacet
   facet normal 0.000000e+00 0.000000e+00 1.000000e+00
      outer loop
         vertex -2.660110e+00 -1.492084e+00 1.300000e+01
         vertex 6.193451e-01 -7.474384e+00 1.300000e+01
         vertex -1.590121e+00 -2.602694e+00 1.300000e+01
      endloop
   endfacet
   facet normal 0.000000e+00 0.000000e+00 1.000000e+00
      outer loop
         vertex 6.193451e-01 -7.474384e+00 1.300000e+01
         vertex 3.012716e+00 -6.868300e+00 1.300000e+01
         vertex -1.590121e+00 -2.602694e+00 1.300000e+01
      endloop
   endfacet
   facet normal -1.000000e+00 0.000000e+00 0.000000e+00
      outer loop
         vertex 2.541667e+00 -1.685951e+00 5.000000e+00
         vertex 2.541667e+00 -1.685951e+00 1.300000e+01
         vertex 2.541667e+00 1.685951e+00 1.300000e+01
      endloop
   endfacet
   facet normal -1.000000e+00 0.000000e+00 0.000000e+00
      outer loop
         vertex 2.541667e+00 1.685951e+00 5.000000e+00
         vertex 2.541667e+00 -1.685951e+00 5.000000e+00
         vertex 2.541667e+00 1.685951e+00 1.300000e+01
      endloop
   endfacet
   facet normal -6.665119e-01 -7.454944e-01 0.000000e+00
      outer loop
         vertex 1.391978e+00 2.713835e+00 1.300000e+01
         vertex 1.391978e+00 2.713835e+00 5.000000e+00
         vertex 2.541667e+00 1.685951e+00 5.000000e+00
      endloop
   endfacet
   facet normal -6.665119e-01 -7.454944e-01 0.000000e+00
      outer loop
         vertex 2.541667e+00 1.685951e+00 1.300000e+01
         vertex 1.391978e+00 2.713835e+00 1.300000e+01
         vertex 2.541667e+00 1.685951e+00 5.000000e+00
      endloop
   endfacet
   facet normal -2.166080e-01 -9.762587e-01 0.000000e+00
      outer loop
         vertex -1.135925e-01 3.047884e+00 1.300000e+01
         vertex -1.135925e-01 3.047884e+00 5.000000e+00
         vertex 1.391978e+00 2.713835e+00 5.000000e+00
      endloop
   endfacet
   facet normal -2.166080e-01 -9.762587e-01 0.000000e+00
      outer loop
         vertex 1.391978e+00 2.713835e+00 1.300000e+01
         vertex -1.135925e-01 3.047884e+00 1.300000e+01
         vertex 1.391978e+00 2.713835e+00 5.000000e+00
      endloop
   endfacet
   facet normal 2.886751e-01 -9.574271e-01 0.000000e+00
      outer loop
         vertex -1.590121e+00 2.602694e+00 1.300000e+01
         vertex -1.590121e+00 2.602694e+00 5.000000e+00
         vertex -1.135925e-01 3.047884e+00 5.000000e+00
      endloop
   endfacet
   facet normal 2.886751e-01 -9.574271e-01 0.000000e+00
      outer loop
         vertex -1.135925e-01 3.047884e+00 1.300000e+01
         vertex -1.590121e+00 2.602694e+00 1.300000e+01
         vertex -1.135925e-01 3.047884e+00 5.000000e+00
      endloop
   endfacet
   facet normal 7.201540e-01 -6.938143e-01 0.000000e+00
      outer loop
         vertex -2.660110e+00 1.492084e+00 1.300000e+01
         vertex -2.660110e+00 1.492084e+00 5.000000e+00
         vertex -1.590121e+00 2.602694e+00 5.000000e+00
      endloop
   endfacet
   facet normal 7.201540e-01 -6.938143e-01 0.000000e+00
      outer loop
         vertex -1.590121e+00 2.602694e+00 1.300000e+01
         vertex -2.660110e+00 1.492084e+00 1.300000e+01
         vertex -1.590121e+00 2.602694e+00 5.000000e+00
      endloop
   endfacet
   facet normal 9.675141e-01 -2.528170e-01 0.000000e+00
      outer loop
         vertex -3.050000e+00 1.998401e-15 1.300000e+01
         vertex -3.050000e+00 1.998401e-15 5.000000e+00
         vertex -2.660110e+00 1.492084e+00 5.000000e+00
      endloop
   endfacet
   facet normal 9.675141e-01 -2.528170e-01 0.000000e+00
      outer loop
         vertex -2.660110e+00 1.492084e+00 1.300000e+01
         vertex -3.050000e+00 1.998401e-15 1.300000e+01
         vertex -2.660110e+00 1.492084e+00 5.000000e+00
      endloop
   endfacet
   facet normal 9.675141e-01 2.528170e-01 -0.000000e+00
      outer loop
         vertex -2.660110e+00 -1.492084e+00 1.300000e+01
         vertex -2.660110e+00 -1.492084e+00 5.000000e+00
         vertex -3.050000e+00 1.998401e-15 5.000000e+00
      endloop
   endfacet
   facet normal 9.675141e-01 2.528170e-01 0.000000e+00
      outer loop
         vertex -3.050000e+00 1.998401e-15 1.300000e+01
         vertex -2.660110e+00 -1.492084e+00 1.300000e+01
         vertex -3.050000e+00 1.998401e-15 5.000000e+00
      endloop
   endfacet
   facet normal 7.201540e-01 6.938143e-01 -0.000000e+00
      outer loop
         vertex -1.590121e+00 -2.602694e+00 1.300000e+01
         vertex -1.590121e+00 -2.602694e+00 5.000000e+00
         vertex -2.660110e+00 -1.492084e+00 5.000000e+00
      endloop
   endfacet
   facet normal 7.201540e-01 6.938143e-01 0.000000e+00
      outer loop
         vertex -2.660110e+00 -1.492084e+00 1.300000e+01
         vertex -1.590121e+00 -2.602694e+00 1.300000e+01
         vertex -2.660110e+00 -1.492084e+00 5.000000e+00
      endloop
   endfacet
   facet normal 2.886751e-01 9.574271e-01 -0.000000e+00
      outer loop
         vertex -1.135925e-01 -3.047884e+00 1.300000e+01
         vertex -1.135925e-01 -3.047884e+00 5.000000e+00
         vertex -1.590121e+00 -2.602694e+00 5.000000e+00
      endloop
   endfacet
   facet normal 2.886751e-01 9.574271e-01 0.000000e+00
      outer loop
         vertex -1.590121e+00 -2.602694e+00 1.300000e+01
         vertex -1.135925e-01 -3.047884e+00 1.300000e+01
         vertex -1.590121e+00 -2.602694e+00 5.000000e+00
      endloop
   endfacet
   facet normal -2.166080e-01 9.762587e-01 0.000000e+00
      outer loop
         vertex 1.391978e+00 -2.713835e+00 1.300000e+01
         vertex 1.391978e+00 -2.713835e+00 5.000000e+00
         vertex -1.135925e-01 -3.047884e+00 5.000000e+00
      endloop
   endfacet
   facet normal -2.166080e-01 9.762587e-01 0.000000e+00
      outer loop
         vertex -1.135925e-01 -3.047884e+00 1.300000e+01
         vertex 1.391978e+00 -2.713835e+00 1.300000e+01
         vertex -1.135925e-01 -3.047884e+00 5.000000e+00
      endloop
   endfacet
   facet normal -6.665119e-01 7.454944e-01 0.000000e+00
      outer loop
         vertex 2.541667e+00 -1.685951e+00 1.300000e+01
         vertex 2.541667e+00 -1.685951e+00 5.000000e+00
         vertex 1.391978e+00 -2.713835e+00 5.000000e+00
      endloop
   endfacet
   facet normal -6.665119e-01 7.454944e-01 0.000000e+00
      outer loop
         vertex 1.391978e+00 -2.713835e+00 1.300000e+01
         vertex 2.541667e+00 -1.685951e+00 1.300000e+01
         vertex 1.391978e+00 -2.713835e+00 5.000000e+00
      endloop
   endfacet
   facet normal -9.863613e-01 -1.645946e-01 0.000000e+00
      outer loop
         vertex -7.500000e+00 9.184850e-16 3.000000e+00
         vertex -7.093629e+00 -2.435246e+00 3.000000e+00
         vertex -7.093629e+00 -2.435246e+00 1.300000e+01
      endloop
   endfacet
   facet normal -9.863613e-01 -1.645946e-01 0.000000e+00
      outer loop
         vertex -7.500000e+00 9.184850e-16 3.000000e+00
         vertex -7.093629e+00 -2.435246e+00 1.300000e+01
         vertex -7.500000e+00 9.184850e-16 1.300000e+01
      endloop
   endfacet
   facet normal -8.794738e-01 -4.759474e-01 0.000000e+00
      outer loop
         vertex -7.093629e+00 -2.435246e+00 3.000000e+00
         vertex -5.918554e+00 -4.606596e+00 3.000000e+00
         vertex -5.918554e+00 -4.606596e+00 1.300000e+01
      endloop
   endfacet
   facet normal -8.794738e-01 -4.759474e-01 0.000000e+00
      outer loop
         vertex -7.093629e+00 -2.435246e+00 3.000000e+00
         vertex -5.918554e+00 -4.606596e+00 1.300000e+01
         vertex -7.093629e+00 -2.435246e+00 1.300000e+01
      endloop
   endfacet
   facet normal -6.772815e-01 -7.357239e-01 0.000000e+00
      outer loop
         vertex -5.918554e+00 -4.606596e+00 3.000000e+00
         vertex -4.102111e+00 -6.278749e+00 3.000000e+00
         vertex -4.102111e+00 -6.278749e+00 1.300000e+01
      endloop
   endfacet
   facet normal -6.772815e-01 -7.357239e-01 0.000000e+00
      outer loop
         vertex -5.918554e+00 -4.606596e+00 3.000000e+00
         vertex -4.102111e+00 -6.278749e+00 1.300000e+01
         vertex -5.918554e+00 -4.606596e+00 1.300000e+01
      endloop
   endfacet
   facet normal -4.016955e-01 -9.157733e-01 0.000000e+00
      outer loop
         vertex -4.102111e+00 -6.278749e+00 3.000000e+00
         vertex -1.841141e+00 -7.270502e+00 3.000000e+00
         vertex -1.841141e+00 -7.270502e+00 1.300000e+01
      endloop
   endfacet
   facet normal -4.016955e-01 -9.157733e-01 0.000000e+00
      outer loop
         vertex -4.102111e+00 -6.278749e+00 3.000000e+00
         vertex -1.841141e+00 -7.270502e+00 1.300000e+01
         vertex -4.102111e+00 -6.278749e+00 1.300000e+01
      endloop
   endfacet
   facet normal -8.257936e-02 -9.965845e-01 0.000000e+00
      outer loop
         vertex -1.841141e+00 -7.270502e+00 3.000000e+00
         vertex 6.193451e-01 -7.474384e+00 3.000000e+00
         vertex 6.193451e-01 -7.474384e+00 1.300000e+01
      endloop
   endfacet
   facet normal -8.257936e-02 -9.965845e-01 0.000000e+00
      outer loop
         vertex -1.841141e+00 -7.270502e+00 3.000000e+00
         vertex 6.193451e-01 -7.474384e+00 1.300000e+01
         vertex -1.841141e+00 -7.270502e+00 1.300000e+01
      endloop
   endfacet
   facet normal 2.454855e-01 -9.694003e-01 0.000000e+00
      outer loop
         vertex 6.193451e-01 -7.474384e+00 3.000000e+00
         vertex 3.012716e+00 -6.868300e+00 3.000000e+00
         vertex 3.012716e+00 -6.868300e+00 1.300000e+01
      endloop
   endfacet
   facet normal 2.454855e-01 -9.694003e-01 0.000000e+00
      outer loop
         vertex 6.193451e-01 -7.474384e+00 3.000000e+00
         vertex 3.012716e+00 -6.868300e+00 1.300000e+01
         vertex 6.193451e-01 -7.474384e+00 1.300000e+01
      endloop
   endfacet
   facet normal 5.469481e-01 -8.371665e-01 0.000000e+00
      outer loop
         vertex 3.012716e+00 -6.868300e+00 3.000000e+00
         vertex 5.079612e+00 -5.517930e+00 3.000000e+00
         vertex 5.079612e+00 -5.517930e+00 1.300000e+01
      endloop
   endfacet
   facet normal 5.469481e-01 -8.371665e-01 0.000000e+00
      outer loop
         vertex 3.012716e+00 -6.868300e+00 3.000000e+00
         vertex 5.079612e+00 -5.517930e+00 1.300000e+01
         vertex 3.012716e+00 -6.868300e+00 1.300000e+01
      endloop
   endfacet
   facet normal 7.891406e-01 -6.142126e-01 0.000000e+00
      outer loop
         vertex 5.079612e+00 -5.517930e+00 3.000000e+00
         vertex 6.596053e+00 -3.569605e+00 3.000000e+00
         vertex 6.596053e+00 -3.569605e+00 1.300000e+01
      endloop
   endfacet
   facet normal 7.891406e-01 -6.142126e-01 0.000000e+00
      outer loop
         vertex 5.079612e+00 -5.517930e+00 3.000000e+00
         vertex 6.596053e+00 -3.569605e+00 1.300000e+01
         vertex 5.079612e+00 -5.517930e+00 1.300000e+01
      endloop
   endfacet
   facet normal 9.458172e-01 -3.246995e-01 0.000000e+00
      outer loop
         vertex 6.596053e+00 -3.569605e+00 3.000000e+00
         vertex 7.397710e+00 -1.234459e+00 3.000000e+00
         vertex 7.397710e+00 -1.234459e+00 1.300000e+01
      endloop
   endfacet
   facet normal 9.458172e-01 -3.246995e-01 0.000000e+00
      outer loop
         vertex 6.596053e+00 -3.569605e+00 3.000000e+00
         vertex 7.397710e+00 -1.234459e+00 1.300000e+01
         vertex 6.596053e+00 -3.569605e+00 1.300000e+01
      endloop
   endfacet
   facet normal 1.000000e+00 0.000000e+00 -0.000000e+00
      outer loop
         vertex 7.397710e+00 -1.234459e+00 3.000000e+00
         vertex 7.397710e+00 1.234459e+00 3.000000e+00
         vertex 7.397710e+00 1.234459e+00 1.300000e+01
      endloop
   endfacet
   facet normal 1.000000e+00 0.000000e+00 0.000000e+00
      outer loop
         vertex 7.397710e+00 -1.234459e+00 3.000000e+00
         vertex 7.397710e+00 1.234459e+00 1.300000e+01
         vertex 7.397710e+00 -1.234459e+00 1.300000e+01
      endloop
   endfacet
   facet normal 9.458172e-01 3.246995e-01 -0.000000e+00
      outer loop
         vertex 7.397710e+00 1.234459e+00 3.000000e+00
         vertex 6.596053e+00 3.569605e+00 3.000000e+00
         vertex 6.596053e+00 3.569605e+00 1.300000e+01
      endloop
   endfacet
   facet normal 9.458172e-01 3.246995e-01 0.000000e+00
      outer loop
         vertex 7.397710e+00 1.234459e+00 3.000000e+00
         vertex 6.596053e+00 3.569605e+00 1.300000e+01
         vertex 7.397710e+00 1.234459e+00 1.300000e+01
      endloop
   endfacet
   facet normal 7.891406e-01 6.142126e-01 -0.000000e+00
      outer loop
         vertex 6.596053e+00 3.569605e+00 3.000000e+00
         vertex 5.079612e+00 5.517930e+00 3.000000e+00
         vertex 5.079612e+00 5.517930e+00 1.300000e+01
      endloop
   endfacet
   facet normal 7.891406e-01 6.142126e-01 0.000000e+00
      outer loop
         vertex 6.596053e+00 3.569605e+00 3.000000e+00
         vertex 5.079612e+00 5.517930e+00 1.300000e+01
         vertex 6.596053e+00 3.569605e+00 1.300000e+01
      endloop
   endfacet
   facet normal 5.469481e-01 8.371665e-01 -0.000000e+00
      outer loop
         vertex 5.079612e+00 5.517930e+00 3.000000e+00
         vertex 3.012716e+00 6.868300e+00 3.000000e+00
         vertex 3.012716e+00 6.868300e+00 1.300000e+01
      endloop
   endfacet
   facet normal 5.469481e-01 8.371665e-01 0.000000e+00
      outer loop
         vertex 5.079612e+00 5.517930e+00 3.000000e+00
         vertex 3.012716e+00 6.868300e+00 1.300000e+01
         vertex 5.079612e+00 5.517930e+00 1.300000e+01
      endloop
   endfacet
   facet normal 2.454855e-01 9.694003e-01 -0.000000e+00
      outer loop
         vertex 3.012716e+00 6.868300e+00 3.000000e+00
         vertex 6.193451e-01 7.474384e+00 3.000000e+00
         vertex 6.193451e-01 7.474384e+00 1.300000e+01
      endloop
   endfacet
   facet normal 2.454855e-01 9.694003e-01 0.000000e+00
      outer loop
         vertex 3.012716e+00 6.868300e+00 3.000000e+00
         vertex 6.193451e-01 7.474384e+00 1.300000e+01
         vertex 3.012716e+00 6.868300e+00 1.300000e+01
      endloop
   endfacet
   facet normal -8.257936e-02 9.965845e-01 0.000000e+00
      outer loop
         vertex 6.193451e-01 7.474384e+00 3.000000e+00
         vertex -1.841141e+00 7.270502e+00 3.000000e+00
         vertex -1.841141e+00 7.270502e+00 1.300000e+01
      endloop
   endfacet
   facet normal -8.257936e-02 9.965845e-01 0.000000e+00
      outer loop
         vertex 6.193451e-01 7.474384e+00 3.000000e+00
         vertex -1.841141e+00 7.270502e+00 1.300000e+01
         vertex 6.193451e-01 7.474384e+00 1.300000e+01
      endloop
   endfacet
   facet normal -4.016955e-01 9.157733e-01 0.000000e+00
      outer loop
         vertex -1.841141e+00 7.270502e+00 3.000000e+00
         vertex -4.102111e+00 6.278749e+00 3.000000e+00
         vertex -4.102111e+00 6.278749e+00 1.300000e+01
      endloop
   endfacet
   facet normal -4.016955e-01 9.157733e-01 0.000000e+00
      outer loop
         vertex -1.841141e+00 7.270502e+00 3.000000e+00
         vertex -4.102111e+00 6.278749e+00 1.300000e+01
         vertex -1.841141e+00 7.270502e+00 1.300000e+01
      endloop
   endfacet
   facet normal -6.772815e-01 7.357239e-01 0.000000e+00
      outer loop
         vertex -4.102111e+00 6.278749e+00 3.000000e+00
         vertex -5.918554e+00 4.606596e+00 3.000000e+00
         vertex -5.918554e+00 4.606596e+00 1.300000e+01
      endloop
   endfacet
   facet normal -6.772815e-01 7.357239e-01 0.000000e+00
      outer loop
         vertex -4.102111e+00 6.278749e+00 3.000000e+00
         vertex -5.918554e+00 4.606596e+00 1.300000e+01
         vertex -4.102111e+00 6.278749e+00 1.300000e+01
      endloop
   endfacet
   facet normal -8.794738e-01 4.759474e-01 0.000000e+00
      outer loop
         vertex -5.918554e+00 4.606596e+00 3.000000e+00
         vertex -7.093629e+00 2.435246e+00 3.000000e+00
         vertex -7.093629e+00 2.435246e+00 1.300000e+01
      endloop
   endfacet
   facet normal -8.794738e-01 4.759474e-01 0.000000e+00
      outer loop
         vertex -5.918554e+00 4.606596e+00 3.000000e+00
         vertex -7.093629e+00 2.435246e+00 1.300000e+01
         vertex -5.918554e+00 4.606596e+00 1.300000e+01
      endloop
   endfacet
   facet normal -9.863613e-01 1.645946e-01 0.000000e+00
      outer loop
         vertex -7.093629e+00 2.435246e+00 3.000000e+00
         vertex -7.500000e+00 2.755455e-15 3.000000e+00
         vertex -7.500000e+00 2.755455e-15 1.300000e+01
      endloop
   endfacet
   facet normal -9.863613e-01 1.645946e-01 0.000000e+00
      outer loop
         vertex -7.093629e+00 2.435246e+00 3.000000e+00
         vertex -7.500000e+00 2.755455e-15 1.300000e+01
         vertex -7.093629e+00 2.435246e+00 1.300000e+01
      endloop
   endfacet
   facet normal 0.000000e+00 0.000000e+00 1.000000e+00
      outer loop
         vertex 2.541667e+00 -1.685951e+00 5.000000e+00
         vertex 2.541667e+00 1.685951e+00 5.000000e+00
         vertex 1.391978e+00 -2.713835e+00 5.000000e+00
      endloop
   endfacet
   facet normal 0.000000e+00 0.000000e+00 1.000000e+00
      outer loop
         vertex 2.541667e+00 1.685951e+00 5.000000e+00
         vertex 1.391978e+00 2.713835e+00 5.000000e+00
         vertex 1.391978e+00 -2.713835e+00 5.000000e+00
      endloop
   endfacet
   facet normal 0.000000e+00 0.000000e+00 1.000000e+00
      outer loop
         vertex 1.391978e+00 -2.713835e+00 5.000000e+00
         vertex 1.391978e+00 2.713835e+00 5.000000e+00
         vertex -1.135925e-01 -3.047884e+00 5.000000e+00
      endloop
   endfacet
   facet normal 0.000000e+00 0.000000e+00 1.000000e+00
      outer loop
         vertex 1.391978e+00 2.713835e+00 5.000000e+00
         vertex -1.135925e-01 3.047884e+00 5.000000e+00
         vertex -1.135925e-01 -3.047884e+00 5.000000e+00
      endloop
   endfacet
   facet normal 0.000000e+00 0.000000e+00 1.000000e+00
      outer loop
         vertex -1.135925e-01 -3.047884e+00 5.000000e+00
         vertex -1.135925e-01 3.047884e+00 5.000000e+00
         vertex -1.590121e+00 -2.602694e+00 5.000000e+00
      endloop
   endfacet
   facet normal -0.000000e+00 0.000000e+00 1.000000e+00
      outer loop
         vertex -1.135925e-01 3.047884e+00 5.000000e+00
         vertex -1.590121e+00 2.602694e+00 5.000000e+00
         vertex -1.590121e+00 -2.602694e+00 5.000000e+00
      endloop
   endfacet
   facet normal 0.000000e+00 0.000000e+00 1.000000e+00
      outer loop
         vertex -1.590121e+00 -2.602694e+00 5.000000e+00
         vertex -1.590121e+00 2.602694e+00 5.000000e+00
         vertex -2.660110e+00 -1.492084e+00 5.000000e+00
      endloop
   endfacet
   facet normal -0.000000e+00 0.000000e+00 1.000000e+00
      outer loop
         vertex -1.590121e+00 2.602694e+00 5.000000e+00
         vertex -2.660110e+00 1.492084e+00 5.000000e+00
         vertex -2.660110e+00 -1.492084e+00 5.000000e+00
      endloop
   endfacet
   facet normal 0.000000e+00 0.000000e+00 1.000000e+00
      outer loop
         vertex -2.660110e+00 -1.492084e+00 5.000000e+00
         vertex -2.660110e+00 1.492084e+00 5.000000e+00
         vertex -3.050000e+00 1.185959e-15 5.000000e+00
      endloop
   endfacet
   facet normal 0.000000e+00 0.000000e+00 1.000000e+00
      outer loop
         vertex -2.260838e+01 4.226239e+00 3.000000e+00
         vertex -2.300000e+01 2.816688e-15 3.000000e+00
         vertex -2.144686e+01 8.308558e+00 3.000000e+00
      endloop
   endfacet
   facet normal 0.000000e+00 -0.000000e+00 1.000000e+00
      outer loop
         vertex -2.300000e+01 2.816688e-15 3.000000e+00
         vertex -2.260838e+01 -4.226239e+00 3.000000e+00
         vertex -2.144686e+01 8.308558e+00 3.000000e+00
      endloop
   endfacet
   facet normal 0.000000e+00 0.000000e+00 1.000000e+00
      outer loop
         vertex -2.144686e+01 8.308558e+00 3.000000e+00
         vertex -2.260838e+01 -4.226239e+00 3.000000e+00
         vertex -1.955499e+01 1.210794e+01 3.000000e+00
      endloop
   endfacet
   facet normal 0.000000e+00 -0.000000e+00 1.000000e+00
      outer loop
         vertex -2.260838e+01 -4.226239e+00 3.000000e+00
         vertex -2.144686e+01 -8.308558e+00 3.000000e+00
         vertex -1.955499e+01 1.210794e+01 3.000000e+00
      endloop
   endfacet
   facet normal 0.000000e+00 0.000000e+00 1.000000e+00
      outer loop
         vertex -1.955499e+01 1.210794e+01 3.000000e+00
         vertex -2.144686e+01 -8.308558e+00 3.000000e+00
         vertex -1.699721e+01 1.549500e+01 3.000000e+00
      endloop
   endfacet
   facet normal 0.000000e+00 -0.000000e+00 1.000000e+00
      outer loop
         vertex -2.144686e+01 -8.308558e+00 3.000000e+00
         vertex -1.955499e+01 -1.210794e+01 3.000000e+00
         vertex -1.699721e+01 1.549500e+01 3.000000e+00
      endloop
   endfacet
   facet normal 0.000000e+00 0.000000e+00 1.000000e+00
      outer loop
         vertex -1.699721e+01 1.549500e+01 3.000000e+00
         vertex -1.955499e+01 -1.210794e+01 3.000000e+00
         vertex -1.386060e+01 1.835440e+01 3.000000e+00
      endloop
   endfacet
   facet normal 0.000000e+00 -0.000000e+00 1.000000e+00
      outer loop
         vertex -1.955499e+01 -1.210794e+01 3.000000e+00
         vertex -1.699721e+01 -1.549500e+01 3.000000e+00
         vertex -1.386060e+01 1.835440e+01 3.000000e+00
      endloop
   endfacet
   facet normal 0.000000e+00 0.000000e+00 1.000000e+00
      outer loop
         vertex -1.386060e+01 1.835440e+01 3.000000e+00
         vertex -1.699721e+01 -1.549500e+01 3.000000e+00
         vertex -1.025198e+01 2.058876e+01 3.000000e+00
      endloop
   endfacet
   facet normal 0.000000e+00 -0.000000e+00 1.000000e+00
      outer loop
         vertex -1.699721e+01 -1.549500e+01 3.000000e+00
         vertex -1.386060e+01 -1.835440e+01 3.000000e+00
         vertex -1.025198e+01 2.058876e+01 3.000000e+00
      endloop
   endfacet
   facet normal 0.000000e+00 0.000000e+00 1.000000e+00
      outer loop
         vertex -1.025198e+01 2.058876e+01 3.000000e+00
         vertex -1.155000e+01 1.414467e-15 3.000000e+00
         vertex -6.294249e+00 2.212199e+01 3.000000e+00
      endloop
   endfacet
   facet normal 0.000000e+00 -0.000000e+00 1.000000e+00
      outer loop
         vertex -1.155000e+01 1.414467e-15 3.000000e+00
         vertex -1.118737e+01 9.963208e-01 3.000000e+00
         vertex -6.294249e+00 2.212199e+01 3.000000e+00
      endloop
   endfacet
   facet normal 0.000000e+00 0.000000e+00 1.000000e+00
      outer loop
         vertex -6.294249e+00 2.212199e+01 3.000000e+00
         vertex -1.118737e+01 9.963208e-01 3.000000e+00
         vertex -2.122172e+00 2.290189e+01 3.000000e+00
      endloop
   endfacet
   facet normal 0.000000e+00 -0.000000e+00 1.000000e+00
      outer loop
         vertex -1.118737e+01 9.963208e-01 3.000000e+00
         vertex -1.026915e+01 1.526452e+00 3.000000e+00
         vertex -2.122172e+00 2.290189e+01 3.000000e+00
      endloop
   endfacet
   facet normal 0.000000e+00 0.000000e+00 1.000000e+00
      outer loop
         vertex -2.122172e+00 2.290189e+01 3.000000e+00
         vertex -1.026915e+01 1.526452e+00 3.000000e+00
         vertex 2.122172e+00 2.290189e+01 3.000000e+00
      endloop
   endfacet
   facet normal 0.000000e+00 -0.000000e+00 1.000000e+00
      outer loop
         vertex -1.026915e+01 1.526452e+00 3.000000e+00
         vertex -9.225000e+00 1.342339e+00 3.000000e+00
         vertex 2.122172e+00 2.290189e+01 3.000000e+00
      endloop
   endfacet
   facet normal 0.000000e+00 0.000000e+00 1.000000e+00
      outer loop
         vertex 2.122172e+00 2.290189e+01 3.000000e+00
         vertex -9.225000e+00 1.342339e+00 3.000000e+00
         vertex 6.294249e+00 2.212199e+01 3.000000e+00
      endloop
   endfacet
   facet normal 0.000000e+00 -0.000000e+00 1.000000e+00
      outer loop
         vertex -9.225000e+00 1.342339e+00 3.000000e+00
         vertex -5.918554e+00 4.606596e+00 3.000000e+00
         vertex 6.294249e+00 2.212199e+01 3.000000e+00
      endloop
   endfacet
   facet normal 0.000000e+00 0.000000e+00 1.000000e+00
      outer loop
         vertex 6.294249e+00 2.212199e+01 3.000000e+00
         vertex -5.918554e+00 4.606596e+00 3.000000e+00
         vertex 1.025198e+01 2.058876e+01 3.000000e+00
      endloop
   endfacet
   facet normal 0.000000e+00 -0.000000e+00 1.000000e+00
      outer loop
         vertex -5.918554e+00 4.606596e+00 3.000000e+00
         vertex -4.102111e+00 6.278749e+00 3.000000e+00
         vertex 1.025198e+01 2.058876e+01 3.000000e+00
      endloop
   endfacet
   facet normal 0.000000e+00 0.000000e+00 1.000000e+00
      outer loop
         vertex 1.025198e+01 2.058876e+01 3.000000e+00
         vertex -4.102111e+00 6.278749e+00 3.000000e+00
         vertex 1.386060e+01 1.835440e+01 3.000000e+00
      endloop
   endfacet
   facet normal 0.000000e+00 -0.000000e+00 1.000000e+00
      outer loop
         vertex -4.102111e+00 6.278749e+00 3.000000e+00
         vertex -1.841141e+00 7.270502e+00 3.000000e+00
         vertex 1.386060e+01 1.835440e+01 3.000000e+00
      endloop
   endfacet
   facet normal 0.000000e+00 0.000000e+00 1.000000e+00
      outer loop
         vertex 1.386060e+01 1.835440e+01 3.000000e+00
         vertex -1.841141e+00 7.270502e+00 3.000000e+00
         vertex 1.699721e+01 1.549500e+01 3.000000e+00
      endloop
   endfacet
   facet normal 0.000000e+00 -0.000000e+00 1.000000e+00
      outer loop
         vertex -1.841141e+00 7.270502e+00 3.000000e+00
         vertex 6.193451e-01 7.474384e+00 3.000000e+00
         vertex 1.699721e+01 1.549500e+01 3.000000e+00
      endloop
   endfacet
   facet normal 0.000000e+00 0.000000e+00 1.000000e+00
      outer loop
         vertex 1.699721e+01 1.549500e+01 3.000000e+00
         vertex 6.193451e-01 7.474384e+00 3.000000e+00
         vertex 1.955499e+01 1.210794e+01 3.000000e+00
      endloop
   endfacet
   facet normal 0.000000e+00 -0.000000e+00 1.000000e+00
      outer loop
         vertex 6.193451e-01 7.474384e+00 3.000000e+00
         vertex 3.012716e+00 6.868300e+00 3.000000e+00
         vertex 1.955499e+01 1.210794e+01 3.000000e+00
      endloop
   endfacet
   facet normal 0.000000e+00 0.000000e+00 1.000000e+00
      outer loop
         vertex 1.955499e+01 1.210794e+01 3.000000e+00
         vertex 3.012716e+00 6.868300e+00 3.000000e+00
         vertex 2.144686e+01 8.308558e+00 3.000000e+00
      endloop
   endfacet
   facet normal 0.000000e+00 -0.000000e+00 1.000000e+00
      outer loop
         vertex 3.012716e+00 6.868300e+00 3.000000e+00
         vertex 5.079612e+00 5.517930e+00 3.000000e+00
         vertex 2.144686e+01 8.308558e+00 3.000000e+00
      endloop
   endfacet
   facet normal -0.000000e+00 0.000000e+00 1.000000e+00
      outer loop
         vertex 2.144686e+01 8.308558e+00 3.000000e+00
         vertex 5.079612e+00 5.517930e+00 3.000000e+00
         vertex 2.260838e+01 4.226239e+00 3.000000e+00
      endloop
   endfacet
   facet normal 0.000000e+00 -0.000000e+00 1.000000e+00
      outer loop
         vertex 5.079612e+00 5.517930e+00 3.000000e+00
         vertex 6.596053e+00 3.569605e+00 3.000000e+00
         vertex 2.260838e+01 4.226239e+00 3.000000e+00
      endloop
   endfacet
   facet normal -0.000000e+00 0.000000e+00 1.000000e+00
      outer loop
         vertex 2.260838e+01 4.226239e+00 3.000000e+00
         vertex 6.596053e+00 3.569605e+00 3.000000e+00
         vertex 2.300000e+01 -2.606148e-14 3.000000e+00
      endloop
   endfacet
   facet normal -0.000000e+00 -0.000000e+00 1.000000e+00
      outer loop
         vertex 6.596053e+00 3.569605e+00 3.000000e+00
         vertex 9.730845e+00 1.526452e+00 3.000000e+00
         vertex 2.300000e+01 -2.606148e-14 3.000000e+00
      endloop
   endfacet
   facet normal 0.000000e+00 0.000000e+00 1.000000e+00
      outer loop
         vertex 2.300000e+01 -2.606148e-14 3.000000e+00
         vertex 1.077500e+01 1.342339e+00 3.000000e+00
         vertex 2.260838e+01 -4.226239e+00 3.000000e+00
      endloop
   endfacet
   facet normal -0.000000e+00 -0.000000e+00 1.000000e+00
      outer loop
         vertex 1.077500e+01 1.342339e+00 3.000000e+00
         vertex 1.145652e+01 5.301312e-01 3.000000e+00
         vertex 2.260838e+01 -4.226239e+00 3.000000e+00
      endloop
   endfacet
   facet normal 0.000000e+00 0.000000e+00 1.000000e+00
      outer loop
         vertex 2.260838e+01 -4.226239e+00 3.000000e+00
         vertex 1.145652e+01 5.301312e-01 3.000000e+00
         vertex 2.144686e+01 -8.308558e+00 3.000000e+00
      endloop
   endfacet
   facet normal -0.000000e+00 0.000000e+00 1.000000e+00
      outer loop
         vertex 1.145652e+01 5.301312e-01 3.000000e+00
         vertex 1.145652e+01 -5.301312e-01 3.000000e+00
         vertex 2.144686e+01 -8.308558e+00 3.000000e+00
      endloop
   endfacet
   facet normal 0.000000e+00 0.000000e+00 1.000000e+00
      outer loop
         vertex 2.144686e+01 -8.308558e+00 3.000000e+00
         vertex 1.145652e+01 -5.301312e-01 3.000000e+00
         vertex 1.955499e+01 -1.210794e+01 3.000000e+00
      endloop
   endfacet
   facet normal -0.000000e+00 0.000000e+00 1.000000e+00
      outer loop
         vertex 1.145652e+01 -5.301312e-01 3.000000e+00
         vertex 1.077500e+01 -1.342339e+00 3.000000e+00
         vertex 1.955499e+01 -1.210794e+01 3.000000e+00
      endloop
   endfacet
   facet normal 0.000000e+00 0.000000e+00 1.000000e+00
      outer loop
         vertex 1.955499e+01 -1.210794e+01 3.000000e+00
         vertex 1.077500e+01 -1.342339e+00 3.000000e+00
         vertex 1.699721e+01 -1.549500e+01 3.000000e+00
      endloop
   endfacet
   facet normal -0.000000e+00 0.000000e+00 1.000000e+00
      outer loop
         vertex 1.077500e+01 -1.342339e+00 3.000000e+00
         vertex 9.730845e+00 -1.526452e+00 3.000000e+00
         vertex 1.699721e+01 -1.549500e+01 3.000000e+00
      endloop
   endfacet
   facet normal 0.000000e+00 0.000000e+00 1.000000e+00
      outer loop
         vertex 1.699721e+01 -1.549500e+01 3.000000e+00
         vertex 9.730845e+00 -1.526452e+00 3.000000e+00
         vertex 1.386060e+01 -1.835440e+01 3.000000e+00
      endloop
   endfacet
   facet normal 0.000000e+00 0.000000e+00 1.000000e+00
      outer loop
         vertex 9.730845e+00 -1.526452e+00 3.000000e+00
         vertex 8.812631e+00 -9.963208e-01 3.000000e+00
         vertex 1.386060e+01 -1.835440e+01 3.000000e+00
      endloop
   endfacet
   facet normal 0.000000e+00 0.000000e+00 1.000000e+00
      outer loop
         vertex 1.386060e+01 -1.835440e+01 3.000000e+00
         vertex 8.812631e+00 -9.963208e-01 3.000000e+00
         vertex 1.025198e+01 -2.058876e+01 3.000000e+00
      endloop
   endfacet
   facet normal 0.000000e+00 0.000000e+00 1.000000e+00
      outer loop
         vertex 8.812631e+00 -9.963208e-01 3.000000e+00
         vertex 8.450000e+00 -2.259473e-15 3.000000e+00
         vertex 1.025198e+01 -2.058876e+01 3.000000e+00
      endloop
   endfacet
   facet normal 0.000000e+00 0.000000e+00 1.000000e+00
      outer loop
         vertex 1.025198e+01 -2.058876e+01 3.000000e+00
         vertex 8.450000e+00 -2.259473e-15 3.000000e+00
         vertex 6.294249e+00 -2.212199e+01 3.000000e+00
      endloop
   endfacet
   facet normal 0.000000e+00 0.000000e+00 1.000000e+00
      outer loop
         vertex 9.730845e+00 1.526452e+00 3.000000e+00
         vertex 6.596053e+00 3.569605e+00 3.000000e+00
         vertex 8.812631e+00 9.963208e-01 3.000000e+00
      endloop
   endfacet
   facet normal 0.000000e+00 0.000000e+00 1.000000e+00
      outer loop
         vertex 8.812631e+00 9.963208e-01 3.000000e+00
         vertex 6.596053e+00 3.569605e+00 3.000000e+00
         vertex 8.450000e+00 -2.259473e-15 3.000000e+00
      endloop
   endfacet
   facet normal -0.000000e+00 -0.000000e+00 1.000000e+00
      outer loop
         vertex 6.596053e+00 3.569605e+00 3.000000e+00
         vertex 7.397710e+00 1.234459e+00 3.000000e+00
         vertex 8.450000e+00 -2.259473e-15 3.000000e+00
      endloop
   endfacet
   facet normal -0.000000e+00 0.000000e+00 1.000000e+00
      outer loop
         vertex 8.450000e+00 -2.259473e-15 3.000000e+00
         vertex 7.397710e+00 -1.234459e+00 3.000000e+00
         vertex 6.294249e+00 -2.212199e+01 3.000000e+00
      endloop
   endfacet
   facet normal -0.000000e+00 0.000000e+00 1.000000e+00
      outer loop
         vertex 7.397710e+00 -1.234459e+00 3.000000e+00
         vertex 6.596053e+00 -3.569605e+00 3.000000e+00
         vertex 6.294249e+00 -2.212199e+01 3.000000e+00
      endloop
   endfacet
   facet normal 0.000000e+00 0.000000e+00 1.000000e+00
      outer loop
         vertex 6.294249e+00 -2.212199e+01 3.000000e+00
         vertex 6.596053e+00 -3.569605e+00 3.000000e+00
         vertex 2.122172e+00 -2.290189e+01 3.000000e+00
      endloop
   endfacet
   facet normal -0.000000e+00 0.000000e+00 1.000000e+00
      outer loop
         vertex 6.596053e+00 -3.569605e+00 3.000000e+00
         vertex 5.079612e+00 -5.517930e+00 3.000000e+00
         vertex 2.122172e+00 -2.290189e+01 3.000000e+00
      endloop
   endfacet
   facet normal 0.000000e+00 0.000000e+00 1.000000e+00
      outer loop
         vertex 2.122172e+00 -2.290189e+01 3.000000e+00
         vertex 5.079612e+00 -5.517930e+00 3.000000e+00
         vertex -2.122172e+00 -2.290189e+01 3.000000e+00
      endloop
   endfacet
   facet normal -0.000000e+00 0.000000e+00 1.000000e+00
      outer loop
         vertex 5.079612e+00 -5.517930e+00 3.000000e+00
         vertex 3.012716e+00 -6.868300e+00 3.000000e+00
         vertex -2.122172e+00 -2.290189e+01 3.000000e+00
      endloop
   endfacet
   facet normal 0.000000e+00 0.000000e+00 1.000000e+00
      outer loop
         vertex -2.122172e+00 -2.290189e+01 3.000000e+00
         vertex 3.012716e+00 -6.868300e+00 3.000000e+00
         vertex -6.294249e+00 -2.212199e+01 3.000000e+00
      endloop
   endfacet
   facet normal -0.000000e+00 0.000000e+00 1.000000e+00
      outer loop
         vertex 3.012716e+00 -6.868300e+00 3.000000e+00
         vertex 6.193451e-01 -7.474384e+00 3.000000e+00
         vertex -6.294249e+00 -2.212199e+01 3.000000e+00
      endloop
   endfacet
   facet normal 0.000000e+00 0.000000e+00 1.000000e+00
      outer loop
         vertex -6.294249e+00 -2.212199e+01 3.000000e+00
         vertex 6.193451e-01 -7.474384e+00 3.000000e+00
         vertex -1.025198e+01 -2.058876e+01 3.000000e+00
      endloop
   endfacet
   facet normal 0.000000e+00 0.000000e+00 1.000000e+00
      outer loop
         vertex 6.193451e-01 -7.474384e+00 3.000000e+00
         vertex -1.841141e+00 -7.270502e+00 3.000000e+00
         vertex -1.025198e+01 -2.058876e+01 3.000000e+00
      endloop
   endfacet
   facet normal 0.000000e+00 0.000000e+00 1.000000e+00
      outer loop
         vertex -1.025198e+01 -2.058876e+01 3.000000e+00
         vertex -1.841141e+00 -7.270502e+00 3.000000e+00
         vertex -1.386060e+01 -1.835440e+01 3.000000e+00
      endloop
   endfacet
   facet normal 0.000000e+00 0.000000e+00 1.000000e+00
      outer loop
         vertex -1.841141e+00 -7.270502e+00 3.000000e+00
         vertex -4.102111e+00 -6.278749e+00 3.000000e+00
         vertex -1.386060e+01 -1.835440e+01 3.000000e+00
      endloop
   endfacet
   facet normal 0.000000e+00 -0.000000e+00 1.000000e+00
      outer loop
         vertex -1.386060e+01 -1.835440e+01 3.000000e+00
         vertex -1.155000e+01 1.414467e-15 3.000000e+00
         vertex -1.025198e+01 2.058876e+01 3.000000e+00
      endloop
   endfacet
   facet normal 0.000000e+00 0.000000e+00 1.000000e+00
      outer loop
         vertex 1.077500e+01 1.342339e+00 3.000000e+00
         vertex 2.300000e+01 -2.606148e-14 3.000000e+00
         vertex 9.730845e+00 1.526452e+00 3.000000e+00
      endloop
   endfacet
   facet normal 0.000000e+00 0.000000e+00 1.000000e+00
      outer loop
         vertex 7.397710e+00 -1.234459e+00 3.000000e+00
         vertex 8.450000e+00 -2.259473e-15 3.000000e+00
         vertex 7.397710e+00 1.234459e+00 3.000000e+00
      endloop
   endfacet
   facet normal 0.000000e+00 0.000000e+00 1.000000e+00
      outer loop
         vertex -1.155000e+01 1.414467e-15 3.000000e+00
         vertex -1.386060e+01 -1.835440e+01 3.000000e+00
         vertex -1.118737e+01 -9.963208e-01 3.000000e+00
      endloop
   endfacet
   facet normal 0.000000e+00 0.000000e+00 1.000000e+00
      outer loop
         vertex -1.386060e+01 -1.835440e+01 3.000000e+00
         vertex -4.102111e+00 -6.278749e+00 3.000000e+00
         vertex -1.118737e+01 -9.963208e-01 3.000000e+00
      endloop
   endfacet
   facet normal 0.000000e+00 0.000000e+00 1.000000e+00
      outer loop
         vertex -1.118737e+01 -9.963208e-01 3.000000e+00
         vertex -4.102111e+00 -6.278749e+00 3.000000e+00
         vertex -1.026915e+01 -1.526452e+00 3.000000e+00
      endloop
   endfacet
   facet normal 0.000000e+00 0.000000e+00 1.000000e+00
      outer loop
         vertex -4.102111e+00 -6.278749e+00 3.000000e+00
         vertex -5.918554e+00 -4.606596e+00 3.000000e+00
         vertex -1.026915e+01 -1.526452e+00 3.000000e+00
      endloop
   endfacet
   facet normal 0.000000e+00 0.000000e+00 1.000000e+00
      outer loop
         vertex -1.026915e+01 -1.526452e+00 3.000000e+00
         vertex -5.918554e+00 -4.606596e+00 3.000000e+00
         vertex -9.225000e+00 -1.342339e+00 3.000000e+00
      endloop
   endfacet
   facet normal 0.000000e+00 0.000000e+00 1.000000e+00
      outer loop
         vertex -5.918554e+00 -4.606596e+00 3.000000e+00
         vertex -7.093629e+00 -2.435246e+00 3.000000e+00
         vertex -9.225000e+00 -1.342339e+00 3.000000e+00
      endloop
   endfacet
   facet normal 0.000000e+00 0.000000e+00 1.000000e+00
      outer loop
         vertex -9.225000e+00 -1.342339e+00 3.000000e+00
         vertex -7.093629e+00 -2.435246e+00 3.000000e+00
         vertex -8.543476e+00 -5.301312e-01 3.000000e+00
      endloop
   endfacet
   facet normal 0.000000e+00 0.000000e+00 1.000000e+00
      outer loop
         vertex -7.093629e+00 -2.435246e+00 3.000000e+00
         vertex -7.500000e+00 9.184850e-16 3.000000e+00
         vertex -8.543476e+00 -5.301312e-01 3.000000e+00
      endloop
   endfacet
   facet normal 0.000000e+00 0.000000e+00 1.000000e+00
      outer loop
         vertex -8.543476e+00 -5.301312e-01 3.000000e+00
         vertex -7.500000e+00 9.184850e-16 3.000000e+00
         vertex -8.543476e+00 5.301312e-01 3.000000e+00
      endloop
   endfacet
   facet normal 0.000000e+00 0.000000e+00 1.000000e+00
      outer loop
         vertex -7.500000e+00 9.184850e-16 3.000000e+00
         vertex -7.093629e+00 2.435246e+00 3.000000e+00
         vertex -8.543476e+00 5.301312e-01 3.000000e+00
      endloop
   endfacet
   facet normal 0.000000e+00 0.000000e+00 1.000000e+00
      outer loop
         vertex -8.543476e+00 5.301312e-01 3.000000e+00
         vertex -7.093629e+00 2.435246e+00 3.000000e+00
         vertex -9.225000e+00 1.342339e+00 3.000000e+00
      endloop
   endfacet
   facet normal 0.000000e+00 0.000000e+00 1.000000e+00
      outer loop
         vertex -7.093629e+00 2.435246e+00 3.000000e+00
         vertex -5.918554e+00 4.606596e+00 3.000000e+00
         vertex -9.225000e+00 1.342339e+00 3.000000e+00
      endloop
   endfacet
   facet normal -9.957342e-01 -9.226837e-02 0.000000e+00
      outer loop
         vertex -2.300000e+01 2.816688e-15 0.000000e+00
         vertex -2.260838e+01 -4.226239e+00 0.000000e+00
         vertex -2.260838e+01 -4.226239e+00 3.000000e+00
      endloop
   endfacet
   facet normal -9.957342e-01 -9.226837e-02 0.000000e+00
      outer loop
         vertex -2.300000e+01 2.816688e-15 0.000000e+00
         vertex -2.260838e+01 -4.226239e+00 3.000000e+00
         vertex -2.300000e+01 2.816688e-15 3.000000e+00
      endloop
   endfacet
   facet normal -9.618256e-01 -2.736630e-01 0.000000e+00
      outer loop
         vertex -2.260838e+01 -4.226239e+00 0.000000e+00
         vertex -2.144686e+01 -8.308558e+00 0.000000e+00
         vertex -2.144686e+01 -8.308558e+00 3.000000e+00
      endloop
   endfacet
   facet normal -9.618256e-01 -2.736630e-01 0.000000e+00
      outer loop
         vertex -2.260838e+01 -4.226239e+00 0.000000e+00
         vertex -2.144686e+01 -8.308558e+00 3.000000e+00
         vertex -2.260838e+01 -4.226239e+00 3.000000e+00
      endloop
   endfacet
   facet normal -8.951633e-01 -4.457383e-01 0.000000e+00
      outer loop
         vertex -2.144686e+01 -8.308558e+00 0.000000e+00
         vertex -1.955499e+01 -1.210794e+01 0.000000e+00
         vertex -1.955499e+01 -1.210794e+01 3.000000e+00
      endloop
   endfacet
   facet normal -8.951633e-01 -4.457383e-01 0.000000e+00
      outer loop
         vertex -2.144686e+01 -8.308558e+00 0.000000e+00
         vertex -1.955499e+01 -1.210794e+01 3.000000e+00
         vertex -2.144686e+01 -8.308558e+00 3.000000e+00
      endloop
   endfacet
   facet normal -7.980173e-01 -6.026346e-01 0.000000e+00
      outer loop
         vertex -1.955499e+01 -1.210794e+01 0.000000e+00
         vertex -1.699721e+01 -1.549500e+01 0.000000e+00
         vertex -1.699721e+01 -1.549500e+01 3.000000e+00
      endloop
   endfacet
   facet normal -7.980173e-01 -6.026346e-01 0.000000e+00
      outer loop
         vertex -1.955499e+01 -1.210794e+01 0.000000e+00
         vertex -1.699721e+01 -1.549500e+01 3.000000e+00
         vertex -1.955499e+01 -1.210794e+01 3.000000e+00
      endloop
   endfacet
   facet normal -6.736956e-01 -7.390089e-01 0.000000e+00
      outer loop
         vertex -1.699721e+01 -1.549500e+01 0.000000e+00
         vertex -1.386060e+01 -1.835440e+01 0.000000e+00
         vertex -1.386060e+01 -1.835440e+01 3.000000e+00
      endloop
   endfacet
   facet normal -6.736956e-01 -7.390089e-01 0.000000e+00
      outer loop
         vertex -1.699721e+01 -1.549500e+01 0.000000e+00
         vertex -1.386060e+01 -1.835440e+01 3.000000e+00
         vertex -1.699721e+01 -1.549500e+01 3.000000e+00
      endloop
   endfacet
   facet normal -5.264322e-01 -8.502171e-01 0.000000e+00
      outer loop
         vertex -1.386060e+01 -1.835440e+01 0.000000e+00
         vertex -1.025198e+01 -2.058876e+01 0.000000e+00
         vertex -1.025198e+01 -2.058876e+01 3.000000e+00
      endloop
   endfacet
   facet normal -5.264322e-01 -8.502171e-01 0.000000e+00
      outer loop
         vertex -1.386060e+01 -1.835440e+01 0.000000e+00
         vertex -1.025198e+01 -2.058876e+01 3.000000e+00
         vertex -1.386060e+01 -1.835440e+01 3.000000e+00
      endloop
   endfacet
   facet normal -3.612416e-01 -9.324723e-01 0.000000e+00
      outer loop
         vertex -1.025198e+01 -2.058876e+01 0.000000e+00
         vertex -6.294249e+00 -2.212199e+01 0.000000e+00
         vertex -6.294249e+00 -2.212199e+01 3.000000e+00
      endloop
   endfacet
   facet normal -3.612416e-01 -9.324723e-01 0.000000e+00
      outer loop
         vertex -1.025198e+01 -2.058876e+01 0.000000e+00
         vertex -6.294249e+00 -2.212199e+01 3.000000e+00
         vertex -1.025198e+01 -2.058876e+01 3.000000e+00
      endloop
   endfacet
   facet normal -1.837494e-01 -9.829731e-01 0.000000e+00
      outer loop
         vertex -6.294249e+00 -2.212199e+01 0.000000e+00
         vertex -2.122172e+00 -2.290189e+01 0.000000e+00
         vertex -2.122172e+00 -2.290189e+01 3.000000e+00
      endloop
   endfacet
   facet normal -1.837494e-01 -9.829731e-01 0.000000e+00
      outer loop
         vertex -6.294249e+00 -2.212199e+01 0.000000e+00
         vertex -2.122172e+00 -2.290189e+01 3.000000e+00
         vertex -6.294249e+00 -2.212199e+01 3.000000e+00
      endloop
   endfacet
   facet normal 0.000000e+00 -1.000000e+00 0.000000e+00
      outer loop
         vertex -2.122172e+00 -2.290189e+01 0.000000e+00
         vertex 2.122172e+00 -2.290189e+01 0.000000e+00
         vertex 2.122172e+00 -2.290189e+01 3.000000e+00
      endloop
   endfacet
   facet normal -0.000000e+00 -1.000000e+00 0.000000e+00
      outer loop
         vertex -2.122172e+00 -2.290189e+01 0.000000e+00
         vertex 2.122172e+00 -2.290189e+01 3.000000e+00
         vertex -2.122172e+00 -2.290189e+01 3.000000e+00
      endloop
   endfacet
   facet normal 1.837494e-01 -9.829731e-01 0.000000e+00
      outer loop
         vertex 2.122172e+00 -2.290189e+01 0.000000e+00
         vertex 6.294249e+00 -2.212199e+01 0.000000e+00
         vertex 6.294249e+00 -2.212199e+01 3.000000e+00
      endloop
   endfacet
   facet normal 1.837494e-01 -9.829731e-01 0.000000e+00
      outer loop
         vertex 2.122172e+00 -2.290189e+01 0.000000e+00
         vertex 6.294249e+00 -2.212199e+01 3.000000e+00
         vertex 2.122172e+00 -2.290189e+01 3.000000e+00
      endloop
   endfacet
   facet normal 3.612416e-01 -9.324723e-01 0.000000e+00
      outer loop
         vertex 6.294249e+00 -2.212199e+01 0.000000e+00
         vertex 1.025198e+01 -2.058876e+01 0.000000e+00
         vertex 1.025198e+01 -2.058876e+01 3.000000e+00
      endloop
   endfacet
   facet normal 3.612416e-01 -9.324723e-01 0.000000e+00
      outer loop
         vertex 6.294249e+00 -2.212199e+01 0.000000e+00
         vertex 1.025198e+01 -2.058876e+01 3.000000e+00
         vertex 6.294249e+00 -2.212199e+01 3.000000e+00
      endloop
   endfacet
   facet normal 5.264322e-01 -8.502171e-01 0.000000e+00
      outer loop
         vertex 1.025198e+01 -2.058876e+01 0.000000e+00
         vertex 1.386060e+01 -1.835440e+01 0.000000e+00
         vertex 1.386060e+01 -1.835440e+01 3.000000e+00
      endloop
   endfacet
   facet normal 5.264322e-01 -8.502171e-01 0.000000e+00
      outer loop
         vertex 1.025198e+01 -2.058876e+01 0.000000e+00
         vertex 1.386060e+01 -1.835440e+01 3.000000e+00
         vertex 1.025198e+01 -2.058876e+01 3.000000e+00
      endloop
   endfacet
   facet normal 6.736956e-01 -7.390089e-01 0.000000e+00
      outer loop
         vertex 1.386060e+01 -1.835440e+01 0.000000e+00
         vertex 1.699721e+01 -1.549500e+01 0.000000e+00
         vertex 1.699721e+01 -1.549500e+01 3.000000e+00
      endloop
   endfacet
   facet normal 6.736956e-01 -7.390089e-01 0.000000e+00
      outer loop
         vertex 1.386060e+01 -1.835440e+01 0.000000e+00
         vertex 1.699721e+01 -1.549500e+01 3.000000e+00
         vertex 1.386060e+01 -1.835440e+01 3.000000e+00
      endloop
   endfacet
   facet normal 7.980173e-01 -6.026346e-01 0.000000e+00
      outer loop
         vertex 1.699721e+01 -1.549500e+01 0.000000e+00
         vertex 1.955499e+01 -1.210794e+01 0.000000e+00
         vertex 1.955499e+01 -1.210794e+01 3.000000e+00
      endloop
   endfacet
   facet normal 7.980173e-01 -6.026346e-01 0.000000e+00
      outer loop
         vertex 1.699721e+01 -1.549500e+01 0.000000e+00
         vertex 1.955499e+01 -1.210794e+01 3.000000e+00
         vertex 1.699721e+01 -1.549500e+01 3.000000e+00
      endloop
   endfacet
   facet normal 8.951633e-01 -4.457383e-01 0.000000e+00
      outer loop
         vertex 1.955499e+01 -1.210794e+01 0.000000e+00
         vertex 2.144686e+01 -8.308558e+00 0.000000e+00
         vertex 2.144686e+01 -8.308558e+00 3.000000e+00
      endloop
   endfacet
   facet normal 8.951633e-01 -4.457383e-01 0.000000e+00
      outer loop
         vertex 1.955499e+01 -1.210794e+01 0.000000e+00
         vertex 2.144686e+01 -8.308558e+00 3.000000e+00
         vertex 1.955499e+01 -1.210794e+01 3.000000e+00
      endloop
   endfacet
   facet normal 9.618256e-01 -2.736630e-01 0.000000e+00
      outer loop
         vertex 2.144686e+01 -8.308558e+00 0.000000e+00
         vertex 2.260838e+01 -4.226239e+00 0.000000e+00
         vertex 2.260838e+01 -4.226239e+00 3.000000e+00
      endloop
   endfacet
   facet normal 9.618256e-01 -2.736630e-01 0.000000e+00
      outer loop
         vertex 2.144686e+01 -8.308558e+00 0.000000e+00
         vertex 2.260838e+01 -4.226239e+00 3.000000e+00
         vertex 2.144686e+01 -8.308558e+00 3.000000e+00
      endloop
   endfacet
   facet normal 9.957342e-01 -9.226837e-02 0.000000e+00
      outer loop
         vertex 2.260838e+01 -4.226239e+00 0.000000e+00
         vertex 2.300000e+01 -2.606148e-14 0.000000e+00
         vertex 2.300000e+01 -2.606148e-14 3.000000e+00
      endloop
   endfacet
   facet normal 9.957342e-01 -9.226837e-02 0.000000e+00
      outer loop
         vertex 2.260838e+01 -4.226239e+00 0.000000e+00
         vertex 2.300000e+01 -2.606148e-14 3.000000e+00
         vertex 2.260838e+01 -4.226239e+00 3.000000e+00
      endloop
   endfacet
   facet normal 9.957342e-01 9.226837e-02 -0.000000e+00
      outer loop
         vertex 2.300000e+01 -2.606148e-14 0.000000e+00
         vertex 2.260838e+01 4.226239e+00 0.000000e+00
         vertex 2.260838e+01 4.226239e+00 3.000000e+00
      endloop
   endfacet
   facet normal 9.957342e-01 9.226837e-02 0.000000e+00
      outer loop
         vertex 2.300000e+01 -2.606148e-14 0.000000e+00
         vertex 2.260838e+01 4.226239e+00 3.000000e+00
         vertex 2.300000e+01 -2.606148e-14 3.000000e+00
      endloop
   endfacet
   facet normal 9.618256e-01 2.736630e-01 -0.000000e+00
      outer loop
         vertex 2.260838e+01 4.226239e+00 0.000000e+00
         vertex 2.144686e+01 8.308558e+00 0.000000e+00
         vertex 2.144686e+01 8.308558e+00 3.000000e+00
      endloop
   endfacet
   facet normal 9.618256e-01 2.736630e-01 0.000000e+00
      outer loop
         vertex 2.260838e+01 4.226239e+00 0.000000e+00
         vertex 2.144686e+01 8.308558e+00 3.000000e+00
         vertex 2.260838e+01 4.226239e+00 3.000000e+00
      endloop
   endfacet
   facet normal 8.951633e-01 4.457383e-01 -0.000000e+00
      outer loop
         vertex 2.144686e+01 8.308558e+00 0.000000e+00
         vertex 1.955499e+01 1.210794e+01 0.000000e+00
         vertex 1.955499e+01 1.210794e+01 3.000000e+00
      endloop
   endfacet
   facet normal 8.951633e-01 4.457383e-01 0.000000e+00
      outer loop
         vertex 2.144686e+01 8.308558e+00 0.000000e+00
         vertex 1.955499e+01 1.210794e+01 3.000000e+00
         vertex 2.144686e+01 8.308558e+00 3.000000e+00
      endloop
   endfacet
   facet normal 7.980173e-01 6.026346e-01 -0.000000e+00
      outer loop
         vertex 1.955499e+01 1.210794e+01 0.000000e+00
         vertex 1.699721e+01 1.549500e+01 0.000000e+00
         vertex 1.699721e+01 1.549500e+01 3.000000e+00
      endloop
   endfacet
   facet normal 7.980173e-01 6.026346e-01 0.000000e+00
      outer loop
         vertex 1.955499e+01 1.210794e+01 0.000000e+00
         vertex 1.699721e+01 1.549500e+01 3.000000e+00
         vertex 1.955499e+01 1.210794e+01 3.000000e+00
      endloop
   endfacet
   facet normal 6.736956e-01 7.390089e-01 -0.000000e+00
      outer loop
         vertex 1.699721e+01 1.549500e+01 0.000000e+00
         vertex 1.386060e+01 1.835440e+01 0.000000e+00
         vertex 1.386060e+01 1.835440e+01 3.000000e+00
      endloop
   endfacet
   facet normal 6.736956e-01 7.390089e-01 0.000000e+00
      outer loop
         vertex 1.699721e+01 1.549500e+01 0.000000e+00
         vertex 1.386060e+01 1.835440e+01 3.000000e+00
         vertex 1.699721e+01 1.549500e+01 3.000000e+00
      endloop
   endfacet
   facet normal 5.264322e-01 8.502171e-01 -0.000000e+00
      outer loop
         vertex 1.386060e+01 1.835440e+01 0.000000e+00
         vertex 1.025198e+01 2.058876e+01 0.000000e+00
         vertex 1.025198e+01 2.058876e+01 3.000000e+00
      endloop
   endfacet
   facet normal 5.264322e-01 8.502171e-01 0.000000e+00
      outer loop
         vertex 1.386060e+01 1.835440e+01 0.000000e+00
         vertex 1.025198e+01 2.058876e+01 3.000000e+00
         vertex 1.386060e+01 1.835440e+01 3.000000e+00
      endloop
   endfacet
   facet normal 3.612416e-01 9.324723e-01 -0.000000e+00
      outer loop
         vertex 1.025198e+01 2.058876e+01 0.000000e+00
         vertex 6.294249e+00 2.212199e+01 0.000000e+00
         vertex 6.294249e+00 2.212199e+01 3.000000e+00
      endloop
   endfacet
   facet normal 3.612416e-01 9.324723e-01 0.000000e+00
      outer loop
         vertex 1.025198e+01 2.058876e+01 0.000000e+00
         vertex 6.294249e+00 2.212199e+01 3.000000e+00
         vertex 1.025198e+01 2.058876e+01 3.000000e+00
      endloop
   endfacet
   facet normal 1.837494e-01 9.829731e-01 -0.000000e+00
      outer loop
         vertex 6.294249e+00 2.212199e+01 0.000000e+00
         vertex 2.122172e+00 2.290189e+01 0.000000e+00
         vertex 2.122172e+00 2.290189e+01 3.000000e+00
      endloop
   endfacet
   facet normal 1.837494e-01 9.829731e-01 0.000000e+00
      outer loop
         vertex 6.294249e+00 2.212199e+01 0.000000e+00
         vertex 2.122172e+00 2.290189e+01 3.000000e+00
         vertex 6.294249e+00 2.212199e+01 3.000000e+00
      endloop
   endfacet
   facet normal 0.000000e+00 1.000000e+00 0.000000e+00
      outer loop
         vertex 2.122172e+00 2.290189e+01 0.000000e+00
         vertex -2.122172e+00 2.290189e+01 0.000000e+00
         vertex -2.122172e+00 2.290189e+01 3.000000e+00
      endloop
   endfacet
   facet normal -0.000000e+00 1.000000e+00 0.000000e+00
      outer loop
         vertex 2.122172e+00 2.290189e+01 0.000000e+00
         vertex -2.122172e+00 2.290189e+01 3.000000e+00
         vertex 2.122172e+00 2.290189e+01 3.000000e+00
      endloop
   endfacet
   facet normal -1.837494e-01 9.829731e-01 0.000000e+00
      outer loop
         vertex -2.122172e+00 2.290189e+01 0.000000e+00
         vertex -6.294249e+00 2.212199e+01 0.000000e+00
         vertex -6.294249e+00 2.212199e+01 3.000000e+00
      endloop
   endfacet
   facet normal -1.837494e-01 9.829731e-01 0.000000e+00
      outer loop
         vertex -2.122172e+00 2.290189e+01 0.000000e+00
         vertex -6.294249e+00 2.212199e+01 3.000000e+00
         vertex -2.122172e+00 2.290189e+01 3.000000e+00
      endloop
   endfacet
   facet normal -3.612416e-01 9.324723e-01 0.000000e+00
      outer loop
         vertex -6.294249e+00 2.212199e+01 0.000000e+00
         vertex -1.025198e+01 2.058876e+01 0.000000e+00
         vertex -1.025198e+01 2.058876e+01 3.000000e+00
      endloop
   endfacet
   facet normal -3.612416e-01 9.324723e-01 0.000000e+00
      outer loop
         vertex -6.294249e+00 2.212199e+01 0.000000e+00
         vertex -1.025198e+01 2.058876e+01 3.000000e+00
         vertex -6.294249e+00 2.212199e+01 3.000000e+00
      endloop
   endfacet
   facet normal -5.264322e-01 8.502171e-01 0.000000e+00
      outer loop
         vertex -1.025198e+01 2.058876e+01 0.000000e+00
         vertex -1.386060e+01 1.835440e+01 0.000000e+00
         vertex -1.386060e+01 1.835440e+01 3.000000e+00
      endloop
   endfacet
   facet normal -5.264322e-01 8.502171e-01 0.000000e+00
      outer loop
         vertex -1.025198e+01 2.058876e+01 0.000000e+00
         vertex -1.386060e+01 1.835440e+01 3.000000e+00
         vertex -1.025198e+01 2.058876e+01 3.000000e+00
      endloop
   endfacet
   facet normal -6.736956e-01 7.390089e-01 0.000000e+00
      outer loop
         vertex -1.386060e+01 1.835440e+01 0.000000e+00
         vertex -1.699721e+01 1.549500e+01 0.000000e+00
         vertex -1.699721e+01 1.549500e+01 3.000000e+00
      endloop
   endfacet
   facet normal -6.736956e-01 7.390089e-01 0.000000e+00
      outer loop
         vertex -1.386060e+01 1.835440e+01 0.000000e+00
         vertex -1.699721e+01 1.549500e+01 3.000000e+00
         vertex -1.386060e+01 1.835440e+01 3.000000e+00
      endloop
   endfacet
   facet normal -7.980173e-01 6.026346e-01 0.000000e+00
      outer loop
         vertex -1.699721e+01 1.549500e+01 0.000000e+00
         vertex -1.955499e+01 1.210794e+01 0.000000e+00
         vertex -1.955499e+01 1.210794e+01 3.000000e+00
      endloop
   endfacet
   facet normal -7.980173e-01 6.026346e-01 0.000000e+00
      outer loop
         vertex -1.699721e+01 1.549500e+01 0.000000e+00
         vertex -1.955499e+01 1.210794e+01 3.000000e+00
         vertex -1.699721e+01 1.549500e+01 3.000000e+00
      endloop
   endfacet
   facet normal -8.951633e-01 4.457383e-01 0.000000e+00
      outer loop
         vertex -1.955499e+01 1.210794e+01 0.000000e+00
         vertex -2.144686e+01 8.308558e+00 0.000000e+00
         vertex -2.144686e+01 8.308558e+00 3.000000e+00
      endloop
   endfacet
   facet normal -8.951633e-01 4.457383e-01 0.000000e+00
      outer loop
         vertex -1.955499e+01 1.210794e+01 0.000000e+00
         vertex -2.144686e+01 8.308558e+00 3.000000e+00
         vertex -1.955499e+01 1.210794e+01 3.000000e+00
      endloop
   endfacet
   facet normal -9.618256e-01 2.736630e-01 0.000000e+00
      outer loop
         vertex -2.144686e+01 8.308558e+00 0.000000e+00
         vertex -2.260838e+01 4.226239e+00 0.000000e+00
         vertex -2.260838e+01 4.226239e+00 3.000000e+00
      endloop
   endfacet
   facet normal -9.618256e-01 2.736630e-01 0.000000e+00
      outer loop
         vertex -2.144686e+01 8.308558e+00 0.000000e+00
         vertex -2.260838e+01 4.226239e+00 3.000000e+00
         vertex -2.144686e+01 8.308558e+00 3.000000e+00
      endloop
   endfacet
   facet normal -9.957342e-01 9.226837e-02 0.000000e+00
      outer loop
         vertex -2.260838e+01 4.226239e+00 0.000000e+00
         vertex -2.300000e+01 8.450063e-15 0.000000e+00
         vertex -2.300000e+01 8.450063e-15 3.000000e+00
      endloop
   endfacet
   facet normal -9.957342e-01 9.226837e-02 0.000000e+00
      outer loop
         vertex -2.260838e+01 4.226239e+00 0.000000e+00
         vertex -2.300000e+01 8.450063e-15 3.000000e+00
         vertex -2.260838e+01 4.226239e+00 3.000000e+00
      endloop
   endfacet
   facet normal 9.396927e-01 3.420199e-01 -0.000000e+00
      outer loop
         vertex -1.118737e+01 -9.963208e-01 3.000000e+00
         vertex -1.118737e+01 -9.963208e-01 8.881784e-16
         vertex -1.155000e+01 1.414467e-15 8.881784e-16
      endloop
   endfacet
   facet normal 9.396927e-01 3.420199e-01 0.000000e+00
      outer loop
         vertex -1.155000e+01 1.414467e-15 3.000000e+00
         vertex -1.118737e+01 -9.963208e-01 3.000000e+00
         vertex -1.155000e+01 1.414467e-15 8.881784e-16
      endloop
   endfacet
   facet normal 4.999998e-01 8.660255e-01 -0.000000e+00
      outer loop
         vertex -1.026915e+01 -1.526452e+00 3.000000e+00
         vertex -1.026915e+01 -1.526452e+00 8.881784e-16
         vertex -1.118737e+01 -9.963208e-01 8.881784e-16
      endloop
   endfacet
   facet normal 4.999998e-01 8.660255e-01 0.000000e+00
      outer loop
         vertex -1.118737e+01 -9.963208e-01 3.000000e+00
         vertex -1.026915e+01 -1.526452e+00 3.000000e+00
         vertex -1.118737e+01 -9.963208e-01 8.881784e-16
      endloop
   endfacet
   facet normal -1.736483e-01 9.848077e-01 0.000000e+00
      outer loop
         vertex -9.225000e+00 -1.342339e+00 3.000000e+00
         vertex -9.225000e+00 -1.342339e+00 8.881784e-16
         vertex -1.026915e+01 -1.526452e+00 8.881784e-16
      endloop
   endfacet
   facet normal -1.736483e-01 9.848077e-01 0.000000e+00
      outer loop
         vertex -1.026915e+01 -1.526452e+00 3.000000e+00
         vertex -9.225000e+00 -1.342339e+00 3.000000e+00
         vertex -1.026915e+01 -1.526452e+00 8.881784e-16
      endloop
   endfacet
   facet normal -7.660441e-01 6.427880e-01 0.000000e+00
      outer loop
         vertex -8.543476e+00 -5.301312e-01 3.000000e+00
         vertex -8.543476e+00 -5.301312e-01 8.881784e-16
         vertex -9.225000e+00 -1.342339e+00 8.881784e-16
      endloop
   endfacet
   facet normal -7.660441e-01 6.427880e-01 0.000000e+00
      outer loop
         vertex -9.225000e+00 -1.342339e+00 3.000000e+00
         vertex -8.543476e+00 -5.301312e-01 3.000000e+00
         vertex -9.225000e+00 -1.342339e+00 8.881784e-16
      endloop
   endfacet
   facet normal -1.000000e+00 0.000000e+00 0.000000e+00
      outer loop
         vertex -8.543476e+00 5.301312e-01 3.000000e+00
         vertex -8.543476e+00 5.301312e-01 8.881784e-16
         vertex -8.543476e+00 -5.301312e-01 8.881784e-16
      endloop
   endfacet
   facet normal -1.000000e+00 -0.000000e+00 0.000000e+00
      outer loop
         vertex -8.543476e+00 -5.301312e-01 3.000000e+00
         vertex -8.543476e+00 5.301312e-01 3.000000e+00
         vertex -8.543476e+00 -5.301312e-01 8.881784e-16
      endloop
   endfacet
   facet normal -7.660441e-01 -6.427880e-01 0.000000e+00
      outer loop
         vertex -9.225000e+00 1.342339e+00 3.000000e+00
         vertex -9.225000e+00 1.342339e+00 8.881784e-16
         vertex -8.543476e+00 5.301312e-01 8.881784e-16
      endloop
   endfacet
   facet normal -7.660441e-01 -6.427880e-01 0.000000e+00
      outer loop
         vertex -8.543476e+00 5.301312e-01 3.000000e+00
         vertex -9.225000e+00 1.342339e+00 3.000000e+00
         vertex -8.543476e+00 5.301312e-01 8.881784e-16
      endloop
   endfacet
   facet normal -1.736483e-01 -9.848077e-01 0.000000e+00
      outer loop
         vertex -1.026915e+01 1.526452e+00 3.000000e+00
         vertex -1.026915e+01 1.526452e+00 8.881784e-16
         vertex -9.225000e+00 1.342339e+00 8.881784e-16
      endloop
   endfacet
   facet normal -1.736483e-01 -9.848077e-01 0.000000e+00
      outer loop
         vertex -9.225000e+00 1.342339e+00 3.000000e+00
         vertex -1.026915e+01 1.526452e+00 3.000000e+00
         vertex -9.225000e+00 1.342339e+00 8.881784e-16
      endloop
   endfacet
   facet normal 4.999998e-01 -8.660255e-01 0.000000e+00
      outer loop
         vertex -1.118737e+01 9.963208e-01 3.000000e+00
         vertex -1.118737e+01 9.963208e-01 8.881784e-16
         vertex -1.026915e+01 1.526452e+00 8.881784e-16
      endloop
   endfacet
   facet normal 4.999998e-01 -8.660255e-01 0.000000e+00
      outer loop
         vertex -1.026915e+01 1.526452e+00 3.000000e+00
         vertex -1.118737e+01 9.963208e-01 3.000000e+00
         vertex -1.026915e+01 1.526452e+00 8.881784e-16
      endloop
   endfacet
   facet normal 9.396927e-01 -3.420199e-01 0.000000e+00
      outer loop
         vertex -1.155000e+01 1.794107e-15 3.000000e+00
         vertex -1.155000e+01 1.794107e-15 8.881784e-16
         vertex -1.118737e+01 9.963208e-01 8.881784e-16
      endloop
   endfacet
   facet normal 9.396927e-01 -3.420199e-01 0.000000e+00
      outer loop
         vertex -1.118737e+01 9.963208e-01 3.000000e+00
         vertex -1.155000e+01 1.794107e-15 3.000000e+00
         vertex -1.118737e+01 9.963208e-01 8.881784e-16
      endloop
   endfacet
   facet normal 9.396927e-01 3.420199e-01 -0.000000e+00
      outer loop
         vertex 8.812631e+00 -9.963208e-01 3.000000e+00
         vertex 8.812631e+00 -9.963208e-01 8.881784e-16
         vertex 8.450000e+00 -2.259473e-15 8.881784e-16
      endloop
   endfacet
   facet normal 9.396927e-01 3.420199e-01 0.000000e+00
      outer loop
         vertex 8.450000e+00 -2.259473e-15 3.000000e+00
         vertex 8.812631e+00 -9.963208e-01 3.000000e+00
         vertex 8.450000e+00 -2.259473e-15 8.881784e-16
      endloop
   endfacet
   facet normal 4.999998e-01 8.660255e-01 -0.000000e+00
      outer loop
         vertex 9.730845e+00 -1.526452e+00 3.000000e+00
         vertex 9.730845e+00 -1.526452e+00 8.881784e-16
         vertex 8.812631e+00 -9.963208e-01 8.881784e-16
      endloop
   endfacet
   facet normal 4.999998e-01 8.660255e-01 0.000000e+00
      outer loop
         vertex 8.812631e+00 -9.963208e-01 3.000000e+00
         vertex 9.730845e+00 -1.526452e+00 3.000000e+00
         vertex 8.812631e+00 -9.963208e-01 8.881784e-16
      endloop
   endfacet
   facet normal -1.736483e-01 9.848077e-01 0.000000e+00
      outer loop
         vertex 1.077500e+01 -1.342339e+00 3.000000e+00
         vertex 1.077500e+01 -1.342339e+00 8.881784e-16
         vertex 9.730845e+00 -1.526452e+00 8.881784e-16
      endloop
   endfacet
   facet normal -1.736483e-01 9.848077e-01 0.000000e+00
      outer loop
         vertex 9.730845e+00 -1.526452e+00 3.000000e+00
         vertex 1.077500e+01 -1.342339e+00 3.000000e+00
         vertex 9.730845e+00 -1.526452e+00 8.881784e-16
      endloop
   endfacet
   facet normal -7.660441e-01 6.427880e-01 0.000000e+00
      outer loop
         vertex 1.145652e+01 -5.301312e-01 3.000000e+00
         vertex 1.145652e+01 -5.301312e-01 8.881784e-16
         vertex 1.077500e+01 -1.342339e+00 8.881784e-16
      endloop
   endfacet
   facet normal -7.660441e-01 6.427880e-01 0.000000e+00
      outer loop
         vertex 1.077500e+01 -1.342339e+00 3.000000e+00
         vertex 1.145652e+01 -5.301312e-01 3.000000e+00
         vertex 1.077500e+01 -1.342339e+00 8.881784e-16
      endloop
   endfacet
   facet normal -1.000000e+00 0.000000e+00 0.000000e+00
      outer loop
         vertex 1.145652e+01 5.301312e-01 3.000000e+00
         vertex 1.145652e+01 5.301312e-01 8.881784e-16
         vertex 1.145652e+01 -5.301312e-01 8.881784e-16
      endloop
   endfacet
   facet normal -1.000000e+00 -0.000000e+00 0.000000e+00
      outer loop
         vertex 1.145652e+01 -5.301312e-01 3.000000e+00
         vertex 1.145652e+01 5.301312e-01 3.000000e+00
         vertex 1.145652e+01 -5.301312e-01 8.881784e-16
      endloop
   endfacet
   facet normal -7.660441e-01 -6.427880e-01 0.000000e+00
      outer loop
         vertex 1.077500e+01 1.342339e+00 3.000000e+00
         vertex 1.077500e+01 1.342339e+00 8.881784e-16
         vertex 1.145652e+01 5.301312e-01 8.881784e-16
      endloop
   endfacet
   facet normal -7.660441e-01 -6.427880e-01 0.000000e+00
      outer loop
         vertex 1.145652e+01 5.301312e-01 3.000000e+00
         vertex 1.077500e+01 1.342339e+00 3.000000e+00
         vertex 1.145652e+01 5.301312e-01 8.881784e-16
      endloop
   endfacet
   facet normal -1.736483e-01 -9.848077e-01 0.000000e+00
      outer loop
         vertex 9.730845e+00 1.526452e+00 3.000000e+00
         vertex 9.730845e+00 1.526452e+00 8.881784e-16
         vertex 1.077500e+01 1.342339e+00 8.881784e-16
      endloop
   endfacet
   facet normal -1.736483e-01 -9.848077e-01 0.000000e+00
      outer loop
         vertex 1.077500e+01 1.342339e+00 3.000000e+00
         vertex 9.730845e+00 1.526452e+00 3.000000e+00
         vertex 1.077500e+01 1.342339e+00 8.881784e-16
      endloop
   endfacet
   facet normal 4.999998e-01 -8.660255e-01 0.000000e+00
      outer loop
         vertex 8.812631e+00 9.963208e-01 3.000000e+00
         vertex 8.812631e+00 9.963208e-01 8.881784e-16
         vertex 9.730845e+00 1.526452e+00 8.881784e-16
      endloop
   endfacet
   facet normal 4.999998e-01 -8.660255e-01 0.000000e+00
      outer loop
         vertex 9.730845e+00 1.526452e+00 3.000000e+00
         vertex 8.812631e+00 9.963208e-01 3.000000e+00
         vertex 9.730845e+00 1.526452e+00 8.881784e-16
      endloop
   endfacet
   facet normal 9.396927e-01 -3.420199e-01 0.000000e+00
      outer loop
         vertex 8.450000e+00 -1.879833e-15 3.000000e+00
         vertex 8.450000e+00 -1.879833e-15 8.881784e-16
         vertex 8.812631e+00 9.963208e-01 8.881784e-16
      endloop
   endfacet
   facet normal 9.396927e-01 -3.420199e-01 0.000000e+00
      outer loop
         vertex 8.812631e+00 9.963208e-01 3.000000e+00
         vertex 8.450000e+00 -1.879833e-15 3.000000e+00
         vertex 8.812631e+00 9.963208e-01 8.881784e-16
      endloop
   endfacet
   facet normal 0.000000e+00 0.000000e+00 -1.000000e+00
      outer loop
         vertex -2.260838e+01 -4.226239e+00 0.000000e+00
         vertex -2.300000e+01 2.816688e-15 0.000000e+00
         vertex -2.144686e+01 -8.308558e+00 0.000000e+00
      endloop
   endfacet
   facet normal 0.000000e+00 -0.000000e+00 -1.000000e+00
      outer loop
         vertex -2.300000e+01 2.816688e-15 0.000000e+00
         vertex -2.260838e+01 4.226239e+00 0.000000e+00
         vertex -2.144686e+01 -8.308558e+00 0.000000e+00
      endloop
   endfacet
   facet normal 0.000000e+00 0.000000e+00 -1.000000e+00
      outer loop
         vertex -2.144686e+01 -8.308558e+00 0.000000e+00
         vertex -2.260838e+01 4.226239e+00 0.000000e+00
         vertex -1.955499e+01 -1.210794e+01 0.000000e+00
      endloop
   endfacet
   facet normal 0.000000e+00 -0.000000e+00 -1.000000e+00
      outer loop
         vertex -2.260838e+01 4.226239e+00 0.000000e+00
         vertex -2.144686e+01 8.308558e+00 0.000000e+00
         vertex -1.955499e+01 -1.210794e+01 0.000000e+00
      endloop
   endfacet
   facet normal 0.000000e+00 0.000000e+00 -1.000000e+00
      outer loop
         vertex -1.955499e+01 -1.210794e+01 0.000000e+00
         vertex -2.144686e+01 8.308558e+00 0.000000e+00
         vertex -1.699721e+01 -1.549500e+01 0.000000e+00
      endloop
   endfacet
   facet normal 0.000000e+00 -0.000000e+00 -1.000000e+00
      outer loop
         vertex -2.144686e+01 8.308558e+00 0.000000e+00
         vertex -1.955499e+01 1.210794e+01 0.000000e+00
         vertex -1.699721e+01 -1.549500e+01 0.000000e+00
      endloop
   endfacet
   facet normal 0.000000e+00 0.000000e+00 -1.000000e+00
      outer loop
         vertex -1.699721e+01 -1.549500e+01 0.000000e+00
         vertex -1.955499e+01 1.210794e+01 0.000000e+00
         vertex -1.386060e+01 -1.835440e+01 0.000000e+00
      endloop
   endfacet
   facet normal 0.000000e+00 -0.000000e+00 -1.000000e+00
      outer loop
         vertex -1.955499e+01 1.210794e+01 0.000000e+00
         vertex -1.699721e+01 1.549500e+01 0.000000e+00
         vertex -1.386060e+01 -1.835440e+01 0.000000e+00
      endloop
   endfacet
   facet normal 0.000000e+00 0.000000e+00 -1.000000e+00
      outer loop
         vertex -1.386060e+01 -1.835440e+01 0.000000e+00
         vertex -1.699721e+01 1.549500e+01 0.000000e+00
         vertex -1.025198e+01 -2.058876e+01 0.000000e+00
      endloop
   endfacet
   facet normal 0.000000e+00 -0.000000e+00 -1.000000e+00
      outer loop
         vertex -1.699721e+01 1.549500e+01 0.000000e+00
         vertex -1.386060e+01 1.835440e+01 0.000000e+00
         vertex -1.025198e+01 -2.058876e+01 0.000000e+00
      endloop
   endfacet
   facet normal 1.713053e-17 4.421900e-17 -1.000000e+00
      outer loop
         vertex -1.025198e+01 -2.058876e+01 0.000000e+00
         vertex -1.155000e+01 1.604287e-15 8.881784e-16
         vertex -6.294249e+00 -2.212199e+01 0.000000e+00
      endloop
   endfacet
   facet normal -6.735598e-15 -1.560097e-15 -1.000000e+00
      outer loop
         vertex -1.155000e+01 1.604287e-15 8.881784e-16
         vertex -1.118737e+01 -9.963208e-01 0.000000e+00
         vertex -6.294249e+00 -2.212199e+01 0.000000e+00
      endloop
   endfacet
   facet normal 0.000000e+00 0.000000e+00 -1.000000e+00
      outer loop
         vertex -6.294249e+00 -2.212199e+01 0.000000e+00
         vertex -1.118737e+01 -9.963208e-01 0.000000e+00
         vertex -2.122172e+00 -2.290189e+01 0.000000e+00
      endloop
   endfacet
   facet normal 6.354752e-16 2.629792e-16 -1.000000e+00
      outer loop
         vertex -1.118737e+01 -9.963208e-01 0.000000e+00
         vertex -1.026915e+01 -1.526452e+00 4.440892e-16
         vertex -2.122172e+00 -2.290189e+01 0.000000e+00
      endloop
   endfacet
   facet normal 0.000000e+00 2.077568e-17 -1.000000e+00
      outer loop
         vertex -2.122172e+00 -2.290189e+01 0.000000e+00
         vertex -1.026915e+01 -1.526452e+00 4.440892e-16
         vertex 2.122172e+00 -2.290189e+01 0.000000e+00
      endloop
   endfacet
   facet normal 3.825443e-16 2.425364e-16 -1.000000e+00
      outer loop
         vertex -1.026915e+01 -1.526452e+00 4.440892e-16
         vertex -9.225000e+00 -1.342339e+00 8.881784e-16
         vertex 2.122172e+00 -2.290189e+01 0.000000e+00
      endloop
   endfacet
   facet normal -7.011162e-18 3.750643e-17 -1.000000e+00
      outer loop
         vertex 2.122172e+00 -2.290189e+01 0.000000e+00
         vertex -9.225000e+00 -1.342339e+00 8.881784e-16
         vertex 6.294249e+00 -2.212199e+01 0.000000e+00
      endloop
   endfacet
   facet normal -3.717083e-16 -2.348671e-16 -1.000000e+00
      outer loop
         vertex -9.225000e+00 -1.342339e+00 8.881784e-16
         vertex -8.543476e+00 -5.301312e-01 4.440892e-16
         vertex 6.294249e+00 -2.212199e+01 0.000000e+00
      endloop
   endfacet
   facet normal -6.292644e-18 1.624319e-17 -1.000000e+00
      outer loop
         vertex 6.294249e+00 -2.212199e+01 0.000000e+00
         vertex -8.543476e+00 -5.301312e-01 4.440892e-16
         vertex 1.025198e+01 -2.058876e+01 0.000000e+00
      endloop
   endfacet
   facet normal -2.362747e-17 -0.000000e+00 -1.000000e+00
      outer loop
         vertex -8.543476e+00 -5.301312e-01 4.440892e-16
         vertex -8.543476e+00 5.301312e-01 4.440892e-16
         vertex 1.025198e+01 -2.058876e+01 0.000000e+00
      endloop
   endfacet
   facet normal -8.394305e-18 1.355727e-17 -1.000000e+00
      outer loop
         vertex 1.025198e+01 -2.058876e+01 0.000000e+00
         vertex -8.543476e+00 5.301312e-01 4.440892e-16
         vertex 1.386060e+01 -1.835440e+01 0.000000e+00
      endloop
   endfacet
   facet normal -6.771659e-17 -5.682103e-17 -1.000000e+00
      outer loop
         vertex -8.543476e+00 5.301312e-01 4.440892e-16
         vertex -9.225000e+00 1.342339e+00 4.440892e-16
         vertex 1.386060e+01 -1.835440e+01 0.000000e+00
      endloop
   endfacet
   facet normal -9.936685e-18 1.090002e-17 -1.000000e+00
      outer loop
         vertex 1.386060e+01 -1.835440e+01 0.000000e+00
         vertex -9.225000e+00 1.342339e+00 4.440892e-16
         vertex 1.699721e+01 -1.549500e+01 0.000000e+00
      endloop
   endfacet
   facet normal 1.456482e-15 1.349629e-16 -1.000000e+00
      outer loop
         vertex -1.025198e+01 -2.058876e+01 0.000000e+00
         vertex -1.386060e+01 1.835440e+01 0.000000e+00
         vertex -1.155000e+01 1.604287e-15 8.881784e-16
      endloop
   endfacet
   facet normal -8.111305e-16 -1.505020e-16 -1.000000e+00
      outer loop
         vertex -1.155000e+01 1.604287e-15 8.881784e-16
         vertex -1.386060e+01 1.835440e+01 0.000000e+00
         vertex -1.118737e+01 9.963208e-01 4.440892e-16
      endloop
   endfacet
   facet normal 1.446192e-17 -2.335681e-17 -1.000000e+00
      outer loop
         vertex -1.386060e+01 1.835440e+01 0.000000e+00
         vertex -1.025198e+01 2.058876e+01 0.000000e+00
         vertex -1.118737e+01 9.963208e-01 4.440892e-16
      endloop
   endfacet
   facet normal 1.345736e-17 -2.330885e-17 -1.000000e+00
      outer loop
         vertex -1.118737e+01 9.963208e-01 4.440892e-16
         vertex -1.025198e+01 2.058876e+01 0.000000e+00
         vertex -1.026915e+01 1.526452e+00 4.440892e-16
      endloop
   endfacet
   facet normal 9.028347e-18 -2.330486e-17 -1.000000e+00
      outer loop
         vertex -1.025198e+01 2.058876e+01 0.000000e+00
         vertex -6.294249e+00 2.212199e+01 0.000000e+00
         vertex -1.026915e+01 1.526452e+00 4.440892e-16
      endloop
   endfacet
   facet normal -3.676907e-18 -2.085276e-17 -1.000000e+00
      outer loop
         vertex -1.026915e+01 1.526452e+00 4.440892e-16
         vertex -6.294249e+00 2.212199e+01 0.000000e+00
         vertex -9.225000e+00 1.342339e+00 4.440892e-16
      endloop
   endfacet
   facet normal 4.103175e-18 -2.195006e-17 -1.000000e+00
      outer loop
         vertex -6.294249e+00 2.212199e+01 0.000000e+00
         vertex -2.122172e+00 2.290189e+01 0.000000e+00
         vertex -9.225000e+00 1.342339e+00 4.440892e-16
      endloop
   endfacet
   facet normal -2.656442e-17 -1.499574e-17 -1.000000e+00
      outer loop
         vertex -9.225000e+00 1.342339e+00 4.440892e-16
         vertex 8.812631e+00 -9.963208e-01 0.000000e+00
         vertex 1.699721e+01 -1.549500e+01 0.000000e+00
      endloop
   endfacet
   facet normal 7.174844e-16 4.050235e-16 -1.000000e+00
      outer loop
         vertex 8.812631e+00 -9.963208e-01 0.000000e+00
         vertex 9.730845e+00 -1.526452e+00 4.440892e-16
         vertex 1.699721e+01 -1.549500e+01 0.000000e+00
      endloop
   endfacet
   facet normal -2.492794e-17 1.882471e-17 -1.000000e+00
      outer loop
         vertex 1.699721e+01 -1.549500e+01 0.000000e+00
         vertex 9.730845e+00 -1.526452e+00 4.440892e-16
         vertex 1.955499e+01 -1.210794e+01 0.000000e+00
      endloop
   endfacet
   facet normal 3.591194e-16 3.753850e-16 -1.000000e+00
      outer loop
         vertex 9.730845e+00 -1.526452e+00 4.440892e-16
         vertex 1.077500e+01 -1.342339e+00 8.881784e-16
         vertex 1.955499e+01 -1.210794e+01 0.000000e+00
      endloop
   endfacet
   facet normal -6.281040e-17 3.127586e-17 -1.000000e+00
      outer loop
         vertex 1.955499e+01 -1.210794e+01 0.000000e+00
         vertex 1.077500e+01 -1.342339e+00 8.881784e-16
         vertex 2.144686e+01 -8.308558e+00 0.000000e+00
      endloop
   endfacet
   facet normal -2.843749e-16 -3.081486e-16 -1.000000e+00
      outer loop
         vertex 1.077500e+01 -1.342339e+00 8.881784e-16
         vertex 1.145652e+01 -5.301312e-01 4.440892e-16
         vertex 2.144686e+01 -8.308558e+00 0.000000e+00
      endloop
   endfacet
   facet normal -3.639034e-17 1.035394e-17 -1.000000e+00
      outer loop
         vertex 2.144686e+01 -8.308558e+00 0.000000e+00
         vertex 1.145652e+01 -5.301312e-01 4.440892e-16
         vertex 2.260838e+01 -4.226239e+00 0.000000e+00
      endloop
   endfacet
   facet normal -3.982200e-17 -0.000000e+00 -1.000000e+00
      outer loop
         vertex 1.145652e+01 -5.301312e-01 4.440892e-16
         vertex 1.145652e+01 5.301312e-01 4.440892e-16
         vertex 2.260838e+01 -4.226239e+00 0.000000e+00
      endloop
   endfacet
   facet normal -3.830799e-17 3.549758e-18 -1.000000e+00
      outer loop
         vertex 2.260838e+01 -4.226239e+00 0.000000e+00
         vertex 1.145652e+01 5.301312e-01 4.440892e-16
         vertex 2.300000e+01 -2.606148e-14 0.000000e+00
      endloop
   endfacet
   facet normal -4.001293e-17 -3.357487e-17 -1.000000e+00
      outer loop
         vertex 1.145652e+01 5.301312e-01 4.440892e-16
         vertex 1.077500e+01 1.342339e+00 4.440892e-16
         vertex 2.300000e+01 -2.606148e-14 0.000000e+00
      endloop
   endfacet
   facet normal -3.669972e-17 -3.400731e-18 -1.000000e+00
      outer loop
         vertex 2.300000e+01 -2.606148e-14 0.000000e+00
         vertex 1.077500e+01 1.342339e+00 4.440892e-16
         vertex 2.260838e+01 4.226239e+00 0.000000e+00
      endloop
   endfacet
   facet normal -1.575411e-17 -8.934596e-17 -1.000000e+00
      outer loop
         vertex 1.077500e+01 1.342339e+00 4.440892e-16
         vertex 9.730845e+00 1.526452e+00 4.440892e-16
         vertex 2.260838e+01 4.226239e+00 0.000000e+00
      endloop
   endfacet
   facet normal -3.254428e-17 -9.259645e-18 -1.000000e+00
      outer loop
         vertex 2.260838e+01 4.226239e+00 0.000000e+00
         vertex 9.730845e+00 1.526452e+00 4.440892e-16
         vertex 2.144686e+01 8.308558e+00 0.000000e+00
      endloop
   endfacet
   facet normal 1.435173e-14 -2.485793e-14 -1.000000e+00
      outer loop
         vertex 9.730845e+00 1.526452e+00 4.440892e-16
         vertex 8.812631e+00 9.963208e-01 4.440892e-16
         vertex 2.144686e+01 8.308558e+00 0.000000e+00
      endloop
   endfacet
   facet normal -2.728610e-17 -1.358686e-17 -1.000000e+00
      outer loop
         vertex 2.144686e+01 8.308558e+00 0.000000e+00
         vertex 8.812631e+00 9.963208e-01 4.440892e-16
         vertex 1.955499e+01 1.210794e+01 0.000000e+00
      endloop
   endfacet
   facet normal 9.546653e-17 9.262052e-16 -1.000000e+00
      outer loop
         vertex 8.812631e+00 -9.963208e-01 0.000000e+00
         vertex -9.225000e+00 1.342339e+00 4.440892e-16
         vertex 8.450000e+00 -2.069653e-15 8.881784e-16
      endloop
   endfacet
   facet normal -8.491203e-18 -4.426386e-16 -1.000000e+00
      outer loop
         vertex 8.450000e+00 -2.069653e-15 8.881784e-16
         vertex -9.225000e+00 1.342339e+00 4.440892e-16
         vertex 8.812631e+00 9.963208e-01 4.440892e-16
      endloop
   endfacet
   facet normal -3.926580e-19 -2.046890e-17 -1.000000e+00
      outer loop
         vertex -9.225000e+00 1.342339e+00 4.440892e-16
         vertex -2.122172e+00 2.290189e+01 0.000000e+00
         vertex 8.812631e+00 9.963208e-01 4.440892e-16
      endloop
   endfacet
   facet normal -1.343384e-17 -2.697879e-17 -1.000000e+00
      outer loop
         vertex 8.812631e+00 9.963208e-01 4.440892e-16
         vertex -2.122172e+00 2.290189e+01 0.000000e+00
         vertex 1.955499e+01 1.210794e+01 0.000000e+00
      endloop
   endfacet
   facet normal -0.000000e+00 -0.000000e+00 -1.000000e+00
      outer loop
         vertex -2.122172e+00 2.290189e+01 0.000000e+00
         vertex 2.122172e+00 2.290189e+01 0.000000e+00
         vertex 1.955499e+01 1.210794e+01 0.000000e+00
      endloop
   endfacet
   facet normal 0.000000e+00 0.000000e+00 -1.000000e+00
      outer loop
         vertex 1.955499e+01 1.210794e+01 0.000000e+00
         vertex 2.122172e+00 2.290189e+01 0.000000e+00
         vertex 1.699721e+01 1.549500e+01 0.000000e+00
      endloop
   endfacet
   facet normal -0.000000e+00 -0.000000e+00 -1.000000e+00
      outer loop
         vertex 2.122172e+00 2.290189e+01 0.000000e+00
         vertex 6.294249e+00 2.212199e+01 0.000000e+00
         vertex 1.699721e+01 1.549500e+01 0.000000e+00
      endloop
   endfacet
   facet normal 0.000000e+00 0.000000e+00 -1.000000e+00
      outer loop
         vertex 1.699721e+01 1.549500e+01 0.000000e+00
         vertex 6.294249e+00 2.212199e+01 0.000000e+00
         vertex 1.386060e+01 1.835440e+01 0.000000e+00
      endloop
   endfacet
   facet normal -0.000000e+00 -0.000000e+00 -1.000000e+00
      outer loop
         vertex 6.294249e+00 2.212199e+01 0.000000e+00
         vertex 1.025198e+01 2.058876e+01 0.000000e+00
         vertex 1.386060e+01 1.835440e+01 0.000000e+00
      endloop
   endfacet
endsolid
