solid 
   facet normal 0.000000e+00 0.000000e+00 -1.000000e+00
      outer loop
         vertex -2.459824e+01 -4.463923e+00 0.000000e+00
         vertex -2.500000e+01 3.061617e-15 0.000000e+00
         vertex -2.340587e+01 -8.784370e+00 0.000000e+00
      endloop
   endfacet
   facet normal 0.000000e+00 -0.000000e+00 -1.000000e+00
      outer loop
         vertex -2.500000e+01 3.061617e-15 0.000000e+00
         vertex -2.459824e+01 4.463923e+00 0.000000e+00
         vertex -2.340587e+01 -8.784370e+00 0.000000e+00
      endloop
   endfacet
   facet normal 0.000000e+00 0.000000e+00 -1.000000e+00
      outer loop
         vertex -2.340587e+01 -8.784370e+00 0.000000e+00
         vertex -2.459824e+01 4.463923e+00 0.000000e+00
         vertex -2.146122e+01 -1.282248e+01 0.000000e+00
      endloop
   endfacet
   facet normal 0.000000e+00 -0.000000e+00 -1.000000e+00
      outer loop
         vertex -2.459824e+01 4.463923e+00 0.000000e+00
         vertex -2.340587e+01 8.784370e+00 0.000000e+00
         vertex -2.146122e+01 -1.282248e+01 0.000000e+00
      endloop
   endfacet
   facet normal 0.000000e+00 0.000000e+00 -1.000000e+00
      outer loop
         vertex -2.146122e+01 -1.282248e+01 0.000000e+00
         vertex -2.340587e+01 8.784370e+00 0.000000e+00
         vertex -1.882679e+01 -1.644847e+01 0.000000e+00
      endloop
   endfacet
   facet normal 0.000000e+00 -0.000000e+00 -1.000000e+00
      outer loop
         vertex -2.340587e+01 8.784370e+00 0.000000e+00
         vertex -2.146122e+01 1.282248e+01 0.000000e+00
         vertex -1.882679e+01 -1.644847e+01 0.000000e+00
      endloop
   endfacet
   facet normal 0.000000e+00 0.000000e+00 -1.000000e+00
      outer loop
         vertex -1.882679e+01 -1.644847e+01 0.000000e+00
         vertex -2.146122e+01 1.282248e+01 0.000000e+00
         vertex -1.558724e+01 -1.954579e+01 0.000000e+00
      endloop
   endfacet
   facet normal 0.000000e+00 -0.000000e+00 -1.000000e+00
      outer loop
         vertex -2.146122e+01 1.282248e+01 0.000000e+00
         vertex -1.882679e+01 1.644847e+01 0.000000e+00
         vertex -1.558724e+01 -1.954579e+01 0.000000e+00
      endloop
   endfacet
   facet normal 0.000000e+00 0.000000e+00 -1.000000e+00
      outer loop
         vertex -1.558724e+01 -1.954579e+01 0.000000e+00
         vertex -1.882679e+01 1.644847e+01 0.000000e+00
         vertex -1.184672e+01 -2.201489e+01 0.000000e+00
      endloop
   endfacet
   facet normal 0.000000e+00 -0.000000e+00 -1.000000e+00
      outer loop
         vertex -1.882679e+01 1.644847e+01 0.000000e+00
         vertex -1.558724e+01 1.954579e+01 0.000000e+00
         vertex -1.184672e+01 -2.201489e+01 0.000000e+00
      endloop
   endfacet
   facet normal 0.000000e+00 0.000000e+00 -1.000000e+00
      outer loop
         vertex -1.184672e+01 -2.201489e+01 0.000000e+00
         vertex -1.558724e+01 1.954579e+01 0.000000e+00
         vertex -7.725425e+00 -2.377641e+01 0.000000e+00
      endloop
   endfacet
   facet normal 0.000000e+00 -0.000000e+00 -1.000000e+00
      outer loop
         vertex -1.558724e+01 1.954579e+01 0.000000e+00
         vertex -1.184672e+01 2.201489e+01 0.000000e+00
         vertex -7.725425e+00 -2.377641e+01 0.000000e+00
      endloop
   endfacet
   facet normal 0.000000e+00 0.000000e+00 -1.000000e+00
      outer loop
         vertex -7.725425e+00 -2.377641e+01 0.000000e+00
         vertex -1.184672e+01 2.201489e+01 0.000000e+00
         vertex -3.355832e+00 -2.477374e+01 0.000000e+00
      endloop
   endfacet
   facet normal 0.000000e+00 -0.000000e+00 -1.000000e+00
      outer loop
         vertex -1.184672e+01 2.201489e+01 0.000000e+00
         vertex -7.725425e+00 2.377641e+01 0.000000e+00
         vertex -3.355832e+00 -2.477374e+01 0.000000e+00
      endloop
   endfacet
   facet normal 0.000000e+00 0.000000e+00 -1.000000e+00
      outer loop
         vertex -3.355832e+00 -2.477374e+01 0.000000e+00
         vertex -7.725425e+00 2.377641e+01 0.000000e+00
         vertex 1.121621e+00 -2.497483e+01 0.000000e+00
      endloop
   endfacet
   facet normal -0.000000e+00 -0.000000e+00 -1.000000e+00
      outer loop
         vertex -7.725425e+00 2.377641e+01 0.000000e+00
         vertex -2.000000e+00 -7.500000e+00 0.000000e+00
         vertex 1.121621e+00 -2.497483e+01 0.000000e+00
      endloop
   endfacet
   facet normal 0.000000e+00 0.000000e+00 -1.000000e+00
      outer loop
         vertex 1.121621e+00 -2.497483e+01 0.000000e+00
         vertex -1.618034e+00 -8.675570e+00 0.000000e+00
         vertex 5.563024e+00 -2.437320e+01 0.000000e+00
      endloop
   endfacet
   facet normal -0.000000e+00 -0.000000e+00 -1.000000e+00
      outer loop
         vertex -1.618034e+00 -8.675570e+00 0.000000e+00
         vertex -6.180340e-01 -9.402113e+00 0.000000e+00
         vertex 5.563024e+00 -2.437320e+01 0.000000e+00
      endloop
   endfacet
   facet normal 0.000000e+00 0.000000e+00 -1.000000e+00
      outer loop
         vertex 5.563024e+00 -2.437320e+01 0.000000e+00
         vertex -6.180340e-01 -9.402113e+00 0.000000e+00
         vertex 9.825625e+00 -2.298819e+01 0.000000e+00
      endloop
   endfacet
   facet normal -0.000000e+00 -0.000000e+00 -1.000000e+00
      outer loop
         vertex -6.180340e-01 -9.402113e+00 0.000000e+00
         vertex 6.180340e-01 -9.402113e+00 0.000000e+00
         vertex 9.825625e+00 -2.298819e+01 0.000000e+00
      endloop
   endfacet
   facet normal 0.000000e+00 0.000000e+00 -1.000000e+00
      outer loop
         vertex 9.825625e+00 -2.298819e+01 0.000000e+00
         vertex 6.180340e-01 -9.402113e+00 0.000000e+00
         vertex 1.377242e+01 -2.086433e+01 0.000000e+00
      endloop
   endfacet
   facet normal 0.000000e+00 -0.000000e+00 -1.000000e+00
      outer loop
         vertex 6.180340e-01 -9.402113e+00 0.000000e+00
         vertex 1.618034e+00 -8.675570e+00 0.000000e+00
         vertex 1.377242e+01 -2.086433e+01 0.000000e+00
      endloop
   endfacet
   facet normal 0.000000e+00 0.000000e+00 -1.000000e+00
      outer loop
         vertex 1.377242e+01 -2.086433e+01 0.000000e+00
         vertex 1.618034e+00 -8.675570e+00 0.000000e+00
         vertex 1.727657e+01 -1.806987e+01 0.000000e+00
      endloop
   endfacet
   facet normal 0.000000e+00 -0.000000e+00 -1.000000e+00
      outer loop
         vertex 1.618034e+00 -8.675570e+00 0.000000e+00
         vertex 2.000000e+00 -7.500000e+00 0.000000e+00
         vertex 1.727657e+01 -1.806987e+01 0.000000e+00
      endloop
   endfacet
   facet normal 0.000000e+00 0.000000e+00 -1.000000e+00
      outer loop
         vertex 1.727657e+01 -1.806987e+01 0.000000e+00
         vertex 2.000000e+00 -7.500000e+00 0.000000e+00
         vertex 2.022543e+01 -1.469463e+01 0.000000e+00
      endloop
   endfacet
   facet normal 0.000000e+00 0.000000e+00 -1.000000e+00
      outer loop
         vertex 2.000000e+00 -7.500000e+00 0.000000e+00
         vertex 1.618034e+00 -6.324430e+00 0.000000e+00
         vertex 2.022543e+01 -1.469463e+01 0.000000e+00
      endloop
   endfacet
   facet normal 0.000000e+00 0.000000e+00 -1.000000e+00
      outer loop
         vertex 2.022543e+01 -1.469463e+01 0.000000e+00
         vertex 1.618034e+00 -6.324430e+00 0.000000e+00
         vertex 2.252422e+01 -1.084709e+01 0.000000e+00
      endloop
   endfacet
   facet normal 0.000000e+00 0.000000e+00 -1.000000e+00
      outer loop
         vertex 1.618034e+00 -6.324430e+00 0.000000e+00
         vertex 6.180340e-01 -5.597887e+00 0.000000e+00
         vertex 2.252422e+01 -1.084709e+01 0.000000e+00
      endloop
   endfacet
   facet normal 0.000000e+00 0.000000e+00 -1.000000e+00
      outer loop
         vertex 2.252422e+01 -1.084709e+01 0.000000e+00
         vertex 6.180340e-01 -5.597887e+00 0.000000e+00
         vertex 2.409907e+01 -6.650921e+00 0.000000e+00
      endloop
   endfacet
   facet normal 0.000000e+00 0.000000e+00 -1.000000e+00
      outer loop
         vertex -2.000000e+00 -7.500000e+00 0.000000e+00
         vertex -7.725425e+00 2.377641e+01 0.000000e+00
         vertex -1.618034e+00 -6.324430e+00 0.000000e+00
      endloop
   endfacet
   facet normal 0.000000e+00 0.000000e+00 -1.000000e+00
      outer loop
         vertex -1.618034e+00 -6.324430e+00 0.000000e+00
         vertex -7.725425e+00 2.377641e+01 0.000000e+00
         vertex -6.180340e-01 -5.597887e+00 0.000000e+00
      endloop
   endfacet
   facet normal -0.000000e+00 -0.000000e+00 -1.000000e+00
      outer loop
         vertex -7.725425e+00 2.377641e+01 0.000000e+00
         vertex -2.000000e+00 7.500000e+00 0.000000e+00
         vertex -6.180340e-01 -5.597887e+00 0.000000e+00
      endloop
   endfacet
   facet normal 0.000000e+00 0.000000e+00 -1.000000e+00
      outer loop
         vertex -6.180340e-01 -5.597887e+00 0.000000e+00
         vertex -2.000000e+00 7.500000e+00 0.000000e+00
         vertex 6.180340e-01 -5.597887e+00 0.000000e+00
      endloop
   endfacet
   facet normal -0.000000e+00 -0.000000e+00 -1.000000e+00
      outer loop
         vertex -2.000000e+00 7.500000e+00 0.000000e+00
         vertex -1.618034e+00 6.324430e+00 0.000000e+00
         vertex 6.180340e-01 -5.597887e+00 0.000000e+00
      endloop
   endfacet
   facet normal 0.000000e+00 0.000000e+00 -1.000000e+00
      outer loop
         vertex 6.180340e-01 -5.597887e+00 0.000000e+00
         vertex -6.180340e-01 5.597887e+00 0.000000e+00
         vertex 2.409907e+01 -6.650921e+00 0.000000e+00
      endloop
   endfacet
   facet normal -0.000000e+00 -0.000000e+00 -1.000000e+00
      outer loop
         vertex -6.180340e-01 5.597887e+00 0.000000e+00
         vertex 6.180340e-01 5.597887e+00 0.000000e+00
         vertex 2.409907e+01 -6.650921e+00 0.000000e+00
      endloop
   endfacet
   facet normal 0.000000e+00 0.000000e+00 -1.000000e+00
      outer loop
         vertex 2.409907e+01 -6.650921e+00 0.000000e+00
         vertex 6.180340e-01 5.597887e+00 0.000000e+00
         vertex 2.489936e+01 -2.240983e+00 0.000000e+00
      endloop
   endfacet
   facet normal 0.000000e+00 -0.000000e+00 -1.000000e+00
      outer loop
         vertex 6.180340e-01 5.597887e+00 0.000000e+00
         vertex 1.618034e+00 6.324430e+00 0.000000e+00
         vertex 2.489936e+01 -2.240983e+00 0.000000e+00
      endloop
   endfacet
   facet normal 0.000000e+00 0.000000e+00 -1.000000e+00
      outer loop
         vertex 2.489936e+01 -2.240983e+00 0.000000e+00
         vertex 1.618034e+00 6.324430e+00 0.000000e+00
         vertex 2.489936e+01 2.240983e+00 0.000000e+00
      endloop
   endfacet
   facet normal 0.000000e+00 -0.000000e+00 -1.000000e+00
      outer loop
         vertex 1.618034e+00 6.324430e+00 0.000000e+00
         vertex 2.000000e+00 7.500000e+00 0.000000e+00
         vertex 2.489936e+01 2.240983e+00 0.000000e+00
      endloop
   endfacet
   facet normal 0.000000e+00 0.000000e+00 -1.000000e+00
      outer loop
         vertex 2.489936e+01 2.240983e+00 0.000000e+00
         vertex 2.000000e+00 7.500000e+00 0.000000e+00
         vertex 2.409907e+01 6.650921e+00 0.000000e+00
      endloop
   endfacet
   facet normal 0.000000e+00 0.000000e+00 -1.000000e+00
      outer loop
         vertex 2.000000e+00 7.500000e+00 0.000000e+00
         vertex 1.618034e+00 8.675570e+00 0.000000e+00
         vertex 2.409907e+01 6.650921e+00 0.000000e+00
      endloop
   endfacet
   facet normal 0.000000e+00 0.000000e+00 -1.000000e+00
      outer loop
         vertex 2.409907e+01 6.650921e+00 0.000000e+00
         vertex 1.618034e+00 8.675570e+00 0.000000e+00
         vertex 2.252422e+01 1.084709e+01 0.000000e+00
      endloop
   endfacet
   facet normal 0.000000e+00 0.000000e+00 -1.000000e+00
      outer loop
         vertex 1.618034e+00 8.675570e+00 0.000000e+00
         vertex 6.180340e-01 9.402113e+00 0.000000e+00
         vertex 2.252422e+01 1.084709e+01 0.000000e+00
      endloop
   endfacet
   facet normal 0.000000e+00 0.000000e+00 -1.000000e+00
      outer loop
         vertex 2.252422e+01 1.084709e+01 0.000000e+00
         vertex 6.180340e-01 9.402113e+00 0.000000e+00
         vertex 2.022543e+01 1.469463e+01 0.000000e+00
      endloop
   endfacet
   facet normal 0.000000e+00 0.000000e+00 -1.000000e+00
      outer loop
         vertex 6.180340e-01 9.402113e+00 0.000000e+00
         vertex -6.180340e-01 9.402113e+00 0.000000e+00
         vertex 2.022543e+01 1.469463e+01 0.000000e+00
      endloop
   endfacet
   facet normal 0.000000e+00 0.000000e+00 -1.000000e+00
      outer loop
         vertex 2.022543e+01 1.469463e+01 0.000000e+00
         vertex -6.180340e-01 9.402113e+00 0.000000e+00
         vertex 1.727657e+01 1.806987e+01 0.000000e+00
      endloop
   endfacet
   facet normal 0.000000e+00 0.000000e+00 -1.000000e+00
      outer loop
         vertex -2.000000e+00 7.500000e+00 0.000000e+00
         vertex -7.725425e+00 2.377641e+01 0.000000e+00
         vertex -1.618034e+00 8.675570e+00 0.000000e+00
      endloop
   endfacet
   facet normal 0.000000e+00 0.000000e+00 -1.000000e+00
      outer loop
         vertex -1.618034e+00 8.675570e+00 0.000000e+00
         vertex -7.725425e+00 2.377641e+01 0.000000e+00
         vertex -6.180340e-01 9.402113e+00 0.000000e+00
      endloop
   endfacet
   facet normal 0.000000e+00 -0.000000e+00 -1.000000e+00
      outer loop
         vertex -7.725425e+00 2.377641e+01 0.000000e+00
         vertex -3.355832e+00 2.477374e+01 0.000000e+00
         vertex -6.180340e-01 9.402113e+00 0.000000e+00
      endloop
   endfacet
   facet normal 0.000000e+00 0.000000e+00 -1.000000e+00
      outer loop
         vertex -6.180340e-01 9.402113e+00 0.000000e+00
         vertex -3.355832e+00 2.477374e+01 0.000000e+00
         vertex 1.727657e+01 1.806987e+01 0.000000e+00
      endloop
   endfacet
   facet normal 0.000000e+00 -0.000000e+00 -1.000000e+00
      outer loop
         vertex -3.355832e+00 2.477374e+01 0.000000e+00
         vertex 1.121621e+00 2.497483e+01 0.000000e+00
         vertex 1.727657e+01 1.806987e+01 0.000000e+00
      endloop
   endfacet
   facet normal 0.000000e+00 0.000000e+00 -1.000000e+00
      outer loop
         vertex 1.727657e+01 1.806987e+01 0.000000e+00
         vertex 1.121621e+00 2.497483e+01 0.000000e+00
         vertex 1.377242e+01 2.086433e+01 0.000000e+00
      endloop
   endfacet
   facet normal -0.000000e+00 -0.000000e+00 -1.000000e+00
      outer loop
         vertex 1.121621e+00 2.497483e+01 0.000000e+00
         vertex 5.563024e+00 2.437320e+01 0.000000e+00
         vertex 1.377242e+01 2.086433e+01 0.000000e+00
      endloop
   endfacet
   facet normal 0.000000e+00 0.000000e+00 -1.000000e+00
      outer loop
         vertex 1.377242e+01 2.086433e+01 0.000000e+00
         vertex 5.563024e+00 2.437320e+01 0.000000e+00
         vertex 9.825625e+00 2.298819e+01 0.000000e+00
      endloop
   endfacet
   facet normal 0.000000e+00 0.000000e+00 -1.000000e+00
      outer loop
         vertex -6.180340e-01 5.597887e+00 0.000000e+00
         vertex 6.180340e-01 -5.597887e+00 0.000000e+00
         vertex -1.618034e+00 6.324430e+00 0.000000e+00
      endloop
   endfacet
   facet normal 0.000000e+00 0.000000e+00 -1.000000e+00
      outer loop
         vertex -1.618034e+00 -8.675570e+00 0.000000e+00
         vertex 1.121621e+00 -2.497483e+01 0.000000e+00
         vertex -2.000000e+00 -7.500000e+00 0.000000e+00
      endloop
   endfacet
   facet normal 0.000000e+00 0.000000e+00 1.000000e+00
      outer loop
         vertex -2.459824e+01 4.463923e+00 5.000000e+00
         vertex -2.500000e+01 3.061617e-15 5.000000e+00
         vertex -2.340587e+01 8.784370e+00 5.000000e+00
      endloop
   endfacet
   facet normal 0.000000e+00 -0.000000e+00 1.000000e+00
      outer loop
         vertex -2.500000e+01 3.061617e-15 5.000000e+00
         vertex -2.459824e+01 -4.463923e+00 5.000000e+00
         vertex -2.340587e+01 8.784370e+00 5.000000e+00
      endloop
   endfacet
   facet normal 0.000000e+00 0.000000e+00 1.000000e+00
      outer loop
         vertex -2.340587e+01 8.784370e+00 5.000000e+00
         vertex -2.459824e+01 -4.463923e+00 5.000000e+00
         vertex -2.146122e+01 1.282248e+01 5.000000e+00
      endloop
   endfacet
   facet normal 0.000000e+00 -0.000000e+00 1.000000e+00
      outer loop
         vertex -2.459824e+01 -4.463923e+00 5.000000e+00
         vertex -2.340587e+01 -8.784370e+00 5.000000e+00
         vertex -2.146122e+01 1.282248e+01 5.000000e+00
      endloop
   endfacet
   facet normal 0.000000e+00 0.000000e+00 1.000000e+00
      outer loop
         vertex -2.146122e+01 1.282248e+01 5.000000e+00
         vertex -2.340587e+01 -8.784370e+00 5.000000e+00
         vertex -1.882679e+01 1.644847e+01 5.000000e+00
      endloop
   endfacet
   facet normal 0.000000e+00 -0.000000e+00 1.000000e+00
      outer loop
         vertex -2.340587e+01 -8.784370e+00 5.000000e+00
         vertex -2.146122e+01 -1.282248e+01 5.000000e+00
         vertex -1.882679e+01 1.644847e+01 5.000000e+00
      endloop
   endfacet
   facet normal 0.000000e+00 0.000000e+00 1.000000e+00
      outer loop
         vertex -1.882679e+01 1.644847e+01 5.000000e+00
         vertex -2.146122e+01 -1.282248e+01 5.000000e+00
         vertex -1.558724e+01 1.954579e+01 5.000000e+00
      endloop
   endfacet
   facet normal 0.000000e+00 -0.000000e+00 1.000000e+00
      outer loop
         vertex -2.146122e+01 -1.282248e+01 5.000000e+00
         vertex -1.882679e+01 -1.644847e+01 5.000000e+00
         vertex -1.558724e+01 1.954579e+01 5.000000e+00
      endloop
   endfacet
   facet normal 0.000000e+00 0.000000e+00 1.000000e+00
      outer loop
         vertex -1.558724e+01 1.954579e+01 5.000000e+00
         vertex -1.882679e+01 -1.644847e+01 5.000000e+00
         vertex -1.184672e+01 2.201489e+01 5.000000e+00
      endloop
   endfacet
   facet normal 0.000000e+00 -0.000000e+00 1.000000e+00
      outer loop
         vertex -1.882679e+01 -1.644847e+01 5.000000e+00
         vertex -1.558724e+01 -1.954579e+01 5.000000e+00
         vertex -1.184672e+01 2.201489e+01 5.000000e+00
      endloop
   endfacet
   facet normal 0.000000e+00 0.000000e+00 1.000000e+00
      outer loop
         vertex -1.184672e+01 2.201489e+01 5.000000e+00
         vertex -1.558724e+01 -1.954579e+01 5.000000e+00
         vertex -7.725425e+00 2.377641e+01 5.000000e+00
      endloop
   endfacet
   facet normal 0.000000e+00 -0.000000e+00 1.000000e+00
      outer loop
         vertex -1.558724e+01 -1.954579e+01 5.000000e+00
         vertex -1.184672e+01 -2.201489e+01 5.000000e+00
         vertex -7.725425e+00 2.377641e+01 5.000000e+00
      endloop
   endfacet
   facet normal 0.000000e+00 0.000000e+00 1.000000e+00
      outer loop
         vertex -7.725425e+00 2.377641e+01 5.000000e+00
         vertex -1.184672e+01 -2.201489e+01 5.000000e+00
         vertex -3.355832e+00 2.477374e+01 5.000000e+00
      endloop
   endfacet
   facet normal 0.000000e+00 -0.000000e+00 1.000000e+00
      outer loop
         vertex -1.184672e+01 -2.201489e+01 5.000000e+00
         vertex -7.725425e+00 -2.377641e+01 5.000000e+00
         vertex -3.355832e+00 2.477374e+01 5.000000e+00
      endloop
   endfacet
   facet normal 0.000000e+00 0.000000e+00 1.000000e+00
      outer loop
         vertex -3.355832e+00 2.477374e+01 5.000000e+00
         vertex -7.725425e+00 -2.377641e+01 5.000000e+00
         vertex 1.121621e+00 2.497483e+01 5.000000e+00
      endloop
   endfacet
   facet normal 0.000000e+00 -0.000000e+00 1.000000e+00
      outer loop
         vertex -7.725425e+00 -2.377641e+01 5.000000e+00
         vertex -2.000000e+00 7.500000e+00 5.000000e+00
         vertex 1.121621e+00 2.497483e+01 5.000000e+00
      endloop
   endfacet
   facet normal 0.000000e+00 0.000000e+00 1.000000e+00
      outer loop
         vertex 1.121621e+00 2.497483e+01 5.000000e+00
         vertex -1.618034e+00 8.675570e+00 5.000000e+00
         vertex 5.563024e+00 2.437320e+01 5.000000e+00
      endloop
   endfacet
   facet normal 0.000000e+00 -0.000000e+00 1.000000e+00
      outer loop
         vertex -1.618034e+00 8.675570e+00 5.000000e+00
         vertex -6.180340e-01 9.402113e+00 5.000000e+00
         vertex 5.563024e+00 2.437320e+01 5.000000e+00
      endloop
   endfacet
   facet normal 0.000000e+00 0.000000e+00 1.000000e+00
      outer loop
         vertex 5.563024e+00 2.437320e+01 5.000000e+00
         vertex -6.180340e-01 9.402113e+00 5.000000e+00
         vertex 9.825625e+00 2.298819e+01 5.000000e+00
      endloop
   endfacet
   facet normal 0.000000e+00 -0.000000e+00 1.000000e+00
      outer loop
         vertex -6.180340e-01 9.402113e+00 5.000000e+00
         vertex 6.180340e-01 9.402113e+00 5.000000e+00
         vertex 9.825625e+00 2.298819e+01 5.000000e+00
      endloop
   endfacet
   facet normal 0.000000e+00 0.000000e+00 1.000000e+00
      outer loop
         vertex 9.825625e+00 2.298819e+01 5.000000e+00
         vertex 6.180340e-01 9.402113e+00 5.000000e+00
         vertex 1.377242e+01 2.086433e+01 5.000000e+00
      endloop
   endfacet
   facet normal 0.000000e+00 -0.000000e+00 1.000000e+00
      outer loop
         vertex 6.180340e-01 9.402113e+00 5.000000e+00
         vertex 1.618034e+00 8.675570e+00 5.000000e+00
         vertex 1.377242e+01 2.086433e+01 5.000000e+00
      endloop
   endfacet
   facet normal 0.000000e+00 0.000000e+00 1.000000e+00
      outer loop
         vertex 1.377242e+01 2.086433e+01 5.000000e+00
         vertex 1.618034e+00 8.675570e+00 5.000000e+00
         vertex 1.727657e+01 1.806987e+01 5.000000e+00
      endloop
   endfacet
   facet normal 0.000000e+00 -0.000000e+00 1.000000e+00
      outer loop
         vertex 1.618034e+00 8.675570e+00 5.000000e+00
         vertex 2.000000e+00 7.500000e+00 5.000000e+00
         vertex 1.727657e+01 1.806987e+01 5.000000e+00
      endloop
   endfacet
   facet normal 0.000000e+00 0.000000e+00 1.000000e+00
      outer loop
         vertex 1.727657e+01 1.806987e+01 5.000000e+00
         vertex 2.000000e+00 7.500000e+00 5.000000e+00
         vertex 2.022543e+01 1.469463e+01 5.000000e+00
      endloop
   endfacet
   facet normal 0.000000e+00 0.000000e+00 1.000000e+00
      outer loop
         vertex 2.000000e+00 7.500000e+00 5.000000e+00
         vertex 1.618034e+00 6.324430e+00 5.000000e+00
         vertex 2.022543e+01 1.469463e+01 5.000000e+00
      endloop
   endfacet
   facet normal 0.000000e+00 0.000000e+00 1.000000e+00
      outer loop
         vertex 2.022543e+01 1.469463e+01 5.000000e+00
         vertex 1.618034e+00 6.324430e+00 5.000000e+00
         vertex 2.252422e+01 1.084709e+01 5.000000e+00
      endloop
   endfacet
   facet normal 0.000000e+00 0.000000e+00 1.000000e+00
      outer loop
         vertex 1.618034e+00 6.324430e+00 5.000000e+00
         vertex 6.180340e-01 5.597887e+00 5.000000e+00
         vertex 2.252422e+01 1.084709e+01 5.000000e+00
      endloop
   endfacet
   facet normal 0.000000e+00 0.000000e+00 1.000000e+00
      outer loop
         vertex 2.252422e+01 1.084709e+01 5.000000e+00
         vertex 6.180340e-01 5.597887e+00 5.000000e+00
         vertex 2.409907e+01 6.650921e+00 5.000000e+00
      endloop
   endfacet
   facet normal 0.000000e+00 0.000000e+00 1.000000e+00
      outer loop
         vertex -2.000000e+00 7.500000e+00 5.000000e+00
         vertex -7.725425e+00 -2.377641e+01 5.000000e+00
         vertex -1.618034e+00 6.324430e+00 5.000000e+00
      endloop
   endfacet
   facet normal 0.000000e+00 0.000000e+00 1.000000e+00
      outer loop
         vertex -1.618034e+00 6.324430e+00 5.000000e+00
         vertex -7.725425e+00 -2.377641e+01 5.000000e+00
         vertex -6.180340e-01 5.597887e+00 5.000000e+00
      endloop
   endfacet
   facet normal 0.000000e+00 -0.000000e+00 1.000000e+00
      outer loop
         vertex -7.725425e+00 -2.377641e+01 5.000000e+00
         vertex -2.000000e+00 -7.500000e+00 5.000000e+00
         vertex -6.180340e-01 5.597887e+00 5.000000e+00
      endloop
   endfacet
   facet normal 0.000000e+00 0.000000e+00 1.000000e+00
      outer loop
         vertex -6.180340e-01 5.597887e+00 5.000000e+00
         vertex -2.000000e+00 -7.500000e+00 5.000000e+00
         vertex 6.180340e-01 5.597887e+00 5.000000e+00
      endloop
   endfacet
   facet normal 0.000000e+00 -0.000000e+00 1.000000e+00
      outer loop
         vertex -2.000000e+00 -7.500000e+00 5.000000e+00
         vertex -1.618034e+00 -6.324430e+00 5.000000e+00
         vertex 6.180340e-01 5.597887e+00 5.000000e+00
      endloop
   endfacet
   facet normal 0.000000e+00 0.000000e+00 1.000000e+00
      outer loop
         vertex 6.180340e-01 5.597887e+00 5.000000e+00
         vertex -6.180340e-01 -5.597887e+00 5.000000e+00
         vertex 2.409907e+01 6.650921e+00 5.000000e+00
      endloop
   endfacet
   facet normal 0.000000e+00 -0.000000e+00 1.000000e+00
      outer loop
         vertex -6.180340e-01 -5.597887e+00 5.000000e+00
         vertex 6.180340e-01 -5.597887e+00 5.000000e+00
         vertex 2.409907e+01 6.650921e+00 5.000000e+00
      endloop
   endfacet
   facet normal 0.000000e+00 0.000000e+00 1.000000e+00
      outer loop
         vertex 2.409907e+01 6.650921e+00 5.000000e+00
         vertex 6.180340e-01 -5.597887e+00 5.000000e+00
         vertex 2.489936e+01 2.240983e+00 5.000000e+00
      endloop
   endfacet
   facet normal 0.000000e+00 -0.000000e+00 1.000000e+00
      outer loop
         vertex 6.180340e-01 -5.597887e+00 5.000000e+00
         vertex 1.618034e+00 -6.324430e+00 5.000000e+00
         vertex 2.489936e+01 2.240983e+00 5.000000e+00
      endloop
   endfacet
   facet normal 0.000000e+00 0.000000e+00 1.000000e+00
      outer loop
         vertex 2.489936e+01 2.240983e+00 5.000000e+00
         vertex 1.618034e+00 -6.324430e+00 5.000000e+00
         vertex 2.489936e+01 -2.240983e+00 5.000000e+00
      endloop
   endfacet
   facet normal 0.000000e+00 -0.000000e+00 1.000000e+00
      outer loop
         vertex 1.618034e+00 -6.324430e+00 5.000000e+00
         vertex 2.000000e+00 -7.500000e+00 5.000000e+00
         vertex 2.489936e+01 -2.240983e+00 5.000000e+00
      endloop
   endfacet
   facet normal 0.000000e+00 0.000000e+00 1.000000e+00
      outer loop
         vertex 2.489936e+01 -2.240983e+00 5.000000e+00
         vertex 2.000000e+00 -7.500000e+00 5.000000e+00
         vertex 2.409907e+01 -6.650921e+00 5.000000e+00
      endloop
   endfacet
   facet normal 0.000000e+00 0.000000e+00 1.000000e+00
      outer loop
         vertex 2.000000e+00 -7.500000e+00 5.000000e+00
         vertex 1.618034e+00 -8.675570e+00 5.000000e+00
         vertex 2.409907e+01 -6.650921e+00 5.000000e+00
      endloop
   endfacet
   facet normal -0.000000e+00 0.000000e+00 1.000000e+00
      outer loop
         vertex 2.409907e+01 -6.650921e+00 5.000000e+00
         vertex 1.618034e+00 -8.675570e+00 5.000000e+00
         vertex 2.252422e+01 -1.084709e+01 5.000000e+00
      endloop
   endfacet
   facet normal -0.000000e+00 0.000000e+00 1.000000e+00
      outer loop
         vertex 1.618034e+00 -8.675570e+00 5.000000e+00
         vertex 6.180340e-01 -9.402113e+00 5.000000e+00
         vertex 2.252422e+01 -1.084709e+01 5.000000e+00
      endloop
   endfacet
   facet normal 0.000000e+00 0.000000e+00 1.000000e+00
      outer loop
         vertex 2.252422e+01 -1.084709e+01 5.000000e+00
         vertex 6.180340e-01 -9.402113e+00 5.000000e+00
         vertex 2.022543e+01 -1.469463e+01 5.000000e+00
      endloop
   endfacet
   facet normal -0.000000e+00 0.000000e+00 1.000000e+00
      outer loop
         vertex 6.180340e-01 -9.402113e+00 5.000000e+00
         vertex -6.180340e-01 -9.402113e+00 5.000000e+00
         vertex 2.022543e+01 -1.469463e+01 5.000000e+00
      endloop
   endfacet
   facet normal 0.000000e+00 0.000000e+00 1.000000e+00
      outer loop
         vertex 2.022543e+01 -1.469463e+01 5.000000e+00
         vertex -6.180340e-01 -9.402113e+00 5.000000e+00
         vertex 1.727657e+01 -1.806987e+01 5.000000e+00
      endloop
   endfacet
   facet normal 0.000000e+00 0.000000e+00 1.000000e+00
      outer loop
         vertex -2.000000e+00 -7.500000e+00 5.000000e+00
         vertex -7.725425e+00 -2.377641e+01 5.000000e+00
         vertex -1.618034e+00 -8.675570e+00 5.000000e+00
      endloop
   endfacet
   facet normal 0.000000e+00 0.000000e+00 1.000000e+00
      outer loop
         vertex -1.618034e+00 -8.675570e+00 5.000000e+00
         vertex -7.725425e+00 -2.377641e+01 5.000000e+00
         vertex -6.180340e-01 -9.402113e+00 5.000000e+00
      endloop
   endfacet
   facet normal 0.000000e+00 -0.000000e+00 1.000000e+00
      outer loop
         vertex -7.725425e+00 -2.377641e+01 5.000000e+00
         vertex -3.355832e+00 -2.477374e+01 5.000000e+00
         vertex -6.180340e-01 -9.402113e+00 5.000000e+00
      endloop
   endfacet
   facet normal 0.000000e+00 0.000000e+00 1.000000e+00
      outer loop
         vertex -6.180340e-01 -9.402113e+00 5.000000e+00
         vertex -3.355832e+00 -2.477374e+01 5.000000e+00
         vertex 1.727657e+01 -1.806987e+01 5.000000e+00
      endloop
   endfacet
   facet normal 0.000000e+00 -0.000000e+00 1.000000e+00
      outer loop
         vertex -3.355832e+00 -2.477374e+01 5.000000e+00
         vertex 1.121621e+00 -2.497483e+01 5.000000e+00
         vertex 1.727657e+01 -1.806987e+01 5.000000e+00
      endloop
   endfacet
   facet normal 0.000000e+00 0.000000e+00 1.000000e+00
      outer loop
         vertex 1.727657e+01 -1.806987e+01 5.000000e+00
         vertex 1.121621e+00 -2.497483e+01 5.000000e+00
         vertex 1.377242e+01 -2.086433e+01 5.000000e+00
      endloop
   endfacet
   facet normal 0.000000e+00 -0.000000e+00 1.000000e+00
      outer loop
         vertex 1.121621e+00 -2.497483e+01 5.000000e+00
         vertex 5.563024e+00 -2.437320e+01 5.000000e+00
         vertex 1.377242e+01 -2.086433e+01 5.000000e+00
      endloop
   endfacet
   facet normal 0.000000e+00 0.000000e+00 1.000000e+00
      outer loop
         vertex 1.377242e+01 -2.086433e+01 5.000000e+00
         vertex 5.563024e+00 -2.437320e+01 5.000000e+00
         vertex 9.825625e+00 -2.298819e+01 5.000000e+00
      endloop
   endfacet
   facet normal 0.000000e+00 0.000000e+00 1.000000e+00
      outer loop
         vertex -1.618034e+00 8.675570e+00 5.000000e+00
         vertex 1.121621e+00 2.497483e+01 5.000000e+00
         vertex -2.000000e+00 7.500000e+00 5.000000e+00
      endloop
   endfacet
   facet normal 0.000000e+00 0.000000e+00 1.000000e+00
      outer loop
         vertex -6.180340e-01 -5.597887e+00 5.000000e+00
         vertex 6.180340e-01 5.597887e+00 5.000000e+00
         vertex -1.618034e+00 -6.324430e+00 5.000000e+00
      endloop
   endfacet
   facet normal 9.510565e-01 3.090170e-01 -0.000000e+00
      outer loop
         vertex -1.618034e+00 6.324430e+00 5.000000e+00
         vertex -1.618034e+00 6.324430e+00 0.000000e+00
         vertex -2.000000e+00 7.500000e+00 0.000000e+00
      endloop
   endfacet
   facet normal 9.510565e-01 3.090170e-01 0.000000e+00
      outer loop
         vertex -2.000000e+00 7.500000e+00 5.000000e+00
         vertex -1.618034e+00 6.324430e+00 5.000000e+00
         vertex -2.000000e+00 7.500000e+00 0.000000e+00
      endloop
   endfacet
   facet normal 5.877852e-01 8.090170e-01 -0.000000e+00
      outer loop
         vertex -6.180340e-01 5.597887e+00 5.000000e+00
         vertex -6.180340e-01 5.597887e+00 0.000000e+00
         vertex -1.618034e+00 6.324430e+00 0.000000e+00
      endloop
   endfacet
   facet normal 5.877852e-01 8.090170e-01 0.000000e+00
      outer loop
         vertex -1.618034e+00 6.324430e+00 5.000000e+00
         vertex -6.180340e-01 5.597887e+00 5.000000e+00
         vertex -1.618034e+00 6.324430e+00 0.000000e+00
      endloop
   endfacet
   facet normal 0.000000e+00 1.000000e+00 -0.000000e+00
      outer loop
         vertex 6.180340e-01 5.597887e+00 5.000000e+00
         vertex 6.180340e-01 5.597887e+00 0.000000e+00
         vertex -6.180340e-01 5.597887e+00 0.000000e+00
      endloop
   endfacet
   facet normal 0.000000e+00 1.000000e+00 0.000000e+00
      outer loop
         vertex -6.180340e-01 5.597887e+00 5.000000e+00
         vertex 6.180340e-01 5.597887e+00 5.000000e+00
         vertex -6.180340e-01 5.597887e+00 0.000000e+00
      endloop
   endfacet
   facet normal -5.877852e-01 8.090170e-01 0.000000e+00
      outer loop
         vertex 1.618034e+00 6.324430e+00 5.000000e+00
         vertex 1.618034e+00 6.324430e+00 0.000000e+00
         vertex 6.180340e-01 5.597887e+00 0.000000e+00
      endloop
   endfacet
   facet normal -5.877852e-01 8.090170e-01 0.000000e+00
      outer loop
         vertex 6.180340e-01 5.597887e+00 5.000000e+00
         vertex 1.618034e+00 6.324430e+00 5.000000e+00
         vertex 6.180340e-01 5.597887e+00 0.000000e+00
      endloop
   endfacet
   facet normal -9.510565e-01 3.090170e-01 0.000000e+00
      outer loop
         vertex 2.000000e+00 7.500000e+00 5.000000e+00
         vertex 2.000000e+00 7.500000e+00 0.000000e+00
         vertex 1.618034e+00 6.324430e+00 0.000000e+00
      endloop
   endfacet
   facet normal -9.510565e-01 3.090170e-01 0.000000e+00
      outer loop
         vertex 1.618034e+00 6.324430e+00 5.000000e+00
         vertex 2.000000e+00 7.500000e+00 5.000000e+00
         vertex 1.618034e+00 6.324430e+00 0.000000e+00
      endloop
   endfacet
   facet normal -9.510565e-01 -3.090170e-01 0.000000e+00
      outer loop
         vertex 1.618034e+00 8.675570e+00 5.000000e+00
         vertex 1.618034e+00 8.675570e+00 0.000000e+00
         vertex 2.000000e+00 7.500000e+00 0.000000e+00
      endloop
   endfacet
   facet normal -9.510565e-01 -3.090170e-01 0.000000e+00
      outer loop
         vertex 2.000000e+00 7.500000e+00 5.000000e+00
         vertex 1.618034e+00 8.675570e+00 5.000000e+00
         vertex 2.000000e+00 7.500000e+00 0.000000e+00
      endloop
   endfacet
   facet normal -5.877852e-01 -8.090170e-01 0.000000e+00
      outer loop
         vertex 6.180340e-01 9.402113e+00 5.000000e+00
         vertex 6.180340e-01 9.402113e+00 0.000000e+00
         vertex 1.618034e+00 8.675570e+00 0.000000e+00
      endloop
   endfacet
   facet normal -5.877852e-01 -8.090170e-01 0.000000e+00
      outer loop
         vertex 1.618034e+00 8.675570e+00 5.000000e+00
         vertex 6.180340e-01 9.402113e+00 5.000000e+00
         vertex 1.618034e+00 8.675570e+00 0.000000e+00
      endloop
   endfacet
   facet normal 0.000000e+00 -1.000000e+00 0.000000e+00
      outer loop
         vertex -6.180340e-01 9.402113e+00 5.000000e+00
         vertex -6.180340e-01 9.402113e+00 0.000000e+00
         vertex 6.180340e-01 9.402113e+00 0.000000e+00
      endloop
   endfacet
   facet normal 0.000000e+00 -1.000000e+00 0.000000e+00
      outer loop
         vertex 6.180340e-01 9.402113e+00 5.000000e+00
         vertex -6.180340e-01 9.402113e+00 5.000000e+00
         vertex 6.180340e-01 9.402113e+00 0.000000e+00
      endloop
   endfacet
   facet normal 5.877852e-01 -8.090170e-01 0.000000e+00
      outer loop
         vertex -1.618034e+00 8.675570e+00 5.000000e+00
         vertex -1.618034e+00 8.675570e+00 0.000000e+00
         vertex -6.180340e-01 9.402113e+00 0.000000e+00
      endloop
   endfacet
   facet normal 5.877852e-01 -8.090170e-01 0.000000e+00
      outer loop
         vertex -6.180340e-01 9.402113e+00 5.000000e+00
         vertex -1.618034e+00 8.675570e+00 5.000000e+00
         vertex -6.180340e-01 9.402113e+00 0.000000e+00
      endloop
   endfacet
   facet normal 9.510565e-01 -3.090170e-01 0.000000e+00
      outer loop
         vertex -2.000000e+00 7.500000e+00 5.000000e+00
         vertex -2.000000e+00 7.500000e+00 0.000000e+00
         vertex -1.618034e+00 8.675570e+00 0.000000e+00
      endloop
   endfacet
   facet normal 9.510565e-01 -3.090170e-01 0.000000e+00
      outer loop
         vertex -1.618034e+00 8.675570e+00 5.000000e+00
         vertex -2.000000e+00 7.500000e+00 5.000000e+00
         vertex -1.618034e+00 8.675570e+00 0.000000e+00
      endloop
   endfacet
   facet normal 9.510565e-01 3.090170e-01 -0.000000e+00
      outer loop
         vertex -1.618034e+00 -8.675570e+00 5.000000e+00
         vertex -1.618034e+00 -8.675570e+00 0.000000e+00
         vertex -2.000000e+00 -7.500000e+00 0.000000e+00
      endloop
   endfacet
   facet normal 9.510565e-01 3.090170e-01 0.000000e+00
      outer loop
         vertex -2.000000e+00 -7.500000e+00 5.000000e+00
         vertex -1.618034e+00 -8.675570e+00 5.000000e+00
         vertex -2.000000e+00 -7.500000e+00 0.000000e+00
      endloop
   endfacet
   facet normal 5.877852e-01 8.090170e-01 -0.000000e+00
      outer loop
         vertex -6.180340e-01 -9.402113e+00 5.000000e+00
         vertex -6.180340e-01 -9.402113e+00 0.000000e+00
         vertex -1.618034e+00 -8.675570e+00 0.000000e+00
      endloop
   endfacet
   facet normal 5.877852e-01 8.090170e-01 0.000000e+00
      outer loop
         vertex -1.618034e+00 -8.675570e+00 5.000000e+00
         vertex -6.180340e-01 -9.402113e+00 5.000000e+00
         vertex -1.618034e+00 -8.675570e+00 0.000000e+00
      endloop
   endfacet
   facet normal 0.000000e+00 1.000000e+00 -0.000000e+00
      outer loop
         vertex 6.180340e-01 -9.402113e+00 5.000000e+00
         vertex 6.180340e-01 -9.402113e+00 0.000000e+00
         vertex -6.180340e-01 -9.402113e+00 0.000000e+00
      endloop
   endfacet
   facet normal 0.000000e+00 1.000000e+00 0.000000e+00
      outer loop
         vertex -6.180340e-01 -9.402113e+00 5.000000e+00
         vertex 6.180340e-01 -9.402113e+00 5.000000e+00
         vertex -6.180340e-01 -9.402113e+00 0.000000e+00
      endloop
   endfacet
   facet normal -5.877852e-01 8.090170e-01 0.000000e+00
      outer loop
         vertex 1.618034e+00 -8.675570e+00 5.000000e+00
         vertex 1.618034e+00 -8.675570e+00 0.000000e+00
         vertex 6.180340e-01 -9.402113e+00 0.000000e+00
      endloop
   endfacet
   facet normal -5.877852e-01 8.090170e-01 0.000000e+00
      outer loop
         vertex 6.180340e-01 -9.402113e+00 5.000000e+00
         vertex 1.618034e+00 -8.675570e+00 5.000000e+00
         vertex 6.180340e-01 -9.402113e+00 0.000000e+00
      endloop
   endfacet
   facet normal -9.510565e-01 3.090170e-01 0.000000e+00
      outer loop
         vertex 2.000000e+00 -7.500000e+00 5.000000e+00
         vertex 2.000000e+00 -7.500000e+00 0.000000e+00
         vertex 1.618034e+00 -8.675570e+00 0.000000e+00
      endloop
   endfacet
   facet normal -9.510565e-01 3.090170e-01 0.000000e+00
      outer loop
         vertex 1.618034e+00 -8.675570e+00 5.000000e+00
         vertex 2.000000e+00 -7.500000e+00 5.000000e+00
         vertex 1.618034e+00 -8.675570e+00 0.000000e+00
      endloop
   endfacet
   facet normal -9.510565e-01 -3.090170e-01 0.000000e+00
      outer loop
         vertex 1.618034e+00 -6.324430e+00 5.000000e+00
         vertex 1.618034e+00 -6.324430e+00 0.000000e+00
         vertex 2.000000e+00 -7.500000e+00 0.000000e+00
      endloop
   endfacet
   facet normal -9.510565e-01 -3.090170e-01 0.000000e+00
      outer loop
         vertex 2.000000e+00 -7.500000e+00 5.000000e+00
         vertex 1.618034e+00 -6.324430e+00 5.000000e+00
         vertex 2.000000e+00 -7.500000e+00 0.000000e+00
      endloop
   endfacet
   facet normal -5.877852e-01 -8.090170e-01 0.000000e+00
      outer loop
         vertex 6.180340e-01 -5.597887e+00 5.000000e+00
         vertex 6.180340e-01 -5.597887e+00 0.000000e+00
         vertex 1.618034e+00 -6.324430e+00 0.000000e+00
      endloop
   endfacet
   facet normal -5.877852e-01 -8.090170e-01 0.000000e+00
      outer loop
         vertex 1.618034e+00 -6.324430e+00 5.000000e+00
         vertex 6.180340e-01 -5.597887e+00 5.000000e+00
         vertex 1.618034e+00 -6.324430e+00 0.000000e+00
      endloop
   endfacet
   facet normal 0.000000e+00 -1.000000e+00 0.000000e+00
      outer loop
         vertex -6.180340e-01 -5.597887e+00 5.000000e+00
         vertex -6.180340e-01 -5.597887e+00 0.000000e+00
         vertex 6.180340e-01 -5.597887e+00 0.000000e+00
      endloop
   endfacet
   facet normal 0.000000e+00 -1.000000e+00 0.000000e+00
      outer loop
         vertex 6.180340e-01 -5.597887e+00 5.000000e+00
         vertex -6.180340e-01 -5.597887e+00 5.000000e+00
         vertex 6.180340e-01 -5.597887e+00 0.000000e+00
      endloop
   endfacet
   facet normal 5.877852e-01 -8.090170e-01 0.000000e+00
      outer loop
         vertex -1.618034e+00 -6.324430e+00 5.000000e+00
         vertex -1.618034e+00 -6.324430e+00 0.000000e+00
         vertex -6.180340e-01 -5.597887e+00 0.000000e+00
      endloop
   endfacet
   facet normal 5.877852e-01 -8.090170e-01 0.000000e+00
      outer loop
         vertex -6.180340e-01 -5.597887e+00 5.000000e+00
         vertex -1.618034e+00 -6.324430e+00 5.000000e+00
         vertex -6.180340e-01 -5.597887e+00 0.000000e+00
      endloop
   endfacet
   facet normal 9.510565e-01 -3.090170e-01 0.000000e+00
      outer loop
         vertex -2.000000e+00 -7.500000e+00 5.000000e+00
         vertex -2.000000e+00 -7.500000e+00 0.000000e+00
         vertex -1.618034e+00 -6.324430e+00 0.000000e+00
      endloop
   endfacet
   facet normal 9.510565e-01 -3.090170e-01 0.000000e+00
      outer loop
         vertex -1.618034e+00 -6.324430e+00 5.000000e+00
         vertex -2.000000e+00 -7.500000e+00 5.000000e+00
         vertex -1.618034e+00 -6.324430e+00 0.000000e+00
      endloop
   endfacet
   facet normal -9.959743e-01 -8.963927e-02 0.000000e+00
      outer loop
         vertex -2.500000e+01 3.061617e-15 0.000000e+00
         vertex -2.459824e+01 -4.463923e+00 0.000000e+00
         vertex -2.459824e+01 -4.463923e+00 5.000000e+00
      endloop
   endfacet
   facet normal -9.959743e-01 -8.963927e-02 0.000000e+00
      outer loop
         vertex -2.500000e+01 3.061617e-15 0.000000e+00
         vertex -2.459824e+01 -4.463923e+00 5.000000e+00
         vertex -2.500000e+01 3.061617e-15 5.000000e+00
      endloop
   endfacet
   facet normal -9.639629e-01 -2.660368e-01 0.000000e+00
      outer loop
         vertex -2.459824e+01 -4.463923e+00 0.000000e+00
         vertex -2.340587e+01 -8.784370e+00 0.000000e+00
         vertex -2.340587e+01 -8.784370e+00 5.000000e+00
      endloop
   endfacet
   facet normal -9.639629e-01 -2.660368e-01 0.000000e+00
      outer loop
         vertex -2.459824e+01 -4.463923e+00 0.000000e+00
         vertex -2.340587e+01 -8.784370e+00 5.000000e+00
         vertex -2.459824e+01 -4.463923e+00 5.000000e+00
      endloop
   endfacet
   facet normal -9.009688e-01 -4.338838e-01 0.000000e+00
      outer loop
         vertex -2.340587e+01 -8.784370e+00 0.000000e+00
         vertex -2.146122e+01 -1.282248e+01 0.000000e+00
         vertex -2.146122e+01 -1.282248e+01 5.000000e+00
      endloop
   endfacet
   facet normal -9.009688e-01 -4.338838e-01 0.000000e+00
      outer loop
         vertex -2.340587e+01 -8.784370e+00 0.000000e+00
         vertex -2.146122e+01 -1.282248e+01 5.000000e+00
         vertex -2.340587e+01 -8.784370e+00 5.000000e+00
      endloop
   endfacet
   facet normal -8.090169e-01 -5.877854e-01 0.000000e+00
      outer loop
         vertex -2.146122e+01 -1.282248e+01 0.000000e+00
         vertex -1.882679e+01 -1.644847e+01 0.000000e+00
         vertex -1.882679e+01 -1.644847e+01 5.000000e+00
      endloop
   endfacet
   facet normal -8.090169e-01 -5.877854e-01 0.000000e+00
      outer loop
         vertex -2.146122e+01 -1.282248e+01 0.000000e+00
         vertex -1.882679e+01 -1.644847e+01 5.000000e+00
         vertex -2.146122e+01 -1.282248e+01 5.000000e+00
      endloop
   endfacet
   facet normal -6.910629e-01 -7.227946e-01 0.000000e+00
      outer loop
         vertex -1.882679e+01 -1.644847e+01 0.000000e+00
         vertex -1.558724e+01 -1.954579e+01 0.000000e+00
         vertex -1.558724e+01 -1.954579e+01 5.000000e+00
      endloop
   endfacet
   facet normal -6.910629e-01 -7.227946e-01 0.000000e+00
      outer loop
         vertex -1.882679e+01 -1.644847e+01 0.000000e+00
         vertex -1.558724e+01 -1.954579e+01 5.000000e+00
         vertex -1.882679e+01 -1.644847e+01 5.000000e+00
      endloop
   endfacet
   facet normal -5.508970e-01 -8.345733e-01 0.000000e+00
      outer loop
         vertex -1.558724e+01 -1.954579e+01 0.000000e+00
         vertex -1.184672e+01 -2.201489e+01 0.000000e+00
         vertex -1.184672e+01 -2.201489e+01 5.000000e+00
      endloop
   endfacet
   facet normal -5.508970e-01 -8.345733e-01 0.000000e+00
      outer loop
         vertex -1.558724e+01 -1.954579e+01 0.000000e+00
         vertex -1.184672e+01 -2.201489e+01 5.000000e+00
         vertex -1.558724e+01 -1.954579e+01 5.000000e+00
      endloop
   endfacet
   facet normal -3.930249e-01 -9.195278e-01 0.000000e+00
      outer loop
         vertex -1.184672e+01 -2.201489e+01 0.000000e+00
         vertex -7.725425e+00 -2.377641e+01 0.000000e+00
         vertex -7.725425e+00 -2.377641e+01 5.000000e+00
      endloop
   endfacet
   facet normal -3.930249e-01 -9.195278e-01 0.000000e+00
      outer loop
         vertex -1.184672e+01 -2.201489e+01 0.000000e+00
         vertex -7.725425e+00 -2.377641e+01 5.000000e+00
         vertex -1.184672e+01 -2.201489e+01 5.000000e+00
      endloop
   endfacet
   facet normal -2.225210e-01 -9.749279e-01 0.000000e+00
      outer loop
         vertex -7.725425e+00 -2.377641e+01 0.000000e+00
         vertex -3.355832e+00 -2.477374e+01 0.000000e+00
         vertex -3.355832e+00 -2.477374e+01 5.000000e+00
      endloop
   endfacet
   facet normal -2.225210e-01 -9.749279e-01 0.000000e+00
      outer loop
         vertex -7.725425e+00 -2.377641e+01 0.000000e+00
         vertex -3.355832e+00 -2.477374e+01 5.000000e+00
         vertex -7.725425e+00 -2.377641e+01 5.000000e+00
      endloop
   endfacet
   facet normal -4.486474e-02 -9.989931e-01 0.000000e+00
      outer loop
         vertex -3.355832e+00 -2.477374e+01 0.000000e+00
         vertex 1.121621e+00 -2.497483e+01 0.000000e+00
         vertex 1.121621e+00 -2.497483e+01 5.000000e+00
      endloop
   endfacet
   facet normal -4.486474e-02 -9.989931e-01 0.000000e+00
      outer loop
         vertex -3.355832e+00 -2.477374e+01 0.000000e+00
         vertex 1.121621e+00 -2.497483e+01 5.000000e+00
         vertex -3.355832e+00 -2.477374e+01 5.000000e+00
      endloop
   endfacet
   facet normal 1.342333e-01 -9.909498e-01 0.000000e+00
      outer loop
         vertex 1.121621e+00 -2.497483e+01 0.000000e+00
         vertex 5.563024e+00 -2.437320e+01 0.000000e+00
         vertex 5.563024e+00 -2.437320e+01 5.000000e+00
      endloop
   endfacet
   facet normal 1.342333e-01 -9.909498e-01 0.000000e+00
      outer loop
         vertex 1.121621e+00 -2.497483e+01 0.000000e+00
         vertex 5.563024e+00 -2.437320e+01 5.000000e+00
         vertex 1.121621e+00 -2.497483e+01 5.000000e+00
      endloop
   endfacet
   facet normal 3.090171e-01 -9.510565e-01 0.000000e+00
      outer loop
         vertex 5.563024e+00 -2.437320e+01 0.000000e+00
         vertex 9.825625e+00 -2.298819e+01 0.000000e+00
         vertex 9.825625e+00 -2.298819e+01 5.000000e+00
      endloop
   endfacet
   facet normal 3.090171e-01 -9.510565e-01 0.000000e+00
      outer loop
         vertex 5.563024e+00 -2.437320e+01 0.000000e+00
         vertex 9.825625e+00 -2.298819e+01 5.000000e+00
         vertex 5.563024e+00 -2.437320e+01 5.000000e+00
      endloop
   endfacet
   facet normal 4.738683e-01 -8.805957e-01 0.000000e+00
      outer loop
         vertex 9.825625e+00 -2.298819e+01 0.000000e+00
         vertex 1.377242e+01 -2.086433e+01 0.000000e+00
         vertex 1.377242e+01 -2.086433e+01 5.000000e+00
      endloop
   endfacet
   facet normal 4.738683e-01 -8.805957e-01 0.000000e+00
      outer loop
         vertex 9.825625e+00 -2.298819e+01 0.000000e+00
         vertex 1.377242e+01 -2.086433e+01 5.000000e+00
         vertex 9.825625e+00 -2.298819e+01 5.000000e+00
      endloop
   endfacet
   facet normal 6.234900e-01 -7.818314e-01 0.000000e+00
      outer loop
         vertex 1.377242e+01 -2.086433e+01 0.000000e+00
         vertex 1.727657e+01 -1.806987e+01 0.000000e+00
         vertex 1.727657e+01 -1.806987e+01 5.000000e+00
      endloop
   endfacet
   facet normal 6.234900e-01 -7.818314e-01 0.000000e+00
      outer loop
         vertex 1.377242e+01 -2.086433e+01 0.000000e+00
         vertex 1.727657e+01 -1.806987e+01 5.000000e+00
         vertex 1.377242e+01 -2.086433e+01 5.000000e+00
      endloop
   endfacet
   facet normal 7.530713e-01 -6.579389e-01 0.000000e+00
      outer loop
         vertex 1.727657e+01 -1.806987e+01 0.000000e+00
         vertex 2.022543e+01 -1.469463e+01 0.000000e+00
         vertex 2.022543e+01 -1.469463e+01 5.000000e+00
      endloop
   endfacet
   facet normal 7.530713e-01 -6.579389e-01 0.000000e+00
      outer loop
         vertex 1.727657e+01 -1.806987e+01 0.000000e+00
         vertex 2.022543e+01 -1.469463e+01 5.000000e+00
         vertex 1.727657e+01 -1.806987e+01 5.000000e+00
      endloop
   endfacet
   facet normal 8.584489e-01 -5.128991e-01 0.000000e+00
      outer loop
         vertex 2.022543e+01 -1.469463e+01 0.000000e+00
         vertex 2.252422e+01 -1.084709e+01 0.000000e+00
         vertex 2.252422e+01 -1.084709e+01 5.000000e+00
      endloop
   endfacet
   facet normal 8.584489e-01 -5.128991e-01 0.000000e+00
      outer loop
         vertex 2.022543e+01 -1.469463e+01 0.000000e+00
         vertex 2.252422e+01 -1.084709e+01 5.000000e+00
         vertex 2.022543e+01 -1.469463e+01 5.000000e+00
      endloop
   endfacet
   facet normal 9.362348e-01 -3.513749e-01 0.000000e+00
      outer loop
         vertex 2.252422e+01 -1.084709e+01 0.000000e+00
         vertex 2.409907e+01 -6.650921e+00 0.000000e+00
         vertex 2.409907e+01 -6.650921e+00 5.000000e+00
      endloop
   endfacet
   facet normal 9.362348e-01 -3.513749e-01 0.000000e+00
      outer loop
         vertex 2.252422e+01 -1.084709e+01 0.000000e+00
         vertex 2.409907e+01 -6.650921e+00 5.000000e+00
         vertex 2.252422e+01 -1.084709e+01 5.000000e+00
      endloop
   endfacet
   facet normal 9.839296e-01 -1.785568e-01 0.000000e+00
      outer loop
         vertex 2.409907e+01 -6.650921e+00 0.000000e+00
         vertex 2.489936e+01 -2.240983e+00 0.000000e+00
         vertex 2.489936e+01 -2.240983e+00 5.000000e+00
      endloop
   endfacet
   facet normal 9.839296e-01 -1.785568e-01 0.000000e+00
      outer loop
         vertex 2.409907e+01 -6.650921e+00 0.000000e+00
         vertex 2.489936e+01 -2.240983e+00 5.000000e+00
         vertex 2.409907e+01 -6.650921e+00 5.000000e+00
      endloop
   endfacet
   facet normal 1.000000e+00 0.000000e+00 -0.000000e+00
      outer loop
         vertex 2.489936e+01 -2.240983e+00 0.000000e+00
         vertex 2.489936e+01 2.240983e+00 0.000000e+00
         vertex 2.489936e+01 2.240983e+00 5.000000e+00
      endloop
   endfacet
   facet normal 1.000000e+00 0.000000e+00 0.000000e+00
      outer loop
         vertex 2.489936e+01 -2.240983e+00 0.000000e+00
         vertex 2.489936e+01 2.240983e+00 5.000000e+00
         vertex 2.489936e+01 -2.240983e+00 5.000000e+00
      endloop
   endfacet
   facet normal 9.839296e-01 1.785568e-01 -0.000000e+00
      outer loop
         vertex 2.489936e+01 2.240983e+00 0.000000e+00
         vertex 2.409907e+01 6.650921e+00 0.000000e+00
         vertex 2.409907e+01 6.650921e+00 5.000000e+00
      endloop
   endfacet
   facet normal 9.839296e-01 1.785568e-01 0.000000e+00
      outer loop
         vertex 2.489936e+01 2.240983e+00 0.000000e+00
         vertex 2.409907e+01 6.650921e+00 5.000000e+00
         vertex 2.489936e+01 2.240983e+00 5.000000e+00
      endloop
   endfacet
   facet normal 9.362348e-01 3.513749e-01 -0.000000e+00
      outer loop
         vertex 2.409907e+01 6.650921e+00 0.000000e+00
         vertex 2.252422e+01 1.084709e+01 0.000000e+00
         vertex 2.252422e+01 1.084709e+01 5.000000e+00
      endloop
   endfacet
   facet normal 9.362348e-01 3.513749e-01 0.000000e+00
      outer loop
         vertex 2.409907e+01 6.650921e+00 0.000000e+00
         vertex 2.252422e+01 1.084709e+01 5.000000e+00
         vertex 2.409907e+01 6.650921e+00 5.000000e+00
      endloop
   endfacet
   facet normal 8.584489e-01 5.128991e-01 -0.000000e+00
      outer loop
         vertex 2.252422e+01 1.084709e+01 0.000000e+00
         vertex 2.022543e+01 1.469463e+01 0.000000e+00
         vertex 2.022543e+01 1.469463e+01 5.000000e+00
      endloop
   endfacet
   facet normal 8.584489e-01 5.128991e-01 0.000000e+00
      outer loop
         vertex 2.252422e+01 1.084709e+01 0.000000e+00
         vertex 2.022543e+01 1.469463e+01 5.000000e+00
         vertex 2.252422e+01 1.084709e+01 5.000000e+00
      endloop
   endfacet
   facet normal 7.530713e-01 6.579389e-01 -0.000000e+00
      outer loop
         vertex 2.022543e+01 1.469463e+01 0.000000e+00
         vertex 1.727657e+01 1.806987e+01 0.000000e+00
         vertex 1.727657e+01 1.806987e+01 5.000000e+00
      endloop
   endfacet
   facet normal 7.530713e-01 6.579389e-01 0.000000e+00
      outer loop
         vertex 2.022543e+01 1.469463e+01 0.000000e+00
         vertex 1.727657e+01 1.806987e+01 5.000000e+00
         vertex 2.022543e+01 1.469463e+01 5.000000e+00
      endloop
   endfacet
   facet normal 6.234900e-01 7.818314e-01 -0.000000e+00
      outer loop
         vertex 1.727657e+01 1.806987e+01 0.000000e+00
         vertex 1.377242e+01 2.086433e+01 0.000000e+00
         vertex 1.377242e+01 2.086433e+01 5.000000e+00
      endloop
   endfacet
   facet normal 6.234900e-01 7.818314e-01 0.000000e+00
      outer loop
         vertex 1.727657e+01 1.806987e+01 0.000000e+00
         vertex 1.377242e+01 2.086433e+01 5.000000e+00
         vertex 1.727657e+01 1.806987e+01 5.000000e+00
      endloop
   endfacet
   facet normal 4.738683e-01 8.805957e-01 -0.000000e+00
      outer loop
         vertex 1.377242e+01 2.086433e+01 0.000000e+00
         vertex 9.825625e+00 2.298819e+01 0.000000e+00
         vertex 9.825625e+00 2.298819e+01 5.000000e+00
      endloop
   endfacet
   facet normal 4.738683e-01 8.805957e-01 0.000000e+00
      outer loop
         vertex 1.377242e+01 2.086433e+01 0.000000e+00
         vertex 9.825625e+00 2.298819e+01 5.000000e+00
         vertex 1.377242e+01 2.086433e+01 5.000000e+00
      endloop
   endfacet
   facet normal 3.090171e-01 9.510565e-01 -0.000000e+00
      outer loop
         vertex 9.825625e+00 2.298819e+01 0.000000e+00
         vertex 5.563024e+00 2.437320e+01 0.000000e+00
         vertex 5.563024e+00 2.437320e+01 5.000000e+00
      endloop
   endfacet
   facet normal 3.090171e-01 9.510565e-01 0.000000e+00
      outer loop
         vertex 9.825625e+00 2.298819e+01 0.000000e+00
         vertex 5.563024e+00 2.437320e+01 5.000000e+00
         vertex 9.825625e+00 2.298819e+01 5.000000e+00
      endloop
   endfacet
   facet normal 1.342333e-01 9.909498e-01 -0.000000e+00
      outer loop
         vertex 5.563024e+00 2.437320e+01 0.000000e+00
         vertex 1.121621e+00 2.497483e+01 0.000000e+00
         vertex 1.121621e+00 2.497483e+01 5.000000e+00
      endloop
   endfacet
   facet normal 1.342333e-01 9.909498e-01 0.000000e+00
      outer loop
         vertex 5.563024e+00 2.437320e+01 0.000000e+00
         vertex 1.121621e+00 2.497483e+01 5.000000e+00
         vertex 5.563024e+00 2.437320e+01 5.000000e+00
      endloop
   endfacet
   facet normal -4.486474e-02 9.989931e-01 0.000000e+00
      outer loop
         vertex 1.121621e+00 2.497483e+01 0.000000e+00
         vertex -3.355832e+00 2.477374e+01 0.000000e+00
         vertex -3.355832e+00 2.477374e+01 5.000000e+00
      endloop
   endfacet
   facet normal -4.486474e-02 9.989931e-01 0.000000e+00
      outer loop
         vertex 1.121621e+00 2.497483e+01 0.000000e+00
         vertex -3.355832e+00 2.477374e+01 5.000000e+00
         vertex 1.121621e+00 2.497483e+01 5.000000e+00
      endloop
   endfacet
   facet normal -2.225210e-01 9.749279e-01 0.000000e+00
      outer loop
         vertex -3.355832e+00 2.477374e+01 0.000000e+00
         vertex -7.725425e+00 2.377641e+01 0.000000e+00
         vertex -7.725425e+00 2.377641e+01 5.000000e+00
      endloop
   endfacet
   facet normal -2.225210e-01 9.749279e-01 0.000000e+00
      outer loop
         vertex -3.355832e+00 2.477374e+01 0.000000e+00
         vertex -7.725425e+00 2.377641e+01 5.000000e+00
         vertex -3.355832e+00 2.477374e+01 5.000000e+00
      endloop
   endfacet
   facet normal -3.930249e-01 9.195278e-01 0.000000e+00
      outer loop
         vertex -7.725425e+00 2.377641e+01 0.000000e+00
         vertex -1.184672e+01 2.201489e+01 0.000000e+00
         vertex -1.184672e+01 2.201489e+01 5.000000e+00
      endloop
   endfacet
   facet normal -3.930249e-01 9.195278e-01 0.000000e+00
      outer loop
         vertex -7.725425e+00 2.377641e+01 0.000000e+00
         vertex -1.184672e+01 2.201489e+01 5.000000e+00
         vertex -7.725425e+00 2.377641e+01 5.000000e+00
      endloop
   endfacet
   facet normal -5.508970e-01 8.345733e-01 0.000000e+00
      outer loop
         vertex -1.184672e+01 2.201489e+01 0.000000e+00
         vertex -1.558724e+01 1.954579e+01 0.000000e+00
         vertex -1.558724e+01 1.954579e+01 5.000000e+00
      endloop
   endfacet
   facet normal -5.508970e-01 8.345733e-01 0.000000e+00
      outer loop
         vertex -1.184672e+01 2.201489e+01 0.000000e+00
         vertex -1.558724e+01 1.954579e+01 5.000000e+00
         vertex -1.184672e+01 2.201489e+01 5.000000e+00
      endloop
   endfacet
   facet normal -6.910629e-01 7.227946e-01 0.000000e+00
      outer loop
         vertex -1.558724e+01 1.954579e+01 0.000000e+00
         vertex -1.882679e+01 1.644847e+01 0.000000e+00
         vertex -1.882679e+01 1.644847e+01 5.000000e+00
      endloop
   endfacet
   facet normal -6.910629e-01 7.227946e-01 0.000000e+00
      outer loop
         vertex -1.558724e+01 1.954579e+01 0.000000e+00
         vertex -1.882679e+01 1.644847e+01 5.000000e+00
         vertex -1.558724e+01 1.954579e+01 5.000000e+00
      endloop
   endfacet
   facet normal -8.090169e-01 5.877854e-01 0.000000e+00
      outer loop
         vertex -1.882679e+01 1.644847e+01 0.000000e+00
         vertex -2.146122e+01 1.282248e+01 0.000000e+00
         vertex -2.146122e+01 1.282248e+01 5.000000e+00
      endloop
   endfacet
   facet normal -8.090169e-01 5.877854e-01 0.000000e+00
      outer loop
         vertex -1.882679e+01 1.644847e+01 0.000000e+00
         vertex -2.146122e+01 1.282248e+01 5.000000e+00
         vertex -1.882679e+01 1.644847e+01 5.000000e+00
      endloop
   endfacet
   facet normal -9.009688e-01 4.338838e-01 0.000000e+00
      outer loop
         vertex -2.146122e+01 1.282248e+01 0.000000e+00
         vertex -2.340587e+01 8.784370e+00 0.000000e+00
         vertex -2.340587e+01 8.784370e+00 5.000000e+00
      endloop
   endfacet
   facet normal -9.009688e-01 4.338838e-01 0.000000e+00
      outer loop
         vertex -2.146122e+01 1.282248e+01 0.000000e+00
         vertex -2.340587e+01 8.784370e+00 5.000000e+00
         vertex -2.146122e+01 1.282248e+01 5.000000e+00
      endloop
   endfacet
   facet normal -9.639629e-01 2.660368e-01 0.000000e+00
      outer loop
         vertex -2.340587e+01 8.784370e+00 0.000000e+00
         vertex -2.459824e+01 4.463923e+00 0.000000e+00
         vertex -2.459824e+01 4.463923e+00 5.000000e+00
      endloop
   endfacet
   facet normal -9.639629e-01 2.660368e-01 0.000000e+00
      outer loop
         vertex -2.340587e+01 8.784370e+00 0.000000e+00
         vertex -2.459824e+01 4.463923e+00 5.000000e+00
         vertex -2.340587e+01 8.784370e+00 5.000000e+00
      endloop
   endfacet
   facet normal -9.959743e-01 8.963927e-02 0.000000e+00
      outer loop
         vertex -2.459824e+01 4.463923e+00 0.000000e+00
         vertex -2.500000e+01 9.184851e-15 0.000000e+00
         vertex -2.500000e+01 9.184851e-15 5.000000e+00
      endloop
   endfacet
   facet normal -9.959743e-01 8.963927e-02 0.000000e+00
      outer loop
         vertex -2.459824e+01 4.463923e+00 0.000000e+00
         vertex -2.500000e+01 9.184851e-15 5.000000e+00
         vertex -2.459824e+01 4.463923e+00 5.000000e+00
      endloop
   endfacet
endsolid
