solid 
   facet normal -1.000000e+00 0.000000e+00 -0.000000e+00
      outer loop
         vertex -3.000000e+00 -1.500000e+01 -1.000000e+01
         vertex -3.000000e+00 -7.760472e+00 -6.477211e+00
         vertex -3.000000e+00 0.000000e+00 -1.000000e+01
      endloop
   endfacet
   facet normal -1.000000e+00 0.000000e+00 -0.000000e+00
      outer loop
         vertex -3.000000e+00 -7.760472e+00 -6.477211e+00
         vertex -3.000000e+00 -6.750000e+00 -6.299038e+00
         vertex -3.000000e+00 0.000000e+00 -1.000000e+01
      endloop
   endfacet
   facet normal -1.000000e+00 0.000000e+00 0.000000e+00
      outer loop
         vertex -3.000000e+00 0.000000e+00 -1.000000e+01
         vertex -3.000000e+00 -6.750000e+00 -6.299038e+00
         vertex -3.000000e+00 2.449294e-16 0.000000e+00
      endloop
   endfacet
   facet normal -1.000000e+00 0.000000e+00 -0.000000e+00
      outer loop
         vertex -3.000000e+00 -6.750000e+00 -6.299038e+00
         vertex -3.000000e+00 -6.090461e+00 -5.513030e+00
         vertex -3.000000e+00 2.449294e-16 0.000000e+00
      endloop
   endfacet
   facet normal -1.000000e+00 0.000000e+00 0.000000e+00
      outer loop
         vertex -3.000000e+00 2.449294e-16 0.000000e+00
         vertex -3.000000e+00 -6.750000e+00 -3.700962e+00
         vertex -3.000000e+00 -1.500000e+01 0.000000e+00
      endloop
   endfacet
   facet normal -1.000000e+00 0.000000e+00 0.000000e+00
      outer loop
         vertex -3.000000e+00 -6.750000e+00 -3.700962e+00
         vertex -3.000000e+00 -7.760472e+00 -3.522788e+00
         vertex -3.000000e+00 -1.500000e+01 0.000000e+00
      endloop
   endfacet
   facet normal -1.000000e+00 -0.000000e+00 0.000000e+00
      outer loop
         vertex -3.000000e+00 -1.500000e+01 0.000000e+00
         vertex -3.000000e+00 -8.649067e+00 -4.035819e+00
         vertex -3.000000e+00 -1.500000e+01 -1.000000e+01
      endloop
   endfacet
   facet normal -1.000000e+00 -0.000000e+00 0.000000e+00
      outer loop
         vertex -3.000000e+00 -8.649067e+00 -4.035819e+00
         vertex -3.000000e+00 -9.000000e+00 -5.000000e+00
         vertex -3.000000e+00 -1.500000e+01 -1.000000e+01
      endloop
   endfacet
   facet normal -1.000000e+00 0.000000e+00 -0.000000e+00
      outer loop
         vertex -3.000000e+00 -1.500000e+01 -1.000000e+01
         vertex -3.000000e+00 -9.000000e+00 -5.000000e+00
         vertex -3.000000e+00 -8.649067e+00 -5.964181e+00
      endloop
   endfacet
   facet normal -1.000000e+00 0.000000e+00 0.000000e+00
      outer loop
         vertex -3.000000e+00 -8.649067e+00 -4.035819e+00
         vertex -3.000000e+00 -1.500000e+01 0.000000e+00
         vertex -3.000000e+00 -7.760472e+00 -3.522788e+00
      endloop
   endfacet
   facet normal -1.000000e+00 0.000000e+00 0.000000e+00
      outer loop
         vertex -3.000000e+00 -6.750000e+00 -3.700962e+00
         vertex -3.000000e+00 2.449294e-16 0.000000e+00
         vertex -3.000000e+00 -6.090461e+00 -4.486970e+00
      endloop
   endfacet
   facet normal -1.000000e+00 0.000000e+00 0.000000e+00
      outer loop
         vertex -3.000000e+00 2.449294e-16 0.000000e+00
         vertex -3.000000e+00 -6.090461e+00 -5.513030e+00
         vertex -3.000000e+00 -6.090461e+00 -4.486970e+00
      endloop
   endfacet
   facet normal -1.000000e+00 0.000000e+00 0.000000e+00
      outer loop
         vertex -3.000000e+00 -7.760472e+00 -6.477211e+00
         vertex -3.000000e+00 -1.500000e+01 -1.000000e+01
         vertex -3.000000e+00 -8.649067e+00 -5.964181e+00
      endloop
   endfacet
   facet normal 1.000000e+00 -4.040884e-18 -3.756630e-16
      outer loop
         vertex -1.776357e-15 0.000000e+00 -1.000000e+01
         vertex -4.133183e-16 -6.750000e+00 -6.299038e+00
         vertex -1.836970e-15 -1.500000e+01 -1.000000e+01
      endloop
   endfacet
   facet normal 1.000000e+00 1.086678e-17 -4.088944e-16
      outer loop
         vertex -4.133183e-16 -6.750000e+00 -6.299038e+00
         vertex -4.751919e-16 -7.760472e+00 -6.477211e+00
         vertex -1.836970e-15 -1.500000e+01 -1.000000e+01
      endloop
   endfacet
   facet normal 1.000000e+00 -2.058544e-16 0.000000e+00
      outer loop
         vertex -1.836970e-15 -1.500000e+01 -1.000000e+01
         vertex -5.296026e-16 -8.649067e+00 -5.964181e+00
         vertex -1.836970e-15 -1.500000e+01 5.000000e+00
      endloop
   endfacet
   facet normal 1.000000e+00 -3.105426e-15 -1.679559e-15
      outer loop
         vertex -5.296026e-16 -8.649067e+00 -5.964181e+00
         vertex 0.000000e+00 -9.000000e+00 -5.000000e+00
         vertex -1.836970e-15 -1.500000e+01 5.000000e+00
      endloop
   endfacet
   facet normal 1.000000e+00 -1.224647e-16 5.861147e-17
      outer loop
         vertex -1.836970e-15 -1.500000e+01 5.000000e+00
         vertex -5.296026e-16 -8.649067e+00 -4.035819e+00
         vertex 0.000000e+00 0.000000e+00 5.000000e+00
      endloop
   endfacet
   facet normal 1.000000e+00 -6.123226e-17 -7.123023e-23
      outer loop
         vertex -5.296026e-16 -8.649067e+00 -4.035819e+00
         vertex -4.751919e-16 -7.760472e+00 -3.522788e+00
         vertex 0.000000e+00 0.000000e+00 5.000000e+00
      endloop
   endfacet
   facet normal 1.000000e+00 9.141964e-17 -1.184238e-16
      outer loop
         vertex 0.000000e+00 0.000000e+00 5.000000e+00
         vertex -4.133183e-16 -6.750000e+00 -3.700962e+00
         vertex -1.776357e-15 0.000000e+00 -1.000000e+01
      endloop
   endfacet
   facet normal 1.000000e+00 1.151727e-15 1.017793e-15
      outer loop
         vertex -4.133183e-16 -6.750000e+00 -3.700962e+00
         vertex -3.729332e-16 -6.090461e+00 -4.486970e+00
         vertex -1.776357e-15 0.000000e+00 -1.000000e+01
      endloop
   endfacet
   facet normal 1.000000e+00 1.190083e-16 -1.512398e-16
      outer loop
         vertex -1.776357e-15 0.000000e+00 -1.000000e+01
         vertex -3.729332e-16 -6.090461e+00 -5.513030e+00
         vertex -4.133183e-16 -6.750000e+00 -6.299038e+00
      endloop
   endfacet
   facet normal 1.000000e+00 2.304298e-16 0.000000e+00
      outer loop
         vertex -3.729332e-16 -6.090461e+00 -5.513030e+00
         vertex -1.776357e-15 0.000000e+00 -1.000000e+01
         vertex -3.729332e-16 -6.090461e+00 -4.486970e+00
      endloop
   endfacet
   facet normal 1.000000e+00 -6.123234e-17 1.224238e-24
      outer loop
         vertex -4.133183e-16 -6.750000e+00 -3.700962e+00
         vertex 0.000000e+00 0.000000e+00 5.000000e+00
         vertex -4.751919e-16 -7.760472e+00 -3.522788e+00
      endloop
   endfacet
   facet normal 1.000000e+00 3.792441e-16 4.112435e-16
      outer loop
         vertex -5.296026e-16 -8.649067e+00 -4.035819e+00
         vertex -1.836970e-15 -1.500000e+01 5.000000e+00
         vertex 0.000000e+00 -9.000000e+00 -5.000000e+00
      endloop
   endfacet
   facet normal 1.000000e+00 -1.300782e-16 -1.192446e-16
      outer loop
         vertex -5.296026e-16 -8.649067e+00 -5.964181e+00
         vertex -1.836970e-15 -1.500000e+01 -1.000000e+01
         vertex -4.751919e-16 -7.760472e+00 -6.477211e+00
      endloop
   endfacet
   facet normal 0.000000e+00 9.396927e-01 -3.420199e-01
      outer loop
         vertex -3.000000e+00 -8.649067e+00 -4.035819e+00
         vertex 0.000000e+00 -8.649067e+00 -4.035819e+00
         vertex 0.000000e+00 -9.000000e+00 -5.000000e+00
      endloop
   endfacet
   facet normal 0.000000e+00 9.396927e-01 -3.420199e-01
      outer loop
         vertex -3.000000e+00 -9.000000e+00 -5.000000e+00
         vertex -3.000000e+00 -8.649067e+00 -4.035819e+00
         vertex 0.000000e+00 -9.000000e+00 -5.000000e+00
      endloop
   endfacet
   facet normal 0.000000e+00 5.000000e-01 -8.660254e-01
      outer loop
         vertex -3.000000e+00 -7.760472e+00 -3.522788e+00
         vertex 0.000000e+00 -7.760472e+00 -3.522788e+00
         vertex 0.000000e+00 -8.649067e+00 -4.035819e+00
      endloop
   endfacet
   facet normal 0.000000e+00 5.000000e-01 -8.660254e-01
      outer loop
         vertex -3.000000e+00 -8.649067e+00 -4.035819e+00
         vertex -3.000000e+00 -7.760472e+00 -3.522788e+00
         vertex 0.000000e+00 -8.649067e+00 -4.035819e+00
      endloop
   endfacet
   facet normal -0.000000e+00 -1.736482e-01 -9.848078e-01
      outer loop
         vertex -3.000000e+00 -6.750000e+00 -3.700962e+00
         vertex 0.000000e+00 -6.750000e+00 -3.700962e+00
         vertex 0.000000e+00 -7.760472e+00 -3.522788e+00
      endloop
   endfacet
   facet normal 0.000000e+00 -1.736482e-01 -9.848078e-01
      outer loop
         vertex -3.000000e+00 -7.760472e+00 -3.522788e+00
         vertex -3.000000e+00 -6.750000e+00 -3.700962e+00
         vertex 0.000000e+00 -7.760472e+00 -3.522788e+00
      endloop
   endfacet
   facet normal -0.000000e+00 -7.660446e-01 -6.427874e-01
      outer loop
         vertex -3.000000e+00 -6.090461e+00 -4.486970e+00
         vertex 0.000000e+00 -6.090461e+00 -4.486970e+00
         vertex 0.000000e+00 -6.750000e+00 -3.700962e+00
      endloop
   endfacet
   facet normal 0.000000e+00 -7.660446e-01 -6.427874e-01
      outer loop
         vertex -3.000000e+00 -6.750000e+00 -3.700962e+00
         vertex -3.000000e+00 -6.090461e+00 -4.486970e+00
         vertex 0.000000e+00 -6.750000e+00 -3.700962e+00
      endloop
   endfacet
   facet normal 0.000000e+00 -1.000000e+00 0.000000e+00
      outer loop
         vertex -3.000000e+00 -6.090461e+00 -5.513030e+00
         vertex 0.000000e+00 -6.090461e+00 -5.513030e+00
         vertex 0.000000e+00 -6.090461e+00 -4.486970e+00
      endloop
   endfacet
   facet normal 0.000000e+00 -1.000000e+00 0.000000e+00
      outer loop
         vertex -3.000000e+00 -6.090461e+00 -4.486970e+00
         vertex -3.000000e+00 -6.090461e+00 -5.513030e+00
         vertex 0.000000e+00 -6.090461e+00 -4.486970e+00
      endloop
   endfacet
   facet normal 0.000000e+00 -7.660445e-01 6.427875e-01
      outer loop
         vertex -3.000000e+00 -6.750000e+00 -6.299038e+00
         vertex 0.000000e+00 -6.750000e+00 -6.299038e+00
         vertex 0.000000e+00 -6.090461e+00 -5.513030e+00
      endloop
   endfacet
   facet normal 0.000000e+00 -7.660445e-01 6.427875e-01
      outer loop
         vertex -3.000000e+00 -6.090461e+00 -5.513030e+00
         vertex -3.000000e+00 -6.750000e+00 -6.299038e+00
         vertex 0.000000e+00 -6.090461e+00 -5.513030e+00
      endloop
   endfacet
   facet normal 0.000000e+00 -1.736482e-01 9.848078e-01
      outer loop
         vertex -3.000000e+00 -7.760472e+00 -6.477211e+00
         vertex 0.000000e+00 -7.760472e+00 -6.477211e+00
         vertex 0.000000e+00 -6.750000e+00 -6.299038e+00
      endloop
   endfacet
   facet normal 0.000000e+00 -1.736482e-01 9.848078e-01
      outer loop
         vertex -3.000000e+00 -6.750000e+00 -6.299038e+00
         vertex -3.000000e+00 -7.760472e+00 -6.477211e+00
         vertex 0.000000e+00 -6.750000e+00 -6.299038e+00
      endloop
   endfacet
   facet normal 0.000000e+00 4.999998e-01 8.660255e-01
      outer loop
         vertex -3.000000e+00 -8.649067e+00 -5.964181e+00
         vertex 0.000000e+00 -8.649067e+00 -5.964181e+00
         vertex 0.000000e+00 -7.760472e+00 -6.477211e+00
      endloop
   endfacet
   facet normal 0.000000e+00 4.999998e-01 8.660255e-01
      outer loop
         vertex -3.000000e+00 -7.760472e+00 -6.477211e+00
         vertex -3.000000e+00 -8.649067e+00 -5.964181e+00
         vertex 0.000000e+00 -7.760472e+00 -6.477211e+00
      endloop
   endfacet
   facet normal 0.000000e+00 9.396927e-01 3.420199e-01
      outer loop
         vertex -3.000000e+00 -9.000000e+00 -5.000000e+00
         vertex 0.000000e+00 -9.000000e+00 -5.000000e+00
         vertex 0.000000e+00 -8.649067e+00 -5.964181e+00
      endloop
   endfacet
   facet normal 0.000000e+00 9.396927e-01 3.420199e-01
      outer loop
         vertex -3.000000e+00 -8.649067e+00 -5.964181e+00
         vertex -3.000000e+00 -9.000000e+00 -5.000000e+00
         vertex 0.000000e+00 -8.649067e+00 -5.964181e+00
      endloop
   endfacet
   facet normal -0.000000e+00 0.000000e+00 -1.000000e+00
      outer loop
         vertex -4.000000e+01 4.898587e-15 0.000000e+00
         vertex -3.210313e+01 -6.148398e+00 0.000000e+00
         vertex -4.000000e+01 -1.500000e+01 0.000000e+00
      endloop
   endfacet
   facet normal -0.000000e+00 0.000000e+00 -1.000000e+00
      outer loop
         vertex -3.210313e+01 -6.148398e+00 0.000000e+00
         vertex -3.250000e+01 -7.500000e+00 0.000000e+00
         vertex -4.000000e+01 -1.500000e+01 0.000000e+00
      endloop
   endfacet
   facet normal 0.000000e+00 -0.000000e+00 -1.000000e+00
      outer loop
         vertex -4.000000e+01 -1.500000e+01 0.000000e+00
         vertex -3.103854e+01 -9.774080e+00 0.000000e+00
         vertex -3.000000e+00 -1.500000e+01 0.000000e+00
      endloop
   endfacet
   facet normal -0.000000e+00 -0.000000e+00 -1.000000e+00
      outer loop
         vertex -3.103854e+01 -9.774080e+00 0.000000e+00
         vertex -2.964421e+01 -9.974554e+00 0.000000e+00
         vertex -3.000000e+00 -1.500000e+01 0.000000e+00
      endloop
   endfacet
   facet normal 0.000000e+00 0.000000e+00 -1.000000e+00
      outer loop
         vertex -3.000000e+00 -1.500000e+01 0.000000e+00
         vertex -1.336285e+01 -9.389374e+00 0.000000e+00
         vertex -3.000000e+00 2.449294e-16 0.000000e+00
      endloop
   endfacet
   facet normal 0.000000e+00 -0.000000e+00 -1.000000e+00
      outer loop
         vertex -1.336285e+01 -9.389374e+00 0.000000e+00
         vertex -1.260127e+01 -8.204331e+00 0.000000e+00
         vertex -3.000000e+00 2.449294e-16 0.000000e+00
      endloop
   endfacet
   facet normal 0.000000e+00 0.000000e+00 -1.000000e+00
      outer loop
         vertex -3.000000e+00 2.449294e-16 0.000000e+00
         vertex -1.464421e+01 -5.025446e+00 0.000000e+00
         vertex -4.000000e+01 4.898587e-15 0.000000e+00
      endloop
   endfacet
   facet normal 0.000000e+00 0.000000e+00 -1.000000e+00
      outer loop
         vertex -1.464421e+01 -5.025446e+00 0.000000e+00
         vertex -1.603854e+01 -5.225920e+00 0.000000e+00
         vertex -4.000000e+01 4.898587e-15 0.000000e+00
      endloop
   endfacet
   facet normal -0.000000e+00 0.000000e+00 -1.000000e+00
      outer loop
         vertex -4.000000e+01 4.898587e-15 0.000000e+00
         vertex -2.964421e+01 -5.025446e+00 0.000000e+00
         vertex -3.103854e+01 -5.225920e+00 0.000000e+00
      endloop
   endfacet
   facet normal 0.000000e+00 0.000000e+00 -1.000000e+00
      outer loop
         vertex -2.964421e+01 -5.025446e+00 0.000000e+00
         vertex -4.000000e+01 4.898587e-15 0.000000e+00
         vertex -2.836285e+01 -5.610626e+00 0.000000e+00
      endloop
   endfacet
   facet normal -0.000000e+00 0.000000e+00 -1.000000e+00
      outer loop
         vertex -4.000000e+01 4.898587e-15 0.000000e+00
         vertex -1.603854e+01 -5.225920e+00 0.000000e+00
         vertex -2.836285e+01 -5.610626e+00 0.000000e+00
      endloop
   endfacet
   facet normal 0.000000e+00 0.000000e+00 -1.000000e+00
      outer loop
         vertex -2.836285e+01 -5.610626e+00 0.000000e+00
         vertex -1.603854e+01 -5.225920e+00 0.000000e+00
         vertex -2.760127e+01 -6.795669e+00 0.000000e+00
      endloop
   endfacet
   facet normal -0.000000e+00 0.000000e+00 -1.000000e+00
      outer loop
         vertex -1.603854e+01 -5.225920e+00 0.000000e+00
         vertex -1.710313e+01 -6.148398e+00 0.000000e+00
         vertex -2.760127e+01 -6.795669e+00 0.000000e+00
      endloop
   endfacet
   facet normal 0.000000e+00 0.000000e+00 -1.000000e+00
      outer loop
         vertex -2.760127e+01 -6.795669e+00 0.000000e+00
         vertex -1.710313e+01 -6.148398e+00 0.000000e+00
         vertex -2.760127e+01 -8.204331e+00 0.000000e+00
      endloop
   endfacet
   facet normal -0.000000e+00 0.000000e+00 -1.000000e+00
      outer loop
         vertex -1.710313e+01 -6.148398e+00 0.000000e+00
         vertex -1.750000e+01 -7.500000e+00 0.000000e+00
         vertex -2.760127e+01 -8.204331e+00 0.000000e+00
      endloop
   endfacet
   facet normal 0.000000e+00 0.000000e+00 -1.000000e+00
      outer loop
         vertex -2.760127e+01 -8.204331e+00 0.000000e+00
         vertex -1.750000e+01 -7.500000e+00 0.000000e+00
         vertex -2.836285e+01 -9.389374e+00 0.000000e+00
      endloop
   endfacet
   facet normal -0.000000e+00 0.000000e+00 -1.000000e+00
      outer loop
         vertex -1.750000e+01 -7.500000e+00 0.000000e+00
         vertex -1.710313e+01 -8.851602e+00 0.000000e+00
         vertex -2.836285e+01 -9.389374e+00 0.000000e+00
      endloop
   endfacet
   facet normal 0.000000e+00 0.000000e+00 -1.000000e+00
      outer loop
         vertex -2.836285e+01 -9.389374e+00 0.000000e+00
         vertex -1.710313e+01 -8.851602e+00 0.000000e+00
         vertex -2.964421e+01 -9.974554e+00 0.000000e+00
      endloop
   endfacet
   facet normal -0.000000e+00 0.000000e+00 -1.000000e+00
      outer loop
         vertex -1.710313e+01 -8.851602e+00 0.000000e+00
         vertex -1.603854e+01 -9.774080e+00 0.000000e+00
         vertex -2.964421e+01 -9.974554e+00 0.000000e+00
      endloop
   endfacet
   facet normal 0.000000e+00 -0.000000e+00 -1.000000e+00
      outer loop
         vertex -2.964421e+01 -9.974554e+00 0.000000e+00
         vertex -1.603854e+01 -9.774080e+00 0.000000e+00
         vertex -3.000000e+00 -1.500000e+01 0.000000e+00
      endloop
   endfacet
   facet normal -0.000000e+00 -0.000000e+00 -1.000000e+00
      outer loop
         vertex -1.603854e+01 -9.774080e+00 0.000000e+00
         vertex -1.464421e+01 -9.974554e+00 0.000000e+00
         vertex -3.000000e+00 -1.500000e+01 0.000000e+00
      endloop
   endfacet
   facet normal 0.000000e+00 0.000000e+00 -1.000000e+00
      outer loop
         vertex -1.464421e+01 -5.025446e+00 0.000000e+00
         vertex -3.000000e+00 2.449294e-16 0.000000e+00
         vertex -1.336285e+01 -5.610626e+00 0.000000e+00
      endloop
   endfacet
   facet normal 0.000000e+00 0.000000e+00 -1.000000e+00
      outer loop
         vertex -3.000000e+00 2.449294e-16 0.000000e+00
         vertex -1.260127e+01 -6.795669e+00 0.000000e+00
         vertex -1.336285e+01 -5.610626e+00 0.000000e+00
      endloop
   endfacet
   facet normal 0.000000e+00 0.000000e+00 -1.000000e+00
      outer loop
         vertex -1.260127e+01 -6.795669e+00 0.000000e+00
         vertex -3.000000e+00 2.449294e-16 0.000000e+00
         vertex -1.260127e+01 -8.204331e+00 0.000000e+00
      endloop
   endfacet
   facet normal 0.000000e+00 0.000000e+00 -1.000000e+00
      outer loop
         vertex -3.103854e+01 -9.774080e+00 0.000000e+00
         vertex -4.000000e+01 -1.500000e+01 0.000000e+00
         vertex -3.210313e+01 -8.851602e+00 0.000000e+00
      endloop
   endfacet
   facet normal 0.000000e+00 -0.000000e+00 -1.000000e+00
      outer loop
         vertex -4.000000e+01 -1.500000e+01 0.000000e+00
         vertex -3.250000e+01 -7.500000e+00 0.000000e+00
         vertex -3.210313e+01 -8.851602e+00 0.000000e+00
      endloop
   endfacet
   facet normal 0.000000e+00 0.000000e+00 -1.000000e+00
      outer loop
         vertex -1.336285e+01 -9.389374e+00 0.000000e+00
         vertex -3.000000e+00 -1.500000e+01 0.000000e+00
         vertex -1.464421e+01 -9.974554e+00 0.000000e+00
      endloop
   endfacet
   facet normal 0.000000e+00 0.000000e+00 -1.000000e+00
      outer loop
         vertex -3.210313e+01 -6.148398e+00 0.000000e+00
         vertex -4.000000e+01 4.898587e-15 0.000000e+00
         vertex -3.103854e+01 -5.225920e+00 0.000000e+00
      endloop
   endfacet
   facet normal 0.000000e+00 1.000000e+00 -2.449294e-17
      outer loop
         vertex -3.000000e+00 0.000000e+00 -1.000000e+01
         vertex -3.000000e+00 2.449294e-16 0.000000e+00
         vertex -1.776357e-15 0.000000e+00 -1.000000e+01
      endloop
   endfacet
   facet normal 1.257745e-16 1.000000e+00 0.000000e+00
      outer loop
         vertex -4.000000e+01 4.898587e-15 0.000000e+00
         vertex -4.000000e+01 4.898587e-15 5.000000e+00
         vertex -3.000000e+00 2.449294e-16 0.000000e+00
      endloop
   endfacet
   facet normal 1.224647e-16 1.000000e+00 -2.449293e-17
      outer loop
         vertex -4.000000e+01 4.898587e-15 5.000000e+00
         vertex 0.000000e+00 0.000000e+00 5.000000e+00
         vertex -3.000000e+00 2.449294e-16 0.000000e+00
      endloop
   endfacet
   facet normal 8.164312e-17 1.000000e+00 -9.668488e-33
      outer loop
         vertex 0.000000e+00 0.000000e+00 5.000000e+00
         vertex -1.776357e-15 0.000000e+00 -1.000000e+01
         vertex -3.000000e+00 2.449294e-16 0.000000e+00
      endloop
   endfacet
   facet normal 0.000000e+00 0.000000e+00 -1.000000e+00
      outer loop
         vertex -1.836970e-15 -1.500000e+01 -1.000000e+01
         vertex -3.000000e+00 -1.500000e+01 -1.000000e+01
         vertex -3.000000e+00 0.000000e+00 -1.000000e+01
      endloop
   endfacet
   facet normal 0.000000e+00 0.000000e+00 -1.000000e+00
      outer loop
         vertex -1.836970e-15 -1.500000e+01 -1.000000e+01
         vertex -3.000000e+00 0.000000e+00 -1.000000e+01
         vertex -1.776357e-15 0.000000e+00 -1.000000e+01
      endloop
   endfacet
   facet normal 0.000000e+00 -1.000000e+00 0.000000e+00
      outer loop
         vertex -4.000000e+01 -1.500000e+01 5.000000e+00
         vertex -4.000000e+01 -1.500000e+01 0.000000e+00
         vertex -1.836970e-15 -1.500000e+01 5.000000e+00
      endloop
   endfacet
   facet normal 0.000000e+00 -1.000000e+00 0.000000e+00
      outer loop
         vertex -4.000000e+01 -1.500000e+01 0.000000e+00
         vertex -3.000000e+00 -1.500000e+01 0.000000e+00
         vertex -1.836970e-15 -1.500000e+01 5.000000e+00
      endloop
   endfacet
   facet normal 0.000000e+00 -1.000000e+00 0.000000e+00
      outer loop
         vertex -1.836970e-15 -1.500000e+01 5.000000e+00
         vertex -3.000000e+00 -1.500000e+01 0.000000e+00
         vertex -1.836970e-15 -1.500000e+01 -1.000000e+01
      endloop
   endfacet
   facet normal 0.000000e+00 -1.000000e+00 0.000000e+00
      outer loop
         vertex -3.000000e+00 -1.500000e+01 0.000000e+00
         vertex -3.000000e+00 -1.500000e+01 -1.000000e+01
         vertex -1.836970e-15 -1.500000e+01 -1.000000e+01
      endloop
   endfacet
   facet normal 0.000000e+00 0.000000e+00 1.000000e+00
      outer loop
         vertex -1.836970e-15 -1.500000e+01 5.000000e+00
         vertex -1.464421e+01 -9.974554e+00 5.000000e+00
         vertex -4.000000e+01 -1.500000e+01 5.000000e+00
      endloop
   endfacet
   facet normal 0.000000e+00 0.000000e+00 1.000000e+00
      outer loop
         vertex -1.464421e+01 -9.974554e+00 5.000000e+00
         vertex -1.603854e+01 -9.774080e+00 5.000000e+00
         vertex -4.000000e+01 -1.500000e+01 5.000000e+00
      endloop
   endfacet
   facet normal 0.000000e+00 0.000000e+00 1.000000e+00
      outer loop
         vertex -4.000000e+01 -1.500000e+01 5.000000e+00
         vertex -3.210313e+01 -8.851602e+00 5.000000e+00
         vertex -4.000000e+01 4.898587e-15 5.000000e+00
      endloop
   endfacet
   facet normal 0.000000e+00 0.000000e+00 1.000000e+00
      outer loop
         vertex -3.210313e+01 -8.851602e+00 5.000000e+00
         vertex -3.250000e+01 -7.500000e+00 5.000000e+00
         vertex -4.000000e+01 4.898587e-15 5.000000e+00
      endloop
   endfacet
   facet normal 0.000000e+00 -0.000000e+00 1.000000e+00
      outer loop
         vertex -4.000000e+01 4.898587e-15 5.000000e+00
         vertex -3.103854e+01 -5.225920e+00 5.000000e+00
         vertex 0.000000e+00 0.000000e+00 5.000000e+00
      endloop
   endfacet
   facet normal 0.000000e+00 -0.000000e+00 1.000000e+00
      outer loop
         vertex -3.103854e+01 -5.225920e+00 5.000000e+00
         vertex -2.964421e+01 -5.025446e+00 5.000000e+00
         vertex 0.000000e+00 0.000000e+00 5.000000e+00
      endloop
   endfacet
   facet normal -0.000000e+00 0.000000e+00 1.000000e+00
      outer loop
         vertex 0.000000e+00 0.000000e+00 5.000000e+00
         vertex -1.336285e+01 -5.610626e+00 5.000000e+00
         vertex -1.836970e-15 -1.500000e+01 5.000000e+00
      endloop
   endfacet
   facet normal -0.000000e+00 -0.000000e+00 1.000000e+00
      outer loop
         vertex -1.336285e+01 -5.610626e+00 5.000000e+00
         vertex -1.260127e+01 -6.795669e+00 5.000000e+00
         vertex -1.836970e-15 -1.500000e+01 5.000000e+00
      endloop
   endfacet
   facet normal 0.000000e+00 0.000000e+00 1.000000e+00
      outer loop
         vertex -1.836970e-15 -1.500000e+01 5.000000e+00
         vertex -1.336285e+01 -9.389374e+00 5.000000e+00
         vertex -1.464421e+01 -9.974554e+00 5.000000e+00
      endloop
   endfacet
   facet normal 0.000000e+00 0.000000e+00 1.000000e+00
      outer loop
         vertex -1.336285e+01 -9.389374e+00 5.000000e+00
         vertex -1.836970e-15 -1.500000e+01 5.000000e+00
         vertex -1.260127e+01 -8.204331e+00 5.000000e+00
      endloop
   endfacet
   facet normal 0.000000e+00 0.000000e+00 1.000000e+00
      outer loop
         vertex -1.836970e-15 -1.500000e+01 5.000000e+00
         vertex -1.260127e+01 -6.795669e+00 5.000000e+00
         vertex -1.260127e+01 -8.204331e+00 5.000000e+00
      endloop
   endfacet
   facet normal 0.000000e+00 0.000000e+00 1.000000e+00
      outer loop
         vertex -1.336285e+01 -5.610626e+00 5.000000e+00
         vertex 0.000000e+00 0.000000e+00 5.000000e+00
         vertex -1.464421e+01 -5.025446e+00 5.000000e+00
      endloop
   endfacet
   facet normal 0.000000e+00 0.000000e+00 1.000000e+00
      outer loop
         vertex -1.464421e+01 -5.025446e+00 5.000000e+00
         vertex 0.000000e+00 0.000000e+00 5.000000e+00
         vertex -1.603854e+01 -5.225920e+00 5.000000e+00
      endloop
   endfacet
   facet normal -0.000000e+00 0.000000e+00 1.000000e+00
      outer loop
         vertex 0.000000e+00 0.000000e+00 5.000000e+00
         vertex -2.964421e+01 -5.025446e+00 5.000000e+00
         vertex -1.603854e+01 -5.225920e+00 5.000000e+00
      endloop
   endfacet
   facet normal 0.000000e+00 0.000000e+00 1.000000e+00
      outer loop
         vertex -1.603854e+01 -5.225920e+00 5.000000e+00
         vertex -2.964421e+01 -5.025446e+00 5.000000e+00
         vertex -1.710313e+01 -6.148398e+00 5.000000e+00
      endloop
   endfacet
   facet normal -0.000000e+00 -0.000000e+00 1.000000e+00
      outer loop
         vertex -2.964421e+01 -5.025446e+00 5.000000e+00
         vertex -2.836285e+01 -5.610626e+00 5.000000e+00
         vertex -1.710313e+01 -6.148398e+00 5.000000e+00
      endloop
   endfacet
   facet normal 0.000000e+00 0.000000e+00 1.000000e+00
      outer loop
         vertex -1.710313e+01 -6.148398e+00 5.000000e+00
         vertex -2.836285e+01 -5.610626e+00 5.000000e+00
         vertex -1.750000e+01 -7.500000e+00 5.000000e+00
      endloop
   endfacet
   facet normal -0.000000e+00 -0.000000e+00 1.000000e+00
      outer loop
         vertex -2.836285e+01 -5.610626e+00 5.000000e+00
         vertex -2.760127e+01 -6.795669e+00 5.000000e+00
         vertex -1.750000e+01 -7.500000e+00 5.000000e+00
      endloop
   endfacet
   facet normal 0.000000e+00 0.000000e+00 1.000000e+00
      outer loop
         vertex -1.750000e+01 -7.500000e+00 5.000000e+00
         vertex -2.760127e+01 -6.795669e+00 5.000000e+00
         vertex -1.710313e+01 -8.851602e+00 5.000000e+00
      endloop
   endfacet
   facet normal -0.000000e+00 0.000000e+00 1.000000e+00
      outer loop
         vertex -2.760127e+01 -6.795669e+00 5.000000e+00
         vertex -2.760127e+01 -8.204331e+00 5.000000e+00
         vertex -1.710313e+01 -8.851602e+00 5.000000e+00
      endloop
   endfacet
   facet normal 0.000000e+00 0.000000e+00 1.000000e+00
      outer loop
         vertex -1.710313e+01 -8.851602e+00 5.000000e+00
         vertex -2.760127e+01 -8.204331e+00 5.000000e+00
         vertex -1.603854e+01 -9.774080e+00 5.000000e+00
      endloop
   endfacet
   facet normal -0.000000e+00 0.000000e+00 1.000000e+00
      outer loop
         vertex -2.760127e+01 -8.204331e+00 5.000000e+00
         vertex -2.836285e+01 -9.389374e+00 5.000000e+00
         vertex -1.603854e+01 -9.774080e+00 5.000000e+00
      endloop
   endfacet
   facet normal 0.000000e+00 0.000000e+00 1.000000e+00
      outer loop
         vertex -1.603854e+01 -9.774080e+00 5.000000e+00
         vertex -2.836285e+01 -9.389374e+00 5.000000e+00
         vertex -4.000000e+01 -1.500000e+01 5.000000e+00
      endloop
   endfacet
   facet normal -0.000000e+00 0.000000e+00 1.000000e+00
      outer loop
         vertex -2.836285e+01 -9.389374e+00 5.000000e+00
         vertex -2.964421e+01 -9.974554e+00 5.000000e+00
         vertex -4.000000e+01 -1.500000e+01 5.000000e+00
      endloop
   endfacet
   facet normal 0.000000e+00 0.000000e+00 1.000000e+00
      outer loop
         vertex -4.000000e+01 -1.500000e+01 5.000000e+00
         vertex -2.964421e+01 -9.974554e+00 5.000000e+00
         vertex -3.103854e+01 -9.774080e+00 5.000000e+00
      endloop
   endfacet
   facet normal 0.000000e+00 0.000000e+00 1.000000e+00
      outer loop
         vertex -3.210313e+01 -8.851602e+00 5.000000e+00
         vertex -4.000000e+01 -1.500000e+01 5.000000e+00
         vertex -3.103854e+01 -9.774080e+00 5.000000e+00
      endloop
   endfacet
   facet normal 0.000000e+00 0.000000e+00 1.000000e+00
      outer loop
         vertex -3.103854e+01 -5.225920e+00 5.000000e+00
         vertex -4.000000e+01 4.898587e-15 5.000000e+00
         vertex -3.210313e+01 -6.148398e+00 5.000000e+00
      endloop
   endfacet
   facet normal 0.000000e+00 -0.000000e+00 1.000000e+00
      outer loop
         vertex -4.000000e+01 4.898587e-15 5.000000e+00
         vertex -3.250000e+01 -7.500000e+00 5.000000e+00
         vertex -3.210313e+01 -6.148398e+00 5.000000e+00
      endloop
   endfacet
   facet normal -1.000000e+00 0.000000e+00 0.000000e+00
      outer loop
         vertex -4.000000e+01 4.898587e-15 5.000000e+00
         vertex -4.000000e+01 4.898587e-15 0.000000e+00
         vertex -4.000000e+01 -1.500000e+01 0.000000e+00
      endloop
   endfacet
   facet normal -1.000000e+00 0.000000e+00 0.000000e+00
      outer loop
         vertex -4.000000e+01 4.898587e-15 5.000000e+00
         vertex -4.000000e+01 -1.500000e+01 0.000000e+00
         vertex -4.000000e+01 -1.500000e+01 5.000000e+00
      endloop
   endfacet
   facet normal 9.594930e-01 2.817324e-01 -0.000000e+00
      outer loop
         vertex -3.210313e+01 -8.851602e+00 5.000000e+00
         vertex -3.210313e+01 -8.851602e+00 0.000000e+00
         vertex -3.250000e+01 -7.500000e+00 0.000000e+00
      endloop
   endfacet
   facet normal 9.594930e-01 2.817324e-01 0.000000e+00
      outer loop
         vertex -3.250000e+01 -7.500000e+00 5.000000e+00
         vertex -3.210313e+01 -8.851602e+00 5.000000e+00
         vertex -3.250000e+01 -7.500000e+00 0.000000e+00
      endloop
   endfacet
   facet normal 6.548611e-01 7.557493e-01 -0.000000e+00
      outer loop
         vertex -3.103854e+01 -9.774080e+00 5.000000e+00
         vertex -3.103854e+01 -9.774080e+00 0.000000e+00
         vertex -3.210313e+01 -8.851602e+00 0.000000e+00
      endloop
   endfacet
   facet normal 6.548611e-01 7.557493e-01 0.000000e+00
      outer loop
         vertex -3.210313e+01 -8.851602e+00 5.000000e+00
         vertex -3.103854e+01 -9.774080e+00 5.000000e+00
         vertex -3.210313e+01 -8.851602e+00 0.000000e+00
      endloop
   endfacet
   facet normal 1.423149e-01 9.898214e-01 -0.000000e+00
      outer loop
         vertex -2.964421e+01 -9.974554e+00 5.000000e+00
         vertex -2.964421e+01 -9.974554e+00 0.000000e+00
         vertex -3.103854e+01 -9.774080e+00 0.000000e+00
      endloop
   endfacet
   facet normal 1.423149e-01 9.898214e-01 0.000000e+00
      outer loop
         vertex -3.103854e+01 -9.774080e+00 5.000000e+00
         vertex -2.964421e+01 -9.974554e+00 5.000000e+00
         vertex -3.103854e+01 -9.774080e+00 0.000000e+00
      endloop
   endfacet
   facet normal -4.154155e-01 9.096318e-01 0.000000e+00
      outer loop
         vertex -2.836285e+01 -9.389374e+00 5.000000e+00
         vertex -2.836285e+01 -9.389374e+00 0.000000e+00
         vertex -2.964421e+01 -9.974554e+00 0.000000e+00
      endloop
   endfacet
   facet normal -4.154155e-01 9.096318e-01 0.000000e+00
      outer loop
         vertex -2.964421e+01 -9.974554e+00 5.000000e+00
         vertex -2.836285e+01 -9.389374e+00 5.000000e+00
         vertex -2.964421e+01 -9.974554e+00 0.000000e+00
      endloop
   endfacet
   facet normal -8.412532e-01 5.406413e-01 0.000000e+00
      outer loop
         vertex -2.760127e+01 -8.204331e+00 5.000000e+00
         vertex -2.760127e+01 -8.204331e+00 0.000000e+00
         vertex -2.836285e+01 -9.389374e+00 0.000000e+00
      endloop
   endfacet
   facet normal -8.412532e-01 5.406413e-01 0.000000e+00
      outer loop
         vertex -2.836285e+01 -9.389374e+00 5.000000e+00
         vertex -2.760127e+01 -8.204331e+00 5.000000e+00
         vertex -2.836285e+01 -9.389374e+00 0.000000e+00
      endloop
   endfacet
   facet normal -1.000000e+00 0.000000e+00 0.000000e+00
      outer loop
         vertex -2.760127e+01 -6.795669e+00 5.000000e+00
         vertex -2.760127e+01 -6.795669e+00 0.000000e+00
         vertex -2.760127e+01 -8.204331e+00 0.000000e+00
      endloop
   endfacet
   facet normal -1.000000e+00 -0.000000e+00 0.000000e+00
      outer loop
         vertex -2.760127e+01 -8.204331e+00 5.000000e+00
         vertex -2.760127e+01 -6.795669e+00 5.000000e+00
         vertex -2.760127e+01 -8.204331e+00 0.000000e+00
      endloop
   endfacet
   facet normal -8.412532e-01 -5.406413e-01 0.000000e+00
      outer loop
         vertex -2.836285e+01 -5.610626e+00 5.000000e+00
         vertex -2.836285e+01 -5.610626e+00 0.000000e+00
         vertex -2.760127e+01 -6.795669e+00 0.000000e+00
      endloop
   endfacet
   facet normal -8.412532e-01 -5.406413e-01 0.000000e+00
      outer loop
         vertex -2.760127e+01 -6.795669e+00 5.000000e+00
         vertex -2.836285e+01 -5.610626e+00 5.000000e+00
         vertex -2.760127e+01 -6.795669e+00 0.000000e+00
      endloop
   endfacet
   facet normal -4.154152e-01 -9.096319e-01 0.000000e+00
      outer loop
         vertex -2.964421e+01 -5.025446e+00 5.000000e+00
         vertex -2.964421e+01 -5.025446e+00 0.000000e+00
         vertex -2.836285e+01 -5.610626e+00 0.000000e+00
      endloop
   endfacet
   facet normal -4.154152e-01 -9.096319e-01 0.000000e+00
      outer loop
         vertex -2.836285e+01 -5.610626e+00 5.000000e+00
         vertex -2.964421e+01 -5.025446e+00 5.000000e+00
         vertex -2.836285e+01 -5.610626e+00 0.000000e+00
      endloop
   endfacet
   facet normal 1.423149e-01 -9.898214e-01 0.000000e+00
      outer loop
         vertex -3.103854e+01 -5.225920e+00 5.000000e+00
         vertex -3.103854e+01 -5.225920e+00 0.000000e+00
         vertex -2.964421e+01 -5.025446e+00 0.000000e+00
      endloop
   endfacet
   facet normal 1.423149e-01 -9.898214e-01 0.000000e+00
      outer loop
         vertex -2.964421e+01 -5.025446e+00 5.000000e+00
         vertex -3.103854e+01 -5.225920e+00 5.000000e+00
         vertex -2.964421e+01 -5.025446e+00 0.000000e+00
      endloop
   endfacet
   facet normal 6.548607e-01 -7.557496e-01 0.000000e+00
      outer loop
         vertex -3.210313e+01 -6.148398e+00 5.000000e+00
         vertex -3.210313e+01 -6.148398e+00 0.000000e+00
         vertex -3.103854e+01 -5.225920e+00 0.000000e+00
      endloop
   endfacet
   facet normal 6.548607e-01 -7.557496e-01 0.000000e+00
      outer loop
         vertex -3.103854e+01 -5.225920e+00 5.000000e+00
         vertex -3.210313e+01 -6.148398e+00 5.000000e+00
         vertex -3.103854e+01 -5.225920e+00 0.000000e+00
      endloop
   endfacet
   facet normal 9.594930e-01 -2.817323e-01 0.000000e+00
      outer loop
         vertex -3.250000e+01 -7.500000e+00 5.000000e+00
         vertex -3.250000e+01 -7.500000e+00 0.000000e+00
         vertex -3.210313e+01 -6.148398e+00 0.000000e+00
      endloop
   endfacet
   facet normal 9.594930e-01 -2.817323e-01 0.000000e+00
      outer loop
         vertex -3.210313e+01 -6.148398e+00 5.000000e+00
         vertex -3.250000e+01 -7.500000e+00 5.000000e+00
         vertex -3.210313e+01 -6.148398e+00 0.000000e+00
      endloop
   endfacet
   facet normal 9.594930e-01 2.817324e-01 -0.000000e+00
      outer loop
         vertex -1.710313e+01 -8.851602e+00 5.000000e+00
         vertex -1.710313e+01 -8.851602e+00 0.000000e+00
         vertex -1.750000e+01 -7.500000e+00 0.000000e+00
      endloop
   endfacet
   facet normal 9.594930e-01 2.817324e-01 0.000000e+00
      outer loop
         vertex -1.750000e+01 -7.500000e+00 5.000000e+00
         vertex -1.710313e+01 -8.851602e+00 5.000000e+00
         vertex -1.750000e+01 -7.500000e+00 0.000000e+00
      endloop
   endfacet
   facet normal 6.548611e-01 7.557493e-01 -0.000000e+00
      outer loop
         vertex -1.603854e+01 -9.774080e+00 5.000000e+00
         vertex -1.603854e+01 -9.774080e+00 0.000000e+00
         vertex -1.710313e+01 -8.851602e+00 0.000000e+00
      endloop
   endfacet
   facet normal 6.548611e-01 7.557493e-01 0.000000e+00
      outer loop
         vertex -1.710313e+01 -8.851602e+00 5.000000e+00
         vertex -1.603854e+01 -9.774080e+00 5.000000e+00
         vertex -1.710313e+01 -8.851602e+00 0.000000e+00
      endloop
   endfacet
   facet normal 1.423149e-01 9.898214e-01 -0.000000e+00
      outer loop
         vertex -1.464421e+01 -9.974554e+00 5.000000e+00
         vertex -1.464421e+01 -9.974554e+00 0.000000e+00
         vertex -1.603854e+01 -9.774080e+00 0.000000e+00
      endloop
   endfacet
   facet normal 1.423149e-01 9.898214e-01 0.000000e+00
      outer loop
         vertex -1.603854e+01 -9.774080e+00 5.000000e+00
         vertex -1.464421e+01 -9.974554e+00 5.000000e+00
         vertex -1.603854e+01 -9.774080e+00 0.000000e+00
      endloop
   endfacet
   facet normal -4.154155e-01 9.096318e-01 0.000000e+00
      outer loop
         vertex -1.336285e+01 -9.389374e+00 5.000000e+00
         vertex -1.336285e+01 -9.389374e+00 0.000000e+00
         vertex -1.464421e+01 -9.974554e+00 0.000000e+00
      endloop
   endfacet
   facet normal -4.154155e-01 9.096318e-01 0.000000e+00
      outer loop
         vertex -1.464421e+01 -9.974554e+00 5.000000e+00
         vertex -1.336285e+01 -9.389374e+00 5.000000e+00
         vertex -1.464421e+01 -9.974554e+00 0.000000e+00
      endloop
   endfacet
   facet normal -8.412535e-01 5.406408e-01 0.000000e+00
      outer loop
         vertex -1.260127e+01 -8.204331e+00 5.000000e+00
         vertex -1.260127e+01 -8.204331e+00 0.000000e+00
         vertex -1.336285e+01 -9.389374e+00 0.000000e+00
      endloop
   endfacet
   facet normal -8.412535e-01 5.406408e-01 0.000000e+00
      outer loop
         vertex -1.336285e+01 -9.389374e+00 5.000000e+00
         vertex -1.260127e+01 -8.204331e+00 5.000000e+00
         vertex -1.336285e+01 -9.389374e+00 0.000000e+00
      endloop
   endfacet
   facet normal -1.000000e+00 0.000000e+00 0.000000e+00
      outer loop
         vertex -1.260127e+01 -6.795669e+00 5.000000e+00
         vertex -1.260127e+01 -6.795669e+00 0.000000e+00
         vertex -1.260127e+01 -8.204331e+00 0.000000e+00
      endloop
   endfacet
   facet normal -1.000000e+00 -0.000000e+00 0.000000e+00
      outer loop
         vertex -1.260127e+01 -8.204331e+00 5.000000e+00
         vertex -1.260127e+01 -6.795669e+00 5.000000e+00
         vertex -1.260127e+01 -8.204331e+00 0.000000e+00
      endloop
   endfacet
   facet normal -8.412535e-01 -5.406408e-01 0.000000e+00
      outer loop
         vertex -1.336285e+01 -5.610626e+00 5.000000e+00
         vertex -1.336285e+01 -5.610626e+00 0.000000e+00
         vertex -1.260127e+01 -6.795669e+00 0.000000e+00
      endloop
   endfacet
   facet normal -8.412535e-01 -5.406408e-01 0.000000e+00
      outer loop
         vertex -1.260127e+01 -6.795669e+00 5.000000e+00
         vertex -1.336285e+01 -5.610626e+00 5.000000e+00
         vertex -1.260127e+01 -6.795669e+00 0.000000e+00
      endloop
   endfacet
   facet normal -4.154152e-01 -9.096319e-01 0.000000e+00
      outer loop
         vertex -1.464421e+01 -5.025446e+00 5.000000e+00
         vertex -1.464421e+01 -5.025446e+00 0.000000e+00
         vertex -1.336285e+01 -5.610626e+00 0.000000e+00
      endloop
   endfacet
   facet normal -4.154152e-01 -9.096319e-01 0.000000e+00
      outer loop
         vertex -1.336285e+01 -5.610626e+00 5.000000e+00
         vertex -1.464421e+01 -5.025446e+00 5.000000e+00
         vertex -1.336285e+01 -5.610626e+00 0.000000e+00
      endloop
   endfacet
   facet normal 1.423149e-01 -9.898214e-01 0.000000e+00
      outer loop
         vertex -1.603854e+01 -5.225920e+00 5.000000e+00
         vertex -1.603854e+01 -5.225920e+00 0.000000e+00
         vertex -1.464421e+01 -5.025446e+00 0.000000e+00
      endloop
   endfacet
   facet normal 1.423149e-01 -9.898214e-01 0.000000e+00
      outer loop
         vertex -1.464421e+01 -5.025446e+00 5.000000e+00
         vertex -1.603854e+01 -5.225920e+00 5.000000e+00
         vertex -1.464421e+01 -5.025446e+00 0.000000e+00
      endloop
   endfacet
   facet normal 6.548607e-01 -7.557496e-01 0.000000e+00
      outer loop
         vertex -1.710313e+01 -6.148398e+00 5.000000e+00
         vertex -1.710313e+01 -6.148398e+00 0.000000e+00
         vertex -1.603854e+01 -5.225920e+00 0.000000e+00
      endloop
   endfacet
   facet normal 6.548607e-01 -7.557496e-01 0.000000e+00
      outer loop
         vertex -1.603854e+01 -5.225920e+00 5.000000e+00
         vertex -1.710313e+01 -6.148398e+00 5.000000e+00
         vertex -1.603854e+01 -5.225920e+00 0.000000e+00
      endloop
   endfacet
   facet normal 9.594930e-01 -2.817323e-01 0.000000e+00
      outer loop
         vertex -1.750000e+01 -7.500000e+00 5.000000e+00
         vertex -1.750000e+01 -7.500000e+00 0.000000e+00
         vertex -1.710313e+01 -6.148398e+00 0.000000e+00
      endloop
   endfacet
   facet normal 9.594930e-01 -2.817323e-01 0.000000e+00
      outer loop
         vertex -1.710313e+01 -6.148398e+00 5.000000e+00
         vertex -1.750000e+01 -7.500000e+00 5.000000e+00
         vertex -1.710313e+01 -6.148398e+00 0.000000e+00
      endloop
   endfacet
endsolid
