solid 
   facet normal -0.000000e+00 0.000000e+00 1.000000e+00
      outer loop
         vertex 2.019204e+01 4.307166e+00 3.000000e+00
         vertex 1.069204e+01 1.107166e+00 3.000000e+00
         vertex 2.019204e+01 -1.769283e+01 3.000000e+00
      endloop
   endfacet
   facet normal -0.000000e+00 -0.000000e+00 1.000000e+00
      outer loop
         vertex 1.069204e+01 1.107166e+00 3.000000e+00
         vertex 1.555954e+01 -9.513732e+00 3.000000e+00
         vertex 2.019204e+01 -1.769283e+01 3.000000e+00
      endloop
   endfacet
   facet normal 0.000000e+00 0.000000e+00 1.000000e+00
      outer loop
         vertex 2.019204e+01 -1.769283e+01 3.000000e+00
         vertex 1.490000e+01 -1.132580e+01 3.000000e+00
         vertex -1.980796e+01 -1.769283e+01 3.000000e+00
      endloop
   endfacet
   facet normal -0.000000e+00 0.000000e+00 1.000000e+00
      outer loop
         vertex 1.490000e+01 -1.132580e+01 3.000000e+00
         vertex 1.388953e+01 -1.150397e+01 3.000000e+00
         vertex -1.980796e+01 -1.769283e+01 3.000000e+00
      endloop
   endfacet
   facet normal 0.000000e+00 0.000000e+00 1.000000e+00
      outer loop
         vertex -1.980796e+01 -1.769283e+01 3.000000e+00
         vertex -1.565000e+01 -1.002676e+01 3.000000e+00
         vertex -1.980796e+01 4.307166e+00 3.000000e+00
      endloop
   endfacet
   facet normal 0.000000e+00 0.000000e+00 1.000000e+00
      outer loop
         vertex -1.565000e+01 -1.002676e+01 3.000000e+00
         vertex -1.529907e+01 -9.062580e+00 3.000000e+00
         vertex -1.980796e+01 4.307166e+00 3.000000e+00
      endloop
   endfacet
   facet normal 0.000000e+00 -0.000000e+00 1.000000e+00
      outer loop
         vertex -1.980796e+01 4.307166e+00 3.000000e+00
         vertex -1.230796e+01 1.107166e+00 3.000000e+00
         vertex 2.019204e+01 4.307166e+00 3.000000e+00
      endloop
   endfacet
   facet normal 0.000000e+00 -0.000000e+00 1.000000e+00
      outer loop
         vertex -1.230796e+01 1.107166e+00 3.000000e+00
         vertex 1.069204e+01 1.107166e+00 3.000000e+00
         vertex 2.019204e+01 4.307166e+00 3.000000e+00
      endloop
   endfacet
   facet normal 0.000000e+00 0.000000e+00 1.000000e+00
      outer loop
         vertex 1.490000e+01 -1.132580e+01 3.000000e+00
         vertex 2.019204e+01 -1.769283e+01 3.000000e+00
         vertex 1.555954e+01 -1.053979e+01 3.000000e+00
      endloop
   endfacet
   facet normal 0.000000e+00 0.000000e+00 1.000000e+00
      outer loop
         vertex 2.019204e+01 -1.769283e+01 3.000000e+00
         vertex 1.555954e+01 -9.513732e+00 3.000000e+00
         vertex 1.555954e+01 -1.053979e+01 3.000000e+00
      endloop
   endfacet
   facet normal 0.000000e+00 0.000000e+00 1.000000e+00
      outer loop
         vertex -1.565000e+01 -1.002676e+01 3.000000e+00
         vertex -1.980796e+01 -1.769283e+01 3.000000e+00
         vertex -1.529907e+01 -1.099094e+01 3.000000e+00
      endloop
   endfacet
   facet normal 0.000000e+00 0.000000e+00 1.000000e+00
      outer loop
         vertex -1.980796e+01 -1.769283e+01 3.000000e+00
         vertex -1.441047e+01 -1.150397e+01 3.000000e+00
         vertex -1.529907e+01 -1.099094e+01 3.000000e+00
      endloop
   endfacet
   facet normal 0.000000e+00 0.000000e+00 1.000000e+00
      outer loop
         vertex -1.230796e+01 1.107166e+00 3.000000e+00
         vertex -1.980796e+01 4.307166e+00 3.000000e+00
         vertex -1.230796e+01 -1.892834e+00 3.000000e+00
      endloop
   endfacet
   facet normal 0.000000e+00 -0.000000e+00 1.000000e+00
      outer loop
         vertex -1.980796e+01 4.307166e+00 3.000000e+00
         vertex -1.529907e+01 -9.062580e+00 3.000000e+00
         vertex -1.230796e+01 -1.892834e+00 3.000000e+00
      endloop
   endfacet
   facet normal 0.000000e+00 0.000000e+00 1.000000e+00
      outer loop
         vertex -1.230796e+01 -1.892834e+00 3.000000e+00
         vertex -1.441047e+01 -8.549550e+00 3.000000e+00
         vertex 1.069204e+01 -1.892834e+00 3.000000e+00
      endloop
   endfacet
   facet normal 0.000000e+00 -0.000000e+00 1.000000e+00
      outer loop
         vertex -1.441047e+01 -8.549550e+00 3.000000e+00
         vertex -1.340000e+01 -8.727724e+00 3.000000e+00
         vertex 1.069204e+01 -1.892834e+00 3.000000e+00
      endloop
   endfacet
   facet normal 0.000000e+00 -0.000000e+00 1.000000e+00
      outer loop
         vertex -1.340000e+01 -8.727724e+00 3.000000e+00
         vertex -1.274046e+01 -9.513732e+00 3.000000e+00
         vertex 1.069204e+01 -1.892834e+00 3.000000e+00
      endloop
   endfacet
   facet normal 0.000000e+00 0.000000e+00 1.000000e+00
      outer loop
         vertex -1.274046e+01 -9.513732e+00 3.000000e+00
         vertex -1.274046e+01 -1.053979e+01 3.000000e+00
         vertex 1.069204e+01 -1.892834e+00 3.000000e+00
      endloop
   endfacet
   facet normal 0.000000e+00 0.000000e+00 1.000000e+00
      outer loop
         vertex -1.274046e+01 -1.053979e+01 3.000000e+00
         vertex -1.340000e+01 -1.132580e+01 3.000000e+00
         vertex 1.069204e+01 -1.892834e+00 3.000000e+00
      endloop
   endfacet
   facet normal 0.000000e+00 0.000000e+00 1.000000e+00
      outer loop
         vertex -1.441047e+01 -1.150397e+01 3.000000e+00
         vertex -1.980796e+01 -1.769283e+01 3.000000e+00
         vertex -1.340000e+01 -1.132580e+01 3.000000e+00
      endloop
   endfacet
   facet normal 0.000000e+00 0.000000e+00 1.000000e+00
      outer loop
         vertex -1.340000e+01 -1.132580e+01 3.000000e+00
         vertex -1.980796e+01 -1.769283e+01 3.000000e+00
         vertex 1.069204e+01 -1.892834e+00 3.000000e+00
      endloop
   endfacet
   facet normal 0.000000e+00 0.000000e+00 1.000000e+00
      outer loop
         vertex -1.980796e+01 -1.769283e+01 3.000000e+00
         vertex 1.265000e+01 -1.002676e+01 3.000000e+00
         vertex 1.069204e+01 -1.892834e+00 3.000000e+00
      endloop
   endfacet
   facet normal 0.000000e+00 0.000000e+00 1.000000e+00
      outer loop
         vertex 1.069204e+01 -1.892834e+00 3.000000e+00
         vertex 1.265000e+01 -1.002676e+01 3.000000e+00
         vertex 1.069204e+01 1.107166e+00 3.000000e+00
      endloop
   endfacet
   facet normal 0.000000e+00 0.000000e+00 1.000000e+00
      outer loop
         vertex 1.265000e+01 -1.002676e+01 3.000000e+00
         vertex 1.300093e+01 -9.062580e+00 3.000000e+00
         vertex 1.069204e+01 1.107166e+00 3.000000e+00
      endloop
   endfacet
   facet normal -0.000000e+00 -0.000000e+00 1.000000e+00
      outer loop
         vertex 1.069204e+01 1.107166e+00 3.000000e+00
         vertex 1.490000e+01 -8.727724e+00 3.000000e+00
         vertex 1.555954e+01 -9.513732e+00 3.000000e+00
      endloop
   endfacet
   facet normal 0.000000e+00 0.000000e+00 1.000000e+00
      outer loop
         vertex -1.441047e+01 -8.549550e+00 3.000000e+00
         vertex -1.230796e+01 -1.892834e+00 3.000000e+00
         vertex -1.529907e+01 -9.062580e+00 3.000000e+00
      endloop
   endfacet
   facet normal 0.000000e+00 0.000000e+00 1.000000e+00
      outer loop
         vertex 1.265000e+01 -1.002676e+01 3.000000e+00
         vertex -1.980796e+01 -1.769283e+01 3.000000e+00
         vertex 1.300093e+01 -1.099094e+01 3.000000e+00
      endloop
   endfacet
   facet normal 0.000000e+00 0.000000e+00 1.000000e+00
      outer loop
         vertex -1.980796e+01 -1.769283e+01 3.000000e+00
         vertex 1.388953e+01 -1.150397e+01 3.000000e+00
         vertex 1.300093e+01 -1.099094e+01 3.000000e+00
      endloop
   endfacet
   facet normal 0.000000e+00 0.000000e+00 1.000000e+00
      outer loop
         vertex 1.490000e+01 -8.727724e+00 3.000000e+00
         vertex 1.069204e+01 1.107166e+00 3.000000e+00
         vertex 1.388953e+01 -8.549550e+00 3.000000e+00
      endloop
   endfacet
   facet normal 0.000000e+00 -0.000000e+00 1.000000e+00
      outer loop
         vertex 1.069204e+01 1.107166e+00 3.000000e+00
         vertex 1.300093e+01 -9.062580e+00 3.000000e+00
         vertex 1.388953e+01 -8.549550e+00 3.000000e+00
      endloop
   endfacet
   facet normal 0.000000e+00 7.175620e-17 -1.000000e+00
      outer loop
         vertex -1.980796e+01 -1.769283e+01 0.000000e+00
         vertex -1.441047e+01 -1.150397e+01 4.440892e-16
         vertex 2.019204e+01 -1.769283e+01 0.000000e+00
      endloop
   endfacet
   facet normal 2.149369e-16 1.273489e-15 -1.000000e+00
      outer loop
         vertex -1.441047e+01 -1.150397e+01 4.440892e-16
         vertex -1.340000e+01 -1.132580e+01 8.881784e-16
         vertex 2.019204e+01 -1.769283e+01 0.000000e+00
      endloop
   endfacet
   facet normal -9.586386e-17 0.000000e+00 -1.000000e+00
      outer loop
         vertex 2.019204e+01 -1.769283e+01 0.000000e+00
         vertex 1.555954e+01 -1.053979e+01 4.440892e-16
         vertex 2.019204e+01 4.307166e+00 0.000000e+00
      endloop
   endfacet
   facet normal -9.586386e-17 -0.000000e+00 -1.000000e+00
      outer loop
         vertex 1.555954e+01 -1.053979e+01 4.440892e-16
         vertex 1.555954e+01 -9.513732e+00 4.440892e-16
         vertex 2.019204e+01 4.307166e+00 0.000000e+00
      endloop
   endfacet
   facet normal 0.000000e+00 0.000000e+00 -1.000000e+00
      outer loop
         vertex 2.019204e+01 4.307166e+00 0.000000e+00
         vertex 1.069204e+01 1.107166e+00 0.000000e+00
         vertex -1.980796e+01 4.307166e+00 0.000000e+00
      endloop
   endfacet
   facet normal 0.000000e+00 0.000000e+00 -1.000000e+00
      outer loop
         vertex 1.069204e+01 1.107166e+00 0.000000e+00
         vertex -1.230796e+01 1.107166e+00 0.000000e+00
         vertex -1.980796e+01 4.307166e+00 0.000000e+00
      endloop
   endfacet
   facet normal -0.000000e+00 0.000000e+00 -1.000000e+00
      outer loop
         vertex -1.980796e+01 4.307166e+00 0.000000e+00
         vertex -1.230796e+01 1.107166e+00 0.000000e+00
         vertex -1.980796e+01 -1.769283e+01 0.000000e+00
      endloop
   endfacet
   facet normal 7.421224e-16 -2.960595e-16 -1.000000e+00
      outer loop
         vertex -1.230796e+01 1.107166e+00 0.000000e+00
         vertex -1.230796e+01 -1.892834e+00 8.881784e-16
         vertex -1.980796e+01 -1.769283e+01 0.000000e+00
      endloop
   endfacet
   facet normal 3.599505e-16 -2.421673e-16 -1.000000e+00
      outer loop
         vertex -1.980796e+01 -1.769283e+01 0.000000e+00
         vertex -1.529907e+01 -1.099094e+01 0.000000e+00
         vertex -1.441047e+01 -1.150397e+01 4.440892e-16
      endloop
   endfacet
   facet normal -4.217839e-16 -2.110744e-16 -1.000000e+00
      outer loop
         vertex 1.555954e+01 -1.053979e+01 4.440892e-16
         vertex 2.019204e+01 -1.769283e+01 0.000000e+00
         vertex 1.490000e+01 -1.132580e+01 8.881784e-16
      endloop
   endfacet
   facet normal 3.230918e-15 -1.636543e-15 -1.000000e+00
      outer loop
         vertex -1.565000e+01 -1.002676e+01 8.881784e-16
         vertex -1.980796e+01 -1.769283e+01 0.000000e+00
         vertex -1.529907e+01 -9.062580e+00 4.440892e-16
      endloop
   endfacet
   facet normal -9.957493e-17 1.034804e-16 -1.000000e+00
      outer loop
         vertex -1.980796e+01 -1.769283e+01 0.000000e+00
         vertex -1.230796e+01 -1.892834e+00 8.881784e-16
         vertex -1.529907e+01 -9.062580e+00 4.440892e-16
      endloop
   endfacet
   facet normal -4.710688e-17 8.159156e-17 -1.000000e+00
      outer loop
         vertex -1.529907e+01 -9.062580e+00 4.440892e-16
         vertex -1.230796e+01 -1.892834e+00 8.881784e-16
         vertex -1.441047e+01 -8.549550e+00 4.440892e-16
      endloop
   endfacet
   facet normal -3.861645e-17 7.890988e-17 -1.000000e+00
      outer loop
         vertex -1.230796e+01 -1.892834e+00 8.881784e-16
         vertex 1.069204e+01 -1.892834e+00 0.000000e+00
         vertex -1.441047e+01 -8.549550e+00 4.440892e-16
      endloop
   endfacet
   facet normal -7.065351e-18 -4.006948e-17 -1.000000e+00
      outer loop
         vertex -1.441047e+01 -8.549550e+00 4.440892e-16
         vertex 1.069204e+01 -1.892834e+00 0.000000e+00
         vertex -1.340000e+01 -8.727724e+00 4.440892e-16
      endloop
   endfacet
   facet normal 0.000000e+00 0.000000e+00 -1.000000e+00
      outer loop
         vertex 1.069204e+01 1.107166e+00 0.000000e+00
         vertex 2.019204e+01 4.307166e+00 0.000000e+00
         vertex 1.069204e+01 -1.892834e+00 0.000000e+00
      endloop
   endfacet
   facet normal 2.684181e-17 -4.112858e-17 -1.000000e+00
      outer loop
         vertex 2.019204e+01 4.307166e+00 0.000000e+00
         vertex 1.555954e+01 -9.513732e+00 4.440892e-16
         vertex 1.069204e+01 -1.892834e+00 0.000000e+00
      endloop
   endfacet
   facet normal -2.907876e-16 -2.439999e-16 -1.000000e+00
      outer loop
         vertex 1.555954e+01 -9.513732e+00 4.440892e-16
         vertex 1.490000e+01 -8.727724e+00 4.440892e-16
         vertex 1.069204e+01 -1.892834e+00 0.000000e+00
      endloop
   endfacet
   facet normal 4.342088e-19 -6.650439e-17 -1.000000e+00
      outer loop
         vertex 1.069204e+01 -1.892834e+00 0.000000e+00
         vertex 1.388953e+01 -8.549550e+00 4.440892e-16
         vertex -1.340000e+01 -8.727724e+00 4.440892e-16
      endloop
   endfacet
   facet normal 0.000000e+00 0.000000e+00 -1.000000e+00
      outer loop
         vertex 1.388953e+01 -8.549550e+00 4.440892e-16
         vertex 1.300093e+01 -9.062580e+00 4.440892e-16
         vertex -1.340000e+01 -8.727724e+00 4.440892e-16
      endloop
   endfacet
   facet normal -0.000000e+00 0.000000e+00 -1.000000e+00
      outer loop
         vertex -1.340000e+01 -8.727724e+00 4.440892e-16
         vertex 1.300093e+01 -9.062580e+00 4.440892e-16
         vertex -1.274046e+01 -9.513732e+00 4.440892e-16
      endloop
   endfacet
   facet normal 8.124211e-18 -4.635435e-16 -1.000000e+00
      outer loop
         vertex 1.300093e+01 -9.062580e+00 4.440892e-16
         vertex 1.265000e+01 -1.002676e+01 8.881784e-16
         vertex -1.274046e+01 -9.513732e+00 4.440892e-16
      endloop
   endfacet
   facet normal 1.749040e-17 0.000000e+00 -1.000000e+00
      outer loop
         vertex -1.274046e+01 -9.513732e+00 4.440892e-16
         vertex 1.265000e+01 -1.002676e+01 8.881784e-16
         vertex -1.274046e+01 -1.053979e+01 4.440892e-16
      endloop
   endfacet
   facet normal -1.114303e-18 9.207684e-16 -1.000000e+00
      outer loop
         vertex 1.265000e+01 -1.002676e+01 8.881784e-16
         vertex 1.300093e+01 -1.099094e+01 0.000000e+00
         vertex -1.274046e+01 -1.053979e+01 4.440892e-16
      endloop
   endfacet
   facet normal -2.676063e-17 -5.425385e-16 -1.000000e+00
      outer loop
         vertex -1.274046e+01 -1.053979e+01 4.440892e-16
         vertex 1.300093e+01 -1.099094e+01 0.000000e+00
         vertex -1.340000e+01 -1.132580e+01 8.881784e-16
      endloop
   endfacet
   facet normal -2.217565e-17 -9.040296e-16 -1.000000e+00
      outer loop
         vertex 1.300093e+01 -1.099094e+01 0.000000e+00
         vertex 1.388953e+01 -1.150397e+01 4.440892e-16
         vertex -1.340000e+01 -1.132580e+01 8.881784e-16
      endloop
   endfacet
   facet normal -1.591054e-17 5.555349e-17 -1.000000e+00
      outer loop
         vertex -1.340000e+01 -1.132580e+01 8.881784e-16
         vertex 1.388953e+01 -1.150397e+01 4.440892e-16
         vertex 2.019204e+01 -1.769283e+01 0.000000e+00
      endloop
   endfacet
   facet normal 3.618575e-16 4.402586e-16 -1.000000e+00
      outer loop
         vertex 1.388953e+01 -1.150397e+01 4.440892e-16
         vertex 1.490000e+01 -1.132580e+01 8.881784e-16
         vertex 2.019204e+01 -1.769283e+01 0.000000e+00
      endloop
   endfacet
   facet normal -1.285184e-17 -7.288621e-17 -1.000000e+00
      outer loop
         vertex 1.388953e+01 -8.549550e+00 4.440892e-16
         vertex 1.069204e+01 -1.892834e+00 0.000000e+00
         vertex 1.490000e+01 -8.727724e+00 4.440892e-16
      endloop
   endfacet
   facet normal -8.885211e-16 5.977788e-16 -1.000000e+00
      outer loop
         vertex -1.529907e+01 -1.099094e+01 0.000000e+00
         vertex -1.980796e+01 -1.769283e+01 0.000000e+00
         vertex -1.565000e+01 -1.002676e+01 8.881784e-16
      endloop
   endfacet
   facet normal -1.000000e+00 0.000000e+00 0.000000e+00
      outer loop
         vertex 1.069204e+01 1.107166e+00 3.000000e+00
         vertex 1.069204e+01 1.107166e+00 0.000000e+00
         vertex 1.069204e+01 -1.892834e+00 0.000000e+00
      endloop
   endfacet
   facet normal -1.000000e+00 -0.000000e+00 0.000000e+00
      outer loop
         vertex 1.069204e+01 -1.892834e+00 3.000000e+00
         vertex 1.069204e+01 1.107166e+00 3.000000e+00
         vertex 1.069204e+01 -1.892834e+00 0.000000e+00
      endloop
   endfacet
   facet normal 0.000000e+00 1.000000e+00 -0.000000e+00
      outer loop
         vertex 1.069204e+01 -1.892834e+00 3.000000e+00
         vertex 1.069204e+01 -1.892834e+00 0.000000e+00
         vertex -1.230796e+01 -1.892834e+00 0.000000e+00
      endloop
   endfacet
   facet normal 0.000000e+00 1.000000e+00 0.000000e+00
      outer loop
         vertex -1.230796e+01 -1.892834e+00 3.000000e+00
         vertex 1.069204e+01 -1.892834e+00 3.000000e+00
         vertex -1.230796e+01 -1.892834e+00 0.000000e+00
      endloop
   endfacet
   facet normal 1.000000e+00 -0.000000e+00 0.000000e+00
      outer loop
         vertex -1.230796e+01 -1.892834e+00 3.000000e+00
         vertex -1.230796e+01 -1.892834e+00 8.881784e-16
         vertex -1.230796e+01 1.107166e+00 0.000000e+00
      endloop
   endfacet
   facet normal 1.000000e+00 -0.000000e+00 0.000000e+00
      outer loop
         vertex -1.230796e+01 1.107166e+00 3.000000e+00
         vertex -1.230796e+01 -1.892834e+00 3.000000e+00
         vertex -1.230796e+01 1.107166e+00 0.000000e+00
      endloop
   endfacet
   facet normal 0.000000e+00 -1.000000e+00 0.000000e+00
      outer loop
         vertex -1.230796e+01 1.107166e+00 3.000000e+00
         vertex -1.230796e+01 1.107166e+00 0.000000e+00
         vertex 1.069204e+01 1.107166e+00 0.000000e+00
      endloop
   endfacet
   facet normal 0.000000e+00 -1.000000e+00 0.000000e+00
      outer loop
         vertex 1.069204e+01 1.107166e+00 3.000000e+00
         vertex -1.230796e+01 1.107166e+00 3.000000e+00
         vertex 1.069204e+01 1.107166e+00 0.000000e+00
      endloop
   endfacet
   facet normal -1.000000e+00 0.000000e+00 0.000000e+00
      outer loop
         vertex -1.980796e+01 4.307166e+00 3.000000e+00
         vertex -1.980796e+01 4.307166e+00 0.000000e+00
         vertex -1.980796e+01 -1.769283e+01 0.000000e+00
      endloop
   endfacet
   facet normal -1.000000e+00 0.000000e+00 0.000000e+00
      outer loop
         vertex -1.980796e+01 4.307166e+00 3.000000e+00
         vertex -1.980796e+01 -1.769283e+01 0.000000e+00
         vertex -1.980796e+01 -1.769283e+01 3.000000e+00
      endloop
   endfacet
   facet normal 0.000000e+00 -1.000000e+00 0.000000e+00
      outer loop
         vertex -1.980796e+01 -1.769283e+01 3.000000e+00
         vertex -1.980796e+01 -1.769283e+01 0.000000e+00
         vertex 2.019204e+01 -1.769283e+01 0.000000e+00
      endloop
   endfacet
   facet normal 0.000000e+00 -1.000000e+00 0.000000e+00
      outer loop
         vertex -1.980796e+01 -1.769283e+01 3.000000e+00
         vertex 2.019204e+01 -1.769283e+01 0.000000e+00
         vertex 2.019204e+01 -1.769283e+01 3.000000e+00
      endloop
   endfacet
   facet normal 1.000000e+00 0.000000e+00 0.000000e+00
      outer loop
         vertex 2.019204e+01 -1.769283e+01 3.000000e+00
         vertex 2.019204e+01 -1.769283e+01 0.000000e+00
         vertex 2.019204e+01 4.307166e+00 0.000000e+00
      endloop
   endfacet
   facet normal 1.000000e+00 0.000000e+00 -0.000000e+00
      outer loop
         vertex 2.019204e+01 -1.769283e+01 3.000000e+00
         vertex 2.019204e+01 4.307166e+00 0.000000e+00
         vertex 2.019204e+01 4.307166e+00 3.000000e+00
      endloop
   endfacet
   facet normal 0.000000e+00 1.000000e+00 -0.000000e+00
      outer loop
         vertex 2.019204e+01 4.307166e+00 3.000000e+00
         vertex 2.019204e+01 4.307166e+00 0.000000e+00
         vertex -1.980796e+01 4.307166e+00 0.000000e+00
      endloop
   endfacet
   facet normal 0.000000e+00 1.000000e+00 0.000000e+00
      outer loop
         vertex 2.019204e+01 4.307166e+00 3.000000e+00
         vertex -1.980796e+01 4.307166e+00 0.000000e+00
         vertex -1.980796e+01 4.307166e+00 3.000000e+00
      endloop
   endfacet
   facet normal 9.396926e-01 3.420201e-01 -0.000000e+00
      outer loop
         vertex -1.529907e+01 -1.099094e+01 3.000000e+00
         vertex -1.529907e+01 -1.099094e+01 8.881784e-16
         vertex -1.565000e+01 -1.002676e+01 8.881784e-16
      endloop
   endfacet
   facet normal 9.396926e-01 3.420201e-01 0.000000e+00
      outer loop
         vertex -1.565000e+01 -1.002676e+01 3.000000e+00
         vertex -1.529907e+01 -1.099094e+01 3.000000e+00
         vertex -1.565000e+01 -1.002676e+01 8.881784e-16
      endloop
   endfacet
   facet normal 4.999998e-01 8.660255e-01 -0.000000e+00
      outer loop
         vertex -1.441047e+01 -1.150397e+01 3.000000e+00
         vertex -1.441047e+01 -1.150397e+01 8.881784e-16
         vertex -1.529907e+01 -1.099094e+01 8.881784e-16
      endloop
   endfacet
   facet normal 4.999998e-01 8.660255e-01 0.000000e+00
      outer loop
         vertex -1.529907e+01 -1.099094e+01 3.000000e+00
         vertex -1.441047e+01 -1.150397e+01 3.000000e+00
         vertex -1.529907e+01 -1.099094e+01 8.881784e-16
      endloop
   endfacet
   facet normal -1.736477e-01 9.848078e-01 0.000000e+00
      outer loop
         vertex -1.340000e+01 -1.132580e+01 3.000000e+00
         vertex -1.340000e+01 -1.132580e+01 8.881784e-16
         vertex -1.441047e+01 -1.150397e+01 8.881784e-16
      endloop
   endfacet
   facet normal -1.736477e-01 9.848078e-01 0.000000e+00
      outer loop
         vertex -1.441047e+01 -1.150397e+01 3.000000e+00
         vertex -1.340000e+01 -1.132580e+01 3.000000e+00
         vertex -1.441047e+01 -1.150397e+01 8.881784e-16
      endloop
   endfacet
   facet normal -7.660448e-01 6.427872e-01 0.000000e+00
      outer loop
         vertex -1.274046e+01 -1.053979e+01 3.000000e+00
         vertex -1.274046e+01 -1.053979e+01 8.881784e-16
         vertex -1.340000e+01 -1.132580e+01 8.881784e-16
      endloop
   endfacet
   facet normal -7.660448e-01 6.427872e-01 0.000000e+00
      outer loop
         vertex -1.340000e+01 -1.132580e+01 3.000000e+00
         vertex -1.274046e+01 -1.053979e+01 3.000000e+00
         vertex -1.340000e+01 -1.132580e+01 8.881784e-16
      endloop
   endfacet
   facet normal -1.000000e+00 0.000000e+00 0.000000e+00
      outer loop
         vertex -1.274046e+01 -9.513732e+00 3.000000e+00
         vertex -1.274046e+01 -9.513732e+00 8.881784e-16
         vertex -1.274046e+01 -1.053979e+01 8.881784e-16
      endloop
   endfacet
   facet normal -1.000000e+00 -0.000000e+00 0.000000e+00
      outer loop
         vertex -1.274046e+01 -1.053979e+01 3.000000e+00
         vertex -1.274046e+01 -9.513732e+00 3.000000e+00
         vertex -1.274046e+01 -1.053979e+01 8.881784e-16
      endloop
   endfacet
   facet normal -7.660448e-01 -6.427872e-01 0.000000e+00
      outer loop
         vertex -1.340000e+01 -8.727724e+00 3.000000e+00
         vertex -1.340000e+01 -8.727724e+00 8.881784e-16
         vertex -1.274046e+01 -9.513732e+00 8.881784e-16
      endloop
   endfacet
   facet normal -7.660448e-01 -6.427872e-01 0.000000e+00
      outer loop
         vertex -1.274046e+01 -9.513732e+00 3.000000e+00
         vertex -1.340000e+01 -8.727724e+00 3.000000e+00
         vertex -1.274046e+01 -9.513732e+00 8.881784e-16
      endloop
   endfacet
   facet normal -1.736486e-01 -9.848077e-01 0.000000e+00
      outer loop
         vertex -1.441047e+01 -8.549550e+00 3.000000e+00
         vertex -1.441047e+01 -8.549550e+00 8.881784e-16
         vertex -1.340000e+01 -8.727724e+00 8.881784e-16
      endloop
   endfacet
   facet normal -1.736486e-01 -9.848077e-01 0.000000e+00
      outer loop
         vertex -1.340000e+01 -8.727724e+00 3.000000e+00
         vertex -1.441047e+01 -8.549550e+00 3.000000e+00
         vertex -1.340000e+01 -8.727724e+00 8.881784e-16
      endloop
   endfacet
   facet normal 4.999998e-01 -8.660255e-01 0.000000e+00
      outer loop
         vertex -1.529907e+01 -9.062580e+00 3.000000e+00
         vertex -1.529907e+01 -9.062580e+00 8.881784e-16
         vertex -1.441047e+01 -8.549550e+00 8.881784e-16
      endloop
   endfacet
   facet normal 4.999998e-01 -8.660255e-01 0.000000e+00
      outer loop
         vertex -1.441047e+01 -8.549550e+00 3.000000e+00
         vertex -1.529907e+01 -9.062580e+00 3.000000e+00
         vertex -1.441047e+01 -8.549550e+00 8.881784e-16
      endloop
   endfacet
   facet normal 9.396928e-01 -3.420198e-01 0.000000e+00
      outer loop
         vertex -1.565000e+01 -1.002676e+01 3.000000e+00
         vertex -1.565000e+01 -1.002676e+01 8.881784e-16
         vertex -1.529907e+01 -9.062580e+00 8.881784e-16
      endloop
   endfacet
   facet normal 9.396928e-01 -3.420198e-01 0.000000e+00
      outer loop
         vertex -1.529907e+01 -9.062580e+00 3.000000e+00
         vertex -1.565000e+01 -1.002676e+01 3.000000e+00
         vertex -1.529907e+01 -9.062580e+00 8.881784e-16
      endloop
   endfacet
   facet normal 9.396924e-01 3.420209e-01 -0.000000e+00
      outer loop
         vertex 1.300093e+01 -1.099094e+01 3.000000e+00
         vertex 1.300093e+01 -1.099094e+01 8.881784e-16
         vertex 1.265000e+01 -1.002676e+01 8.881784e-16
      endloop
   endfacet
   facet normal 9.396924e-01 3.420209e-01 0.000000e+00
      outer loop
         vertex 1.265000e+01 -1.002676e+01 3.000000e+00
         vertex 1.300093e+01 -1.099094e+01 3.000000e+00
         vertex 1.265000e+01 -1.002676e+01 8.881784e-16
      endloop
   endfacet
   facet normal 5.000002e-01 8.660253e-01 -0.000000e+00
      outer loop
         vertex 1.388953e+01 -1.150397e+01 3.000000e+00
         vertex 1.388953e+01 -1.150397e+01 8.881784e-16
         vertex 1.300093e+01 -1.099094e+01 8.881784e-16
      endloop
   endfacet
   facet normal 5.000002e-01 8.660253e-01 0.000000e+00
      outer loop
         vertex 1.300093e+01 -1.099094e+01 3.000000e+00
         vertex 1.388953e+01 -1.150397e+01 3.000000e+00
         vertex 1.300093e+01 -1.099094e+01 8.881784e-16
      endloop
   endfacet
   facet normal -1.736477e-01 9.848078e-01 0.000000e+00
      outer loop
         vertex 1.490000e+01 -1.132580e+01 3.000000e+00
         vertex 1.490000e+01 -1.132580e+01 8.881784e-16
         vertex 1.388953e+01 -1.150397e+01 8.881784e-16
      endloop
   endfacet
   facet normal -1.736477e-01 9.848078e-01 0.000000e+00
      outer loop
         vertex 1.388953e+01 -1.150397e+01 3.000000e+00
         vertex 1.490000e+01 -1.132580e+01 3.000000e+00
         vertex 1.388953e+01 -1.150397e+01 8.881784e-16
      endloop
   endfacet
   facet normal -7.660443e-01 6.427878e-01 0.000000e+00
      outer loop
         vertex 1.555954e+01 -1.053979e+01 3.000000e+00
         vertex 1.555954e+01 -1.053979e+01 8.881784e-16
         vertex 1.490000e+01 -1.132580e+01 8.881784e-16
      endloop
   endfacet
   facet normal -7.660443e-01 6.427878e-01 0.000000e+00
      outer loop
         vertex 1.490000e+01 -1.132580e+01 3.000000e+00
         vertex 1.555954e+01 -1.053979e+01 3.000000e+00
         vertex 1.490000e+01 -1.132580e+01 8.881784e-16
      endloop
   endfacet
   facet normal -1.000000e+00 0.000000e+00 0.000000e+00
      outer loop
         vertex 1.555954e+01 -9.513732e+00 3.000000e+00
         vertex 1.555954e+01 -9.513732e+00 8.881784e-16
         vertex 1.555954e+01 -1.053979e+01 8.881784e-16
      endloop
   endfacet
   facet normal -1.000000e+00 -0.000000e+00 0.000000e+00
      outer loop
         vertex 1.555954e+01 -1.053979e+01 3.000000e+00
         vertex 1.555954e+01 -9.513732e+00 3.000000e+00
         vertex 1.555954e+01 -1.053979e+01 8.881784e-16
      endloop
   endfacet
   facet normal -7.660443e-01 -6.427878e-01 0.000000e+00
      outer loop
         vertex 1.490000e+01 -8.727724e+00 3.000000e+00
         vertex 1.490000e+01 -8.727724e+00 8.881784e-16
         vertex 1.555954e+01 -9.513732e+00 8.881784e-16
      endloop
   endfacet
   facet normal -7.660443e-01 -6.427878e-01 0.000000e+00
      outer loop
         vertex 1.555954e+01 -9.513732e+00 3.000000e+00
         vertex 1.490000e+01 -8.727724e+00 3.000000e+00
         vertex 1.555954e+01 -9.513732e+00 8.881784e-16
      endloop
   endfacet
   facet normal -1.736486e-01 -9.848077e-01 0.000000e+00
      outer loop
         vertex 1.388953e+01 -8.549550e+00 3.000000e+00
         vertex 1.388953e+01 -8.549550e+00 8.881784e-16
         vertex 1.490000e+01 -8.727724e+00 8.881784e-16
      endloop
   endfacet
   facet normal -1.736486e-01 -9.848077e-01 0.000000e+00
      outer loop
         vertex 1.490000e+01 -8.727724e+00 3.000000e+00
         vertex 1.388953e+01 -8.549550e+00 3.000000e+00
         vertex 1.490000e+01 -8.727724e+00 8.881784e-16
      endloop
   endfacet
   facet normal 5.000002e-01 -8.660253e-01 0.000000e+00
      outer loop
         vertex 1.300093e+01 -9.062580e+00 3.000000e+00
         vertex 1.300093e+01 -9.062580e+00 8.881784e-16
         vertex 1.388953e+01 -8.549550e+00 8.881784e-16
      endloop
   endfacet
   facet normal 5.000002e-01 -8.660253e-01 0.000000e+00
      outer loop
         vertex 1.388953e+01 -8.549550e+00 3.000000e+00
         vertex 1.300093e+01 -9.062580e+00 3.000000e+00
         vertex 1.388953e+01 -8.549550e+00 8.881784e-16
      endloop
   endfacet
   facet normal 9.396925e-01 -3.420206e-01 0.000000e+00
      outer loop
         vertex 1.265000e+01 -1.002676e+01 3.000000e+00
         vertex 1.265000e+01 -1.002676e+01 8.881784e-16
         vertex 1.300093e+01 -9.062580e+00 8.881784e-16
      endloop
   endfacet
   facet normal 9.396925e-01 -3.420206e-01 0.000000e+00
      outer loop
         vertex 1.300093e+01 -9.062580e+00 3.000000e+00
         vertex 1.265000e+01 -1.002676e+01 3.000000e+00
         vertex 1.300093e+01 -9.062580e+00 8.881784e-16
      endloop
   endfacet
endsolid
