solid 
   facet normal -3.834759e-17 1.000000e+00 6.454907e-18
      outer loop
         vertex 5.000000e+01 9.957993e-15 7.000000e+01
         vertex 1.973953e+01 8.839681e-15 6.347721e+01
         vertex -5.000000e+01 6.123234e-15 7.000000e+01
      endloop
   endfacet
   facet normal -3.619409e-17 1.000000e+00 2.947940e-17
      outer loop
         vertex 1.973953e+01 8.839681e-15 6.347721e+01
         vertex 1.885093e+01 8.822643e-15 6.296418e+01
         vertex -5.000000e+01 6.123234e-15 7.000000e+01
      endloop
   endfacet
   facet normal -3.619566e-17 1.000000e+00 0.000000e+00
      outer loop
         vertex -5.000000e+01 6.123234e-15 7.000000e+01
         vertex -2.114907e+01 7.167512e-15 6.296418e+01
         vertex -5.000000e+01 6.123234e-15 0.000000e+00
      endloop
   endfacet
   facet normal 5.072741e-16 1.000000e+00 -2.490243e-16
      outer loop
         vertex -2.114907e+01 7.167512e-15 6.296418e+01
         vertex -2.150000e+01 7.105427e-15 6.200000e+01
         vertex -5.000000e+01 6.123234e-15 0.000000e+00
      endloop
   endfacet
   facet normal -3.834759e-17 1.000000e+00 9.728818e-18
      outer loop
         vertex -5.000000e+01 6.123234e-15 0.000000e+00
         vertex -1.065000e+01 7.549517e-15 8.500000e+00
         vertex 5.000000e+01 9.957993e-15 0.000000e+00
      endloop
   endfacet
   facet normal -4.169852e-17 1.000000e+00 -1.418104e-17
      outer loop
         vertex -1.065000e+01 7.549517e-15 8.500000e+00
         vertex 1.065000e+01 8.437695e-15 8.500000e+00
         vertex 5.000000e+01 9.957993e-15 0.000000e+00
      endloop
   endfacet
   facet normal -3.863527e-17 1.000000e+00 0.000000e+00
      outer loop
         vertex 5.000000e+01 9.957993e-15 0.000000e+00
         vertex 1.065000e+01 8.437695e-15 8.500000e+00
         vertex 5.000000e+01 9.957993e-15 7.000000e+01
      endloop
   endfacet
   facet normal -3.490322e-17 1.000000e+00 -2.387903e-18
      outer loop
         vertex 1.065000e+01 8.437695e-15 8.500000e+00
         vertex 1.555234e+01 8.637008e-15 2.031169e+01
         vertex 5.000000e+01 9.957993e-15 7.000000e+01
      endloop
   endfacet
   facet normal -3.460438e-17 1.000000e+00 -1.294736e-17
      outer loop
         vertex 5.000000e+01 9.957993e-15 7.000000e+01
         vertex 2.140954e+01 8.871701e-15 6.251303e+01
         vertex 2.075000e+01 8.859055e-15 6.329904e+01
      endloop
   endfacet
   facet normal -3.608709e-17 1.000000e+00 -1.896549e-18
      outer loop
         vertex 1.555234e+01 8.637008e-15 2.031169e+01
         vertex 1.065000e+01 8.437695e-15 8.500000e+00
         vertex 1.489280e+01 8.611716e-15 1.952568e+01
      endloop
   endfacet
   facet normal -2.717476e-17 1.000000e+00 -4.537799e-17
      outer loop
         vertex 1.973953e+01 8.839681e-15 6.347721e+01
         vertex 5.000000e+01 9.957993e-15 7.000000e+01
         vertex 2.075000e+01 8.859055e-15 6.329904e+01
      endloop
   endfacet
   facet normal -4.426336e-17 1.000000e+00 2.105220e-17
      outer loop
         vertex 2.140954e+01 8.871701e-15 6.148697e+01
         vertex 5.000000e+01 9.957993e-15 7.000000e+01
         vertex 2.075000e+01 8.859055e-15 6.070096e+01
      endloop
   endfacet
   facet normal -3.735084e-17 1.000000e+00 -6.910327e-19
      outer loop
         vertex 5.000000e+01 9.957993e-15 7.000000e+01
         vertex 1.555234e+01 8.637008e-15 2.031169e+01
         vertex 2.075000e+01 8.859055e-15 6.070096e+01
      endloop
   endfacet
   facet normal -1.862669e-17 1.000000e+00 -3.100626e-18
      outer loop
         vertex 2.075000e+01 8.859055e-15 6.070096e+01
         vertex 1.555234e+01 8.637008e-15 2.031169e+01
         vertex 1.973953e+01 8.839681e-15 6.052279e+01
      endloop
   endfacet
   facet normal -4.840315e-17 1.000000e+00 0.000000e+00
      outer loop
         vertex 1.555234e+01 8.637008e-15 2.031169e+01
         vertex 1.555234e+01 8.637008e-15 2.133775e+01
         vertex 1.973953e+01 8.839681e-15 6.052279e+01
      endloop
   endfacet
   facet normal -2.087262e-17 1.000000e+00 -2.941823e-18
      outer loop
         vertex 1.973953e+01 8.839681e-15 6.052279e+01
         vertex 1.555234e+01 8.637008e-15 2.133775e+01
         vertex 1.885093e+01 8.822643e-15 6.103582e+01
      endloop
   endfacet
   facet normal -3.996283e-17 1.000000e+00 -1.355580e-18
      outer loop
         vertex 1.555234e+01 8.637008e-15 2.133775e+01
         vertex 1.489280e+01 8.611716e-15 2.212376e+01
         vertex 1.885093e+01 8.822643e-15 6.103582e+01
      endloop
   endfacet
   facet normal 1.200757e-16 1.000000e+00 -1.763468e-17
      outer loop
         vertex 1.885093e+01 8.822643e-15 6.103582e+01
         vertex 1.489280e+01 8.611716e-15 2.212376e+01
         vertex 1.850000e+01 8.881784e-15 6.200000e+01
      endloop
   endfacet
   facet normal -3.892102e-17 1.000000e+00 -3.251867e-18
      outer loop
         vertex 1.489280e+01 8.611716e-15 2.212376e+01
         vertex 1.388233e+01 8.572967e-15 2.230194e+01
         vertex 1.850000e+01 8.881784e-15 6.200000e+01
      endloop
   endfacet
   facet normal -3.629351e-17 1.000000e+00 -3.557499e-18
      outer loop
         vertex 1.388233e+01 8.572967e-15 2.230194e+01
         vertex 1.299374e+01 8.538892e-15 2.178890e+01
         vertex 1.850000e+01 8.881784e-15 6.200000e+01
      endloop
   endfacet
   facet normal -2.391807e-17 1.000000e+00 -5.252116e-18
      outer loop
         vertex 1.299374e+01 8.538892e-15 2.178890e+01
         vertex 1.264280e+01 8.525434e-15 2.082472e+01
         vertex 1.850000e+01 8.881784e-15 6.200000e+01
      endloop
   endfacet
   facet normal -3.815342e-17 1.000000e+00 -1.101402e-18
      outer loop
         vertex 1.489280e+01 8.611716e-15 1.952568e+01
         vertex 1.065000e+01 8.437695e-15 8.500000e+00
         vertex 1.388233e+01 8.572967e-15 1.934751e+01
      endloop
   endfacet
   facet normal -3.886151e-17 1.000000e+00 -8.904065e-19
      outer loop
         vertex 1.065000e+01 8.437695e-15 8.500000e+00
         vertex 1.299374e+01 8.538892e-15 1.986054e+01
         vertex 1.388233e+01 8.572967e-15 1.934751e+01
      endloop
   endfacet
   facet normal -4.009521e-17 1.000000e+00 -6.358889e-19
      outer loop
         vertex 1.299374e+01 8.538892e-15 1.986054e+01
         vertex 1.065000e+01 8.437695e-15 8.500000e+00
         vertex 1.264280e+01 8.525434e-15 2.082472e+01
      endloop
   endfacet
   facet normal -4.402793e-17 1.000000e+00 0.000000e+00
      outer loop
         vertex 1.065000e+01 8.437695e-15 8.500000e+00
         vertex 1.065000e+01 8.437695e-15 2.682000e+01
         vertex 1.264280e+01 8.525434e-15 2.082472e+01
      endloop
   endfacet
   facet normal -4.906638e-17 1.000000e+00 -1.674760e-18
      outer loop
         vertex 1.264280e+01 8.525434e-15 2.082472e+01
         vertex 1.065000e+01 8.437695e-15 2.682000e+01
         vertex 1.850000e+01 8.881784e-15 6.200000e+01
      endloop
   endfacet
   facet normal -4.169852e-17 1.000000e+00 -3.318812e-18
      outer loop
         vertex 1.065000e+01 8.437695e-15 2.682000e+01
         vertex -1.065000e+01 7.549517e-15 2.682000e+01
         vertex 1.850000e+01 8.881784e-15 6.200000e+01
      endloop
   endfacet
   facet normal -2.135241e-16 1.000000e+00 1.390552e-16
      outer loop
         vertex 1.850000e+01 8.881784e-15 6.200000e+01
         vertex -1.065000e+01 7.549517e-15 2.682000e+01
         vertex 1.885093e+01 8.822643e-15 6.296418e+01
      endloop
   endfacet
   facet normal 1.663070e-18 1.000000e+00 0.000000e+00
      outer loop
         vertex -1.065000e+01 7.549517e-15 8.500000e+00
         vertex -1.271682e+01 7.552954e-15 2.030697e+01
         vertex -1.065000e+01 7.549517e-15 2.682000e+01
      endloop
   endfacet
   facet normal 1.663070e-18 1.000000e+00 0.000000e+00
      outer loop
         vertex -1.271682e+01 7.552954e-15 2.030697e+01
         vertex -1.271682e+01 7.552954e-15 2.133303e+01
         vertex -1.065000e+01 7.549517e-15 2.682000e+01
      endloop
   endfacet
   facet normal -2.595116e-17 1.000000e+00 1.040165e-17
      outer loop
         vertex -1.271682e+01 7.552954e-15 2.133303e+01
         vertex -1.337635e+01 7.527662e-15 2.211904e+01
         vertex -1.065000e+01 7.549517e-15 2.682000e+01
      endloop
   endfacet
   facet normal -3.553362e-17 1.000000e+00 1.595906e-17
      outer loop
         vertex -1.337635e+01 7.527662e-15 2.211904e+01
         vertex -1.438683e+01 7.488913e-15 2.229721e+01
         vertex -1.065000e+01 7.549517e-15 2.682000e+01
      endloop
   endfacet
   facet normal -5.853198e-17 1.000000e+00 3.496081e-17
      outer loop
         vertex -1.438683e+01 7.488913e-15 2.229721e+01
         vertex -1.527542e+01 7.454838e-15 2.178418e+01
         vertex -1.065000e+01 7.549517e-15 2.682000e+01
      endloop
   endfacet
   facet normal 1.605277e-16 1.000000e+00 -1.662465e-16
      outer loop
         vertex -1.065000e+01 7.549517e-15 2.682000e+01
         vertex -1.527542e+01 7.454838e-15 2.178418e+01
         vertex 1.885093e+01 8.822643e-15 6.296418e+01
      endloop
   endfacet
   facet normal -3.707987e-17 1.000000e+00 -7.189807e-18
      outer loop
         vertex -1.337635e+01 7.527662e-15 1.952096e+01
         vertex -1.065000e+01 7.549517e-15 8.500000e+00
         vertex -1.438683e+01 7.488913e-15 1.934279e+01
      endloop
   endfacet
   facet normal -4.384440e-17 1.000000e+00 -9.521113e-18
      outer loop
         vertex -1.438683e+01 7.488913e-15 1.934279e+01
         vertex -1.065000e+01 7.549517e-15 8.500000e+00
         vertex -1.527542e+01 7.454838e-15 1.985582e+01
      endloop
   endfacet
   facet normal -3.497020e-17 1.000000e+00 -5.906499e-18
      outer loop
         vertex -1.065000e+01 7.549517e-15 8.500000e+00
         vertex -5.000000e+01 6.123234e-15 0.000000e+00
         vertex -1.527542e+01 7.454838e-15 1.985582e+01
      endloop
   endfacet
   facet normal -3.834770e-17 1.000000e+00 1.898276e-22
      outer loop
         vertex -1.527542e+01 7.454838e-15 1.985582e+01
         vertex -5.000000e+01 6.123234e-15 0.000000e+00
         vertex -1.562635e+01 7.441380e-15 2.082000e+01
      endloop
   endfacet
   facet normal -3.984651e-17 1.000000e+00 2.474708e-18
      outer loop
         vertex -5.000000e+01 6.123234e-15 0.000000e+00
         vertex -2.150000e+01 7.105427e-15 6.200000e+01
         vertex -1.562635e+01 7.441380e-15 2.082000e+01
      endloop
   endfacet
   facet normal -4.365497e-17 1.000000e+00 1.931494e-18
      outer loop
         vertex -1.562635e+01 7.441380e-15 2.082000e+01
         vertex -2.150000e+01 7.105427e-15 6.200000e+01
         vertex -1.527542e+01 7.454838e-15 2.178418e+01
      endloop
   endfacet
   facet normal -2.662785e-16 1.000000e+00 -3.252603e-17
      outer loop
         vertex -2.150000e+01 7.105427e-15 6.200000e+01
         vertex -2.114907e+01 7.167512e-15 6.103582e+01
         vertex -1.527542e+01 7.454838e-15 2.178418e+01
      endloop
   endfacet
   facet normal -4.198103e-17 1.000000e+00 1.574909e-18
      outer loop
         vertex -1.527542e+01 7.454838e-15 2.178418e+01
         vertex -2.026047e+01 7.184550e-15 6.052279e+01
         vertex 1.885093e+01 8.822643e-15 6.296418e+01
      endloop
   endfacet
   facet normal -5.432771e-17 1.000000e+00 1.993702e-16
      outer loop
         vertex -2.026047e+01 7.184550e-15 6.052279e+01
         vertex -1.925000e+01 7.203925e-15 6.070096e+01
         vertex 1.885093e+01 8.822643e-15 6.296418e+01
      endloop
   endfacet
   facet normal -4.279349e-17 1.000000e+00 -3.510078e-17
      outer loop
         vertex 1.885093e+01 8.822643e-15 6.296418e+01
         vertex -1.925000e+01 7.203925e-15 6.329904e+01
         vertex -5.000000e+01 6.123234e-15 7.000000e+01
      endloop
   endfacet
   facet normal 4.853665e-17 1.000000e+00 3.840035e-16
      outer loop
         vertex -1.925000e+01 7.203925e-15 6.329904e+01
         vertex -2.026047e+01 7.184550e-15 6.347721e+01
         vertex -5.000000e+01 6.123234e-15 7.000000e+01
      endloop
   endfacet
   facet normal -3.114097e-17 1.000000e+00 2.072714e-17
      outer loop
         vertex -5.000000e+01 6.123234e-15 7.000000e+01
         vertex -2.026047e+01 7.184550e-15 6.347721e+01
         vertex -2.114907e+01 7.167512e-15 6.296418e+01
      endloop
   endfacet
   facet normal -3.144123e-17 1.000000e+00 -5.794925e-18
      outer loop
         vertex -1.271682e+01 7.552954e-15 2.030697e+01
         vertex -1.065000e+01 7.549517e-15 8.500000e+00
         vertex -1.337635e+01 7.527662e-15 1.952096e+01
      endloop
   endfacet
   facet normal -1.636145e-17 1.000000e+00 4.871748e-18
      outer loop
         vertex -2.026047e+01 7.184550e-15 6.052279e+01
         vertex -1.527542e+01 7.454838e-15 2.178418e+01
         vertex -2.114907e+01 7.167512e-15 6.103582e+01
      endloop
   endfacet
   facet normal -4.265818e-17 1.000000e+00 -1.970530e-17
      outer loop
         vertex -1.925000e+01 7.203925e-15 6.329904e+01
         vertex 1.885093e+01 8.822643e-15 6.296418e+01
         vertex -1.859046e+01 7.216571e-15 6.251303e+01
      endloop
   endfacet
   facet normal -4.289562e-17 1.000000e+00 0.000000e+00
      outer loop
         vertex 1.885093e+01 8.822643e-15 6.296418e+01
         vertex -1.859046e+01 7.216571e-15 6.148697e+01
         vertex -1.859046e+01 7.216571e-15 6.251303e+01
      endloop
   endfacet
   facet normal -4.370782e-17 1.000000e+00 2.058605e-17
      outer loop
         vertex -1.859046e+01 7.216571e-15 6.148697e+01
         vertex 1.885093e+01 8.822643e-15 6.296418e+01
         vertex -1.925000e+01 7.203925e-15 6.070096e+01
      endloop
   endfacet
   facet normal -3.799490e-17 1.000000e+00 0.000000e+00
      outer loop
         vertex 2.140954e+01 8.871701e-15 6.251303e+01
         vertex 5.000000e+01 9.957993e-15 7.000000e+01
         vertex 2.140954e+01 8.871701e-15 6.148697e+01
      endloop
   endfacet
   facet normal -9.396928e-01 0.000000e+00 3.420198e-01
      outer loop
         vertex -1.562635e+01 7.441380e-15 2.082000e+01
         vertex -1.527542e+01 7.454838e-15 2.178418e+01
         vertex -1.527542e+01 5.000000e+00 2.178418e+01
      endloop
   endfacet
   facet normal -9.396928e-01 0.000000e+00 3.420198e-01
      outer loop
         vertex -1.562635e+01 7.441380e-15 2.082000e+01
         vertex -1.527542e+01 5.000000e+00 2.178418e+01
         vertex -1.562635e+01 5.000000e+00 2.082000e+01
      endloop
   endfacet
   facet normal -4.999991e-01 0.000000e+00 8.660259e-01
      outer loop
         vertex -1.527542e+01 7.454838e-15 2.178418e+01
         vertex -1.438683e+01 7.488913e-15 2.229721e+01
         vertex -1.438683e+01 5.000000e+00 2.229721e+01
      endloop
   endfacet
   facet normal -4.999991e-01 0.000000e+00 8.660259e-01
      outer loop
         vertex -1.527542e+01 7.454838e-15 2.178418e+01
         vertex -1.438683e+01 5.000000e+00 2.229721e+01
         vertex -1.527542e+01 5.000000e+00 2.178418e+01
      endloop
   endfacet
   facet normal 1.736477e-01 -0.000000e+00 9.848078e-01
      outer loop
         vertex -1.438683e+01 7.488913e-15 2.229721e+01
         vertex -1.337635e+01 7.527662e-15 2.211904e+01
         vertex -1.337635e+01 5.000000e+00 2.211904e+01
      endloop
   endfacet
   facet normal 1.736477e-01 0.000000e+00 9.848078e-01
      outer loop
         vertex -1.438683e+01 7.488913e-15 2.229721e+01
         vertex -1.337635e+01 5.000000e+00 2.211904e+01
         vertex -1.438683e+01 5.000000e+00 2.229721e+01
      endloop
   endfacet
   facet normal 7.660444e-01 -0.000000e+00 6.427877e-01
      outer loop
         vertex -1.337635e+01 7.527662e-15 2.211904e+01
         vertex -1.271682e+01 7.552954e-15 2.133303e+01
         vertex -1.271682e+01 5.000000e+00 2.133303e+01
      endloop
   endfacet
   facet normal 7.660444e-01 0.000000e+00 6.427877e-01
      outer loop
         vertex -1.337635e+01 7.527662e-15 2.211904e+01
         vertex -1.271682e+01 5.000000e+00 2.133303e+01
         vertex -1.337635e+01 5.000000e+00 2.211904e+01
      endloop
   endfacet
   facet normal 1.000000e+00 0.000000e+00 0.000000e+00
      outer loop
         vertex -1.271682e+01 7.552954e-15 2.133303e+01
         vertex -1.271682e+01 7.552954e-15 2.030697e+01
         vertex -1.271682e+01 5.000000e+00 2.030697e+01
      endloop
   endfacet
   facet normal 1.000000e+00 0.000000e+00 -0.000000e+00
      outer loop
         vertex -1.271682e+01 7.552954e-15 2.133303e+01
         vertex -1.271682e+01 5.000000e+00 2.030697e+01
         vertex -1.271682e+01 5.000000e+00 2.133303e+01
      endloop
   endfacet
   facet normal 7.660451e-01 0.000000e+00 -6.427868e-01
      outer loop
         vertex -1.271682e+01 7.552954e-15 2.030697e+01
         vertex -1.337635e+01 7.527662e-15 1.952096e+01
         vertex -1.337635e+01 5.000000e+00 1.952096e+01
      endloop
   endfacet
   facet normal 7.660451e-01 0.000000e+00 -6.427868e-01
      outer loop
         vertex -1.271682e+01 7.552954e-15 2.030697e+01
         vertex -1.337635e+01 5.000000e+00 1.952096e+01
         vertex -1.271682e+01 5.000000e+00 2.030697e+01
      endloop
   endfacet
   facet normal 1.736477e-01 0.000000e+00 -9.848078e-01
      outer loop
         vertex -1.337635e+01 7.527662e-15 1.952096e+01
         vertex -1.438683e+01 7.488913e-15 1.934279e+01
         vertex -1.438683e+01 5.000000e+00 1.934279e+01
      endloop
   endfacet
   facet normal 1.736477e-01 0.000000e+00 -9.848078e-01
      outer loop
         vertex -1.337635e+01 7.527662e-15 1.952096e+01
         vertex -1.438683e+01 5.000000e+00 1.934279e+01
         vertex -1.337635e+01 5.000000e+00 1.952096e+01
      endloop
   endfacet
   facet normal -4.999991e-01 0.000000e+00 -8.660259e-01
      outer loop
         vertex -1.438683e+01 7.488913e-15 1.934279e+01
         vertex -1.527542e+01 7.454838e-15 1.985582e+01
         vertex -1.527542e+01 5.000000e+00 1.985582e+01
      endloop
   endfacet
   facet normal -4.999991e-01 0.000000e+00 -8.660259e-01
      outer loop
         vertex -1.438683e+01 7.488913e-15 1.934279e+01
         vertex -1.527542e+01 5.000000e+00 1.985582e+01
         vertex -1.438683e+01 5.000000e+00 1.934279e+01
      endloop
   endfacet
   facet normal -9.396928e-01 0.000000e+00 -3.420198e-01
      outer loop
         vertex -1.527542e+01 7.454838e-15 1.985582e+01
         vertex -1.562635e+01 7.441380e-15 2.082000e+01
         vertex -1.562635e+01 5.000000e+00 2.082000e+01
      endloop
   endfacet
   facet normal -9.396928e-01 0.000000e+00 -3.420198e-01
      outer loop
         vertex -1.527542e+01 7.454838e-15 1.985582e+01
         vertex -1.562635e+01 5.000000e+00 2.082000e+01
         vertex -1.527542e+01 5.000000e+00 1.985582e+01
      endloop
   endfacet
   facet normal -9.396925e-01 0.000000e+00 3.420206e-01
      outer loop
         vertex 1.264280e+01 8.525434e-15 2.082472e+01
         vertex 1.299374e+01 8.538892e-15 2.178890e+01
         vertex 1.299374e+01 5.000000e+00 2.178890e+01
      endloop
   endfacet
   facet normal -9.396925e-01 0.000000e+00 3.420206e-01
      outer loop
         vertex 1.264280e+01 8.525434e-15 2.082472e+01
         vertex 1.299374e+01 5.000000e+00 2.178890e+01
         vertex 1.264280e+01 5.000000e+00 2.082472e+01
      endloop
   endfacet
   facet normal -5.000009e-01 0.000000e+00 8.660249e-01
      outer loop
         vertex 1.299374e+01 8.538892e-15 2.178890e+01
         vertex 1.388233e+01 8.572967e-15 2.230194e+01
         vertex 1.388233e+01 5.000000e+00 2.230194e+01
      endloop
   endfacet
   facet normal -5.000009e-01 0.000000e+00 8.660249e-01
      outer loop
         vertex 1.299374e+01 8.538892e-15 2.178890e+01
         vertex 1.388233e+01 5.000000e+00 2.230194e+01
         vertex 1.299374e+01 5.000000e+00 2.178890e+01
      endloop
   endfacet
   facet normal 1.736495e-01 -0.000000e+00 9.848075e-01
      outer loop
         vertex 1.388233e+01 8.572967e-15 2.230194e+01
         vertex 1.489280e+01 8.611716e-15 2.212376e+01
         vertex 1.489280e+01 5.000000e+00 2.212376e+01
      endloop
   endfacet
   facet normal 1.736495e-01 0.000000e+00 9.848075e-01
      outer loop
         vertex 1.388233e+01 8.572967e-15 2.230194e+01
         vertex 1.489280e+01 5.000000e+00 2.212376e+01
         vertex 1.388233e+01 5.000000e+00 2.230194e+01
      endloop
   endfacet
   facet normal 7.660439e-01 -0.000000e+00 6.427882e-01
      outer loop
         vertex 1.489280e+01 8.611716e-15 2.212376e+01
         vertex 1.555234e+01 8.637008e-15 2.133775e+01
         vertex 1.555234e+01 5.000000e+00 2.133775e+01
      endloop
   endfacet
   facet normal 7.660439e-01 0.000000e+00 6.427882e-01
      outer loop
         vertex 1.489280e+01 8.611716e-15 2.212376e+01
         vertex 1.555234e+01 5.000000e+00 2.133775e+01
         vertex 1.489280e+01 5.000000e+00 2.212376e+01
      endloop
   endfacet
   facet normal 1.000000e+00 0.000000e+00 0.000000e+00
      outer loop
         vertex 1.555234e+01 8.637008e-15 2.133775e+01
         vertex 1.555234e+01 8.637008e-15 2.031169e+01
         vertex 1.555234e+01 5.000000e+00 2.031169e+01
      endloop
   endfacet
   facet normal 1.000000e+00 0.000000e+00 -0.000000e+00
      outer loop
         vertex 1.555234e+01 8.637008e-15 2.133775e+01
         vertex 1.555234e+01 5.000000e+00 2.031169e+01
         vertex 1.555234e+01 5.000000e+00 2.133775e+01
      endloop
   endfacet
   facet normal 7.660447e-01 0.000000e+00 -6.427873e-01
      outer loop
         vertex 1.555234e+01 8.637008e-15 2.031169e+01
         vertex 1.489280e+01 8.611716e-15 1.952568e+01
         vertex 1.489280e+01 5.000000e+00 1.952568e+01
      endloop
   endfacet
   facet normal 7.660447e-01 0.000000e+00 -6.427873e-01
      outer loop
         vertex 1.555234e+01 8.637008e-15 2.031169e+01
         vertex 1.489280e+01 5.000000e+00 1.952568e+01
         vertex 1.555234e+01 5.000000e+00 2.031169e+01
      endloop
   endfacet
   facet normal 1.736477e-01 0.000000e+00 -9.848078e-01
      outer loop
         vertex 1.489280e+01 8.611716e-15 1.952568e+01
         vertex 1.388233e+01 8.572967e-15 1.934751e+01
         vertex 1.388233e+01 5.000000e+00 1.934751e+01
      endloop
   endfacet
   facet normal 1.736477e-01 0.000000e+00 -9.848078e-01
      outer loop
         vertex 1.489280e+01 8.611716e-15 1.952568e+01
         vertex 1.388233e+01 5.000000e+00 1.934751e+01
         vertex 1.489280e+01 5.000000e+00 1.952568e+01
      endloop
   endfacet
   facet normal -4.999995e-01 0.000000e+00 -8.660257e-01
      outer loop
         vertex 1.388233e+01 8.572967e-15 1.934751e+01
         vertex 1.299374e+01 8.538892e-15 1.986054e+01
         vertex 1.299374e+01 5.000000e+00 1.986054e+01
      endloop
   endfacet
   facet normal -4.999995e-01 0.000000e+00 -8.660257e-01
      outer loop
         vertex 1.388233e+01 8.572967e-15 1.934751e+01
         vertex 1.299374e+01 5.000000e+00 1.986054e+01
         vertex 1.388233e+01 5.000000e+00 1.934751e+01
      endloop
   endfacet
   facet normal -9.396925e-01 0.000000e+00 -3.420206e-01
      outer loop
         vertex 1.299374e+01 8.538892e-15 1.986054e+01
         vertex 1.264280e+01 8.525434e-15 2.082472e+01
         vertex 1.264280e+01 5.000000e+00 2.082472e+01
      endloop
   endfacet
   facet normal -9.396925e-01 0.000000e+00 -3.420206e-01
      outer loop
         vertex 1.299374e+01 8.538892e-15 1.986054e+01
         vertex 1.264280e+01 5.000000e+00 2.082472e+01
         vertex 1.299374e+01 5.000000e+00 1.986054e+01
      endloop
   endfacet
   facet normal 0.000000e+00 0.000000e+00 -1.000000e+00
      outer loop
         vertex 5.000000e+01 -4.000000e+00 0.000000e+00
         vertex -5.000000e+01 -4.000000e+00 0.000000e+00
         vertex -5.000000e+01 6.123234e-15 0.000000e+00
      endloop
   endfacet
   facet normal 0.000000e+00 0.000000e+00 -1.000000e+00
      outer loop
         vertex 5.000000e+01 9.957993e-15 0.000000e+00
         vertex 5.000000e+01 -4.000000e+00 0.000000e+00
         vertex -5.000000e+01 6.123234e-15 0.000000e+00
      endloop
   endfacet
   facet normal -1.000000e+00 0.000000e+00 0.000000e+00
      outer loop
         vertex -5.000000e+01 6.123234e-15 7.000000e+01
         vertex -5.000000e+01 6.123234e-15 0.000000e+00
         vertex -5.000000e+01 -4.000000e+00 0.000000e+00
      endloop
   endfacet
   facet normal -1.000000e+00 0.000000e+00 0.000000e+00
      outer loop
         vertex -5.000000e+01 6.123234e-15 7.000000e+01
         vertex -5.000000e+01 -4.000000e+00 0.000000e+00
         vertex -5.000000e+01 -4.000000e+00 7.000000e+01
      endloop
   endfacet
   facet normal 0.000000e+00 0.000000e+00 1.000000e+00
      outer loop
         vertex -5.000000e+01 6.123234e-15 7.000000e+01
         vertex -5.000000e+01 -4.000000e+00 7.000000e+01
         vertex 5.000000e+01 -4.000000e+00 7.000000e+01
      endloop
   endfacet
   facet normal 0.000000e+00 -0.000000e+00 1.000000e+00
      outer loop
         vertex -5.000000e+01 6.123234e-15 7.000000e+01
         vertex 5.000000e+01 -4.000000e+00 7.000000e+01
         vertex 5.000000e+01 9.957993e-15 7.000000e+01
      endloop
   endfacet
   facet normal 1.000000e+00 0.000000e+00 0.000000e+00
      outer loop
         vertex 5.000000e+01 -4.000000e+00 7.000000e+01
         vertex 5.000000e+01 -4.000000e+00 0.000000e+00
         vertex 5.000000e+01 9.769963e-15 0.000000e+00
      endloop
   endfacet
   facet normal 1.000000e+00 0.000000e+00 -0.000000e+00
      outer loop
         vertex 5.000000e+01 -4.000000e+00 7.000000e+01
         vertex 5.000000e+01 9.769963e-15 0.000000e+00
         vertex 5.000000e+01 9.769963e-15 7.000000e+01
      endloop
   endfacet
   facet normal 9.396925e-01 0.000000e+00 -3.420204e-01
      outer loop
         vertex -2.114907e+01 7.105427e-15 6.296418e+01
         vertex -2.114907e+01 -4.000000e+00 6.296418e+01
         vertex -2.150000e+01 -4.000000e+00 6.200000e+01
      endloop
   endfacet
   facet normal 9.396925e-01 0.000000e+00 -3.420204e-01
      outer loop
         vertex -2.150000e+01 7.105427e-15 6.200000e+01
         vertex -2.114907e+01 7.105427e-15 6.296418e+01
         vertex -2.150000e+01 -4.000000e+00 6.200000e+01
      endloop
   endfacet
   facet normal 5.000001e-01 0.000000e+00 -8.660254e-01
      outer loop
         vertex -2.026047e+01 7.105427e-15 6.347721e+01
         vertex -2.026047e+01 -4.000000e+00 6.347721e+01
         vertex -2.114907e+01 -4.000000e+00 6.296418e+01
      endloop
   endfacet
   facet normal 5.000001e-01 0.000000e+00 -8.660254e-01
      outer loop
         vertex -2.114907e+01 7.105427e-15 6.296418e+01
         vertex -2.026047e+01 7.105427e-15 6.347721e+01
         vertex -2.114907e+01 -4.000000e+00 6.296418e+01
      endloop
   endfacet
   facet normal -1.736479e-01 0.000000e+00 -9.848078e-01
      outer loop
         vertex -1.925000e+01 7.105427e-15 6.329904e+01
         vertex -1.925000e+01 -4.000000e+00 6.329904e+01
         vertex -2.026047e+01 -4.000000e+00 6.347721e+01
      endloop
   endfacet
   facet normal -1.736479e-01 0.000000e+00 -9.848078e-01
      outer loop
         vertex -2.026047e+01 7.105427e-15 6.347721e+01
         vertex -1.925000e+01 7.105427e-15 6.329904e+01
         vertex -2.026047e+01 -4.000000e+00 6.347721e+01
      endloop
   endfacet
   facet normal -7.660444e-01 0.000000e+00 -6.427877e-01
      outer loop
         vertex -1.859046e+01 7.105427e-15 6.251303e+01
         vertex -1.859046e+01 -4.000000e+00 6.251303e+01
         vertex -1.925000e+01 -4.000000e+00 6.329904e+01
      endloop
   endfacet
   facet normal -7.660444e-01 0.000000e+00 -6.427877e-01
      outer loop
         vertex -1.925000e+01 7.105427e-15 6.329904e+01
         vertex -1.859046e+01 7.105427e-15 6.251303e+01
         vertex -1.925000e+01 -4.000000e+00 6.329904e+01
      endloop
   endfacet
   facet normal -1.000000e+00 0.000000e+00 0.000000e+00
      outer loop
         vertex -1.859046e+01 7.105427e-15 6.148697e+01
         vertex -1.859046e+01 -4.000000e+00 6.148697e+01
         vertex -1.859046e+01 -4.000000e+00 6.251303e+01
      endloop
   endfacet
   facet normal -1.000000e+00 0.000000e+00 0.000000e+00
      outer loop
         vertex -1.859046e+01 7.105427e-15 6.251303e+01
         vertex -1.859046e+01 7.105427e-15 6.148697e+01
         vertex -1.859046e+01 -4.000000e+00 6.251303e+01
      endloop
   endfacet
   facet normal -7.660444e-01 0.000000e+00 6.427877e-01
      outer loop
         vertex -1.925000e+01 7.105427e-15 6.070096e+01
         vertex -1.925000e+01 -4.000000e+00 6.070096e+01
         vertex -1.859046e+01 -4.000000e+00 6.148697e+01
      endloop
   endfacet
   facet normal -7.660444e-01 0.000000e+00 6.427877e-01
      outer loop
         vertex -1.859046e+01 7.105427e-15 6.148697e+01
         vertex -1.925000e+01 7.105427e-15 6.070096e+01
         vertex -1.859046e+01 -4.000000e+00 6.148697e+01
      endloop
   endfacet
   facet normal -1.736479e-01 0.000000e+00 9.848078e-01
      outer loop
         vertex -2.026047e+01 7.105427e-15 6.052279e+01
         vertex -2.026047e+01 -4.000000e+00 6.052279e+01
         vertex -1.925000e+01 -4.000000e+00 6.070096e+01
      endloop
   endfacet
   facet normal -1.736479e-01 0.000000e+00 9.848078e-01
      outer loop
         vertex -1.925000e+01 7.105427e-15 6.070096e+01
         vertex -2.026047e+01 7.105427e-15 6.052279e+01
         vertex -1.925000e+01 -4.000000e+00 6.070096e+01
      endloop
   endfacet
   facet normal 5.000001e-01 -0.000000e+00 8.660254e-01
      outer loop
         vertex -2.114907e+01 7.105427e-15 6.103582e+01
         vertex -2.114907e+01 -4.000000e+00 6.103582e+01
         vertex -2.026047e+01 -4.000000e+00 6.052279e+01
      endloop
   endfacet
   facet normal 5.000001e-01 0.000000e+00 8.660254e-01
      outer loop
         vertex -2.026047e+01 7.105427e-15 6.052279e+01
         vertex -2.114907e+01 7.105427e-15 6.103582e+01
         vertex -2.026047e+01 -4.000000e+00 6.052279e+01
      endloop
   endfacet
   facet normal 9.396925e-01 -0.000000e+00 3.420204e-01
      outer loop
         vertex -2.150000e+01 7.105427e-15 6.200000e+01
         vertex -2.150000e+01 -4.000000e+00 6.200000e+01
         vertex -2.114907e+01 -4.000000e+00 6.103582e+01
      endloop
   endfacet
   facet normal 9.396925e-01 0.000000e+00 3.420204e-01
      outer loop
         vertex -2.114907e+01 7.105427e-15 6.103582e+01
         vertex -2.150000e+01 7.105427e-15 6.200000e+01
         vertex -2.114907e+01 -4.000000e+00 6.103582e+01
      endloop
   endfacet
   facet normal 9.396925e-01 0.000000e+00 -3.420204e-01
      outer loop
         vertex 1.885093e+01 8.881784e-15 6.296418e+01
         vertex 1.885093e+01 -4.000000e+00 6.296418e+01
         vertex 1.850000e+01 -4.000000e+00 6.200000e+01
      endloop
   endfacet
   facet normal 9.396925e-01 0.000000e+00 -3.420204e-01
      outer loop
         vertex 1.850000e+01 8.881784e-15 6.200000e+01
         vertex 1.885093e+01 8.881784e-15 6.296418e+01
         vertex 1.850000e+01 -4.000000e+00 6.200000e+01
      endloop
   endfacet
   facet normal 5.000001e-01 0.000000e+00 -8.660254e-01
      outer loop
         vertex 1.973953e+01 8.881784e-15 6.347721e+01
         vertex 1.973953e+01 -4.000000e+00 6.347721e+01
         vertex 1.885093e+01 -4.000000e+00 6.296418e+01
      endloop
   endfacet
   facet normal 5.000001e-01 0.000000e+00 -8.660254e-01
      outer loop
         vertex 1.885093e+01 8.881784e-15 6.296418e+01
         vertex 1.973953e+01 8.881784e-15 6.347721e+01
         vertex 1.885093e+01 -4.000000e+00 6.296418e+01
      endloop
   endfacet
   facet normal -1.736479e-01 0.000000e+00 -9.848078e-01
      outer loop
         vertex 2.075000e+01 8.881784e-15 6.329904e+01
         vertex 2.075000e+01 -4.000000e+00 6.329904e+01
         vertex 1.973953e+01 -4.000000e+00 6.347721e+01
      endloop
   endfacet
   facet normal -1.736479e-01 0.000000e+00 -9.848078e-01
      outer loop
         vertex 1.973953e+01 8.881784e-15 6.347721e+01
         vertex 2.075000e+01 8.881784e-15 6.329904e+01
         vertex 1.973953e+01 -4.000000e+00 6.347721e+01
      endloop
   endfacet
   facet normal -7.660444e-01 0.000000e+00 -6.427877e-01
      outer loop
         vertex 2.140954e+01 8.881784e-15 6.251303e+01
         vertex 2.140954e+01 -4.000000e+00 6.251303e+01
         vertex 2.075000e+01 -4.000000e+00 6.329904e+01
      endloop
   endfacet
   facet normal -7.660444e-01 0.000000e+00 -6.427877e-01
      outer loop
         vertex 2.075000e+01 8.881784e-15 6.329904e+01
         vertex 2.140954e+01 8.881784e-15 6.251303e+01
         vertex 2.075000e+01 -4.000000e+00 6.329904e+01
      endloop
   endfacet
   facet normal -1.000000e+00 0.000000e+00 0.000000e+00
      outer loop
         vertex 2.140954e+01 8.881784e-15 6.148697e+01
         vertex 2.140954e+01 -4.000000e+00 6.148697e+01
         vertex 2.140954e+01 -4.000000e+00 6.251303e+01
      endloop
   endfacet
   facet normal -1.000000e+00 0.000000e+00 0.000000e+00
      outer loop
         vertex 2.140954e+01 8.881784e-15 6.251303e+01
         vertex 2.140954e+01 8.881784e-15 6.148697e+01
         vertex 2.140954e+01 -4.000000e+00 6.251303e+01
      endloop
   endfacet
   facet normal -7.660444e-01 0.000000e+00 6.427877e-01
      outer loop
         vertex 2.075000e+01 8.881784e-15 6.070096e+01
         vertex 2.075000e+01 -4.000000e+00 6.070096e+01
         vertex 2.140954e+01 -4.000000e+00 6.148697e+01
      endloop
   endfacet
   facet normal -7.660444e-01 0.000000e+00 6.427877e-01
      outer loop
         vertex 2.140954e+01 8.881784e-15 6.148697e+01
         vertex 2.075000e+01 8.881784e-15 6.070096e+01
         vertex 2.140954e+01 -4.000000e+00 6.148697e+01
      endloop
   endfacet
   facet normal -1.736479e-01 0.000000e+00 9.848078e-01
      outer loop
         vertex 1.973953e+01 8.881784e-15 6.052279e+01
         vertex 1.973953e+01 -4.000000e+00 6.052279e+01
         vertex 2.075000e+01 -4.000000e+00 6.070096e+01
      endloop
   endfacet
   facet normal -1.736479e-01 0.000000e+00 9.848078e-01
      outer loop
         vertex 2.075000e+01 8.881784e-15 6.070096e+01
         vertex 1.973953e+01 8.881784e-15 6.052279e+01
         vertex 2.075000e+01 -4.000000e+00 6.070096e+01
      endloop
   endfacet
   facet normal 5.000001e-01 -0.000000e+00 8.660254e-01
      outer loop
         vertex 1.885093e+01 8.881784e-15 6.103582e+01
         vertex 1.885093e+01 -4.000000e+00 6.103582e+01
         vertex 1.973953e+01 -4.000000e+00 6.052279e+01
      endloop
   endfacet
   facet normal 5.000001e-01 0.000000e+00 8.660254e-01
      outer loop
         vertex 1.973953e+01 8.881784e-15 6.052279e+01
         vertex 1.885093e+01 8.881784e-15 6.103582e+01
         vertex 1.973953e+01 -4.000000e+00 6.052279e+01
      endloop
   endfacet
   facet normal 9.396925e-01 -0.000000e+00 3.420204e-01
      outer loop
         vertex 1.850000e+01 8.881784e-15 6.200000e+01
         vertex 1.850000e+01 -4.000000e+00 6.200000e+01
         vertex 1.885093e+01 -4.000000e+00 6.103582e+01
      endloop
   endfacet
   facet normal 9.396925e-01 0.000000e+00 3.420204e-01
      outer loop
         vertex 1.885093e+01 8.881784e-15 6.103582e+01
         vertex 1.850000e+01 8.881784e-15 6.200000e+01
         vertex 1.885093e+01 -4.000000e+00 6.103582e+01
      endloop
   endfacet
   facet normal 0.000000e+00 0.000000e+00 1.000000e+00
      outer loop
         vertex 1.065000e+01 -3.000000e+00 8.500000e+00
         vertex 1.065000e+01 8.437695e-15 8.500000e+00
         vertex -1.065000e+01 7.549517e-15 8.500000e+00
      endloop
   endfacet
   facet normal 0.000000e+00 0.000000e+00 1.000000e+00
      outer loop
         vertex -1.065000e+01 -3.000000e+00 8.500000e+00
         vertex 1.065000e+01 -3.000000e+00 8.500000e+00
         vertex -1.065000e+01 7.549517e-15 8.500000e+00
      endloop
   endfacet
   facet normal -1.000000e+00 -0.000000e+00 -0.000000e+00
      outer loop
         vertex 1.065000e+01 -3.000000e+00 2.682000e+01
         vertex 1.065000e+01 8.437695e-15 2.682000e+01
         vertex 1.065000e+01 8.437695e-15 8.500000e+00
      endloop
   endfacet
   facet normal -1.000000e+00 0.000000e+00 0.000000e+00
      outer loop
         vertex 1.065000e+01 -3.000000e+00 8.500000e+00
         vertex 1.065000e+01 -3.000000e+00 2.682000e+01
         vertex 1.065000e+01 8.437695e-15 8.500000e+00
      endloop
   endfacet
   facet normal 0.000000e+00 0.000000e+00 -1.000000e+00
      outer loop
         vertex -1.065000e+01 -3.000000e+00 2.682000e+01
         vertex -1.065000e+01 7.549517e-15 2.682000e+01
         vertex 1.065000e+01 9.325873e-15 2.682000e+01
      endloop
   endfacet
   facet normal 0.000000e+00 0.000000e+00 -1.000000e+00
      outer loop
         vertex 1.065000e+01 -3.000000e+00 2.682000e+01
         vertex -1.065000e+01 -3.000000e+00 2.682000e+01
         vertex 1.065000e+01 9.325873e-15 2.682000e+01
      endloop
   endfacet
   facet normal 1.000000e+00 0.000000e+00 -0.000000e+00
      outer loop
         vertex -1.065000e+01 -3.000000e+00 8.500000e+00
         vertex -1.065000e+01 7.549517e-15 8.500000e+00
         vertex -1.065000e+01 7.549517e-15 2.682000e+01
      endloop
   endfacet
   facet normal 1.000000e+00 0.000000e+00 0.000000e+00
      outer loop
         vertex -1.065000e+01 -3.000000e+00 2.682000e+01
         vertex -1.065000e+01 -3.000000e+00 8.500000e+00
         vertex -1.065000e+01 7.549517e-15 2.682000e+01
      endloop
   endfacet
   facet normal 0.000000e+00 1.000000e+00 0.000000e+00
      outer loop
         vertex -1.527542e+01 5.000000e+00 1.985582e+01
         vertex -1.562635e+01 5.000000e+00 2.082000e+01
         vertex -1.438683e+01 5.000000e+00 1.934279e+01
      endloop
   endfacet
   facet normal 0.000000e+00 1.000000e+00 0.000000e+00
      outer loop
         vertex -1.562635e+01 5.000000e+00 2.082000e+01
         vertex -1.527542e+01 5.000000e+00 2.178418e+01
         vertex -1.438683e+01 5.000000e+00 1.934279e+01
      endloop
   endfacet
   facet normal 0.000000e+00 1.000000e+00 0.000000e+00
      outer loop
         vertex -1.438683e+01 5.000000e+00 1.934279e+01
         vertex -1.527542e+01 5.000000e+00 2.178418e+01
         vertex -1.337635e+01 5.000000e+00 1.952096e+01
      endloop
   endfacet
   facet normal 0.000000e+00 1.000000e+00 0.000000e+00
      outer loop
         vertex -1.527542e+01 5.000000e+00 2.178418e+01
         vertex -1.438683e+01 5.000000e+00 2.229721e+01
         vertex -1.337635e+01 5.000000e+00 1.952096e+01
      endloop
   endfacet
   facet normal 0.000000e+00 1.000000e+00 0.000000e+00
      outer loop
         vertex -1.337635e+01 5.000000e+00 1.952096e+01
         vertex -1.438683e+01 5.000000e+00 2.229721e+01
         vertex -1.271682e+01 5.000000e+00 2.030697e+01
      endloop
   endfacet
   facet normal 0.000000e+00 1.000000e+00 0.000000e+00
      outer loop
         vertex -1.438683e+01 5.000000e+00 2.229721e+01
         vertex -1.337635e+01 5.000000e+00 2.211904e+01
         vertex -1.271682e+01 5.000000e+00 2.030697e+01
      endloop
   endfacet
   facet normal 0.000000e+00 1.000000e+00 0.000000e+00
      outer loop
         vertex -1.271682e+01 5.000000e+00 2.030697e+01
         vertex -1.337635e+01 5.000000e+00 2.211904e+01
         vertex -1.271682e+01 5.000000e+00 2.133303e+01
      endloop
   endfacet
   facet normal 0.000000e+00 1.000000e+00 0.000000e+00
      outer loop
         vertex 1.299374e+01 5.000000e+00 1.986054e+01
         vertex 1.264280e+01 5.000000e+00 2.082472e+01
         vertex 1.388233e+01 5.000000e+00 1.934751e+01
      endloop
   endfacet
   facet normal 0.000000e+00 1.000000e+00 0.000000e+00
      outer loop
         vertex 1.264280e+01 5.000000e+00 2.082472e+01
         vertex 1.299374e+01 5.000000e+00 2.178890e+01
         vertex 1.388233e+01 5.000000e+00 1.934751e+01
      endloop
   endfacet
   facet normal 0.000000e+00 1.000000e+00 0.000000e+00
      outer loop
         vertex 1.388233e+01 5.000000e+00 1.934751e+01
         vertex 1.299374e+01 5.000000e+00 2.178890e+01
         vertex 1.489280e+01 5.000000e+00 1.952568e+01
      endloop
   endfacet
   facet normal 0.000000e+00 1.000000e+00 0.000000e+00
      outer loop
         vertex 1.299374e+01 5.000000e+00 2.178890e+01
         vertex 1.388233e+01 5.000000e+00 2.230194e+01
         vertex 1.489280e+01 5.000000e+00 1.952568e+01
      endloop
   endfacet
   facet normal 0.000000e+00 1.000000e+00 0.000000e+00
      outer loop
         vertex 1.489280e+01 5.000000e+00 1.952568e+01
         vertex 1.388233e+01 5.000000e+00 2.230194e+01
         vertex 1.555234e+01 5.000000e+00 2.031169e+01
      endloop
   endfacet
   facet normal 0.000000e+00 1.000000e+00 0.000000e+00
      outer loop
         vertex 1.388233e+01 5.000000e+00 2.230194e+01
         vertex 1.489280e+01 5.000000e+00 2.212376e+01
         vertex 1.555234e+01 5.000000e+00 2.031169e+01
      endloop
   endfacet
   facet normal 0.000000e+00 1.000000e+00 0.000000e+00
      outer loop
         vertex 1.555234e+01 5.000000e+00 2.031169e+01
         vertex 1.489280e+01 5.000000e+00 2.212376e+01
         vertex 1.555234e+01 5.000000e+00 2.133775e+01
      endloop
   endfacet
   facet normal 0.000000e+00 -1.000000e+00 0.000000e+00
      outer loop
         vertex -5.000000e+01 -4.000000e+00 7.000000e+01
         vertex -2.026047e+01 -4.000000e+00 6.347721e+01
         vertex 5.000000e+01 -4.000000e+00 7.000000e+01
      endloop
   endfacet
   facet normal 0.000000e+00 -1.000000e+00 0.000000e+00
      outer loop
         vertex -2.026047e+01 -4.000000e+00 6.347721e+01
         vertex -1.925000e+01 -4.000000e+00 6.329904e+01
         vertex 5.000000e+01 -4.000000e+00 7.000000e+01
      endloop
   endfacet
   facet normal 0.000000e+00 -1.000000e+00 0.000000e+00
      outer loop
         vertex 5.000000e+01 -4.000000e+00 7.000000e+01
         vertex 2.140954e+01 -4.000000e+00 6.251303e+01
         vertex 5.000000e+01 -4.000000e+00 0.000000e+00
      endloop
   endfacet
   facet normal 0.000000e+00 -1.000000e+00 0.000000e+00
      outer loop
         vertex 2.140954e+01 -4.000000e+00 6.251303e+01
         vertex 2.140954e+01 -4.000000e+00 6.148697e+01
         vertex 5.000000e+01 -4.000000e+00 0.000000e+00
      endloop
   endfacet
   facet normal 0.000000e+00 -1.000000e+00 -0.000000e+00
      outer loop
         vertex 5.000000e+01 -4.000000e+00 0.000000e+00
         vertex 9.150000e+00 -4.000000e+00 1.000000e+01
         vertex -5.000000e+01 -4.000000e+00 0.000000e+00
      endloop
   endfacet
   facet normal 0.000000e+00 -1.000000e+00 -0.000000e+00
      outer loop
         vertex 9.150000e+00 -4.000000e+00 1.000000e+01
         vertex -9.150000e+00 -4.000000e+00 1.000000e+01
         vertex -5.000000e+01 -4.000000e+00 0.000000e+00
      endloop
   endfacet
   facet normal -0.000000e+00 -1.000000e+00 0.000000e+00
      outer loop
         vertex -5.000000e+01 -4.000000e+00 0.000000e+00
         vertex -9.150000e+00 -4.000000e+00 1.000000e+01
         vertex -5.000000e+01 -4.000000e+00 7.000000e+01
      endloop
   endfacet
   facet normal -0.000000e+00 -1.000000e+00 -0.000000e+00
      outer loop
         vertex -9.150000e+00 -4.000000e+00 1.000000e+01
         vertex -9.150000e+00 -4.000000e+00 2.532000e+01
         vertex -5.000000e+01 -4.000000e+00 7.000000e+01
      endloop
   endfacet
   facet normal 0.000000e+00 -1.000000e+00 0.000000e+00
      outer loop
         vertex -5.000000e+01 -4.000000e+00 7.000000e+01
         vertex -2.150000e+01 -4.000000e+00 6.200000e+01
         vertex -2.114907e+01 -4.000000e+00 6.296418e+01
      endloop
   endfacet
   facet normal 0.000000e+00 -1.000000e+00 0.000000e+00
      outer loop
         vertex 2.140954e+01 -4.000000e+00 6.251303e+01
         vertex 5.000000e+01 -4.000000e+00 7.000000e+01
         vertex 2.075000e+01 -4.000000e+00 6.329904e+01
      endloop
   endfacet
   facet normal 0.000000e+00 -1.000000e+00 0.000000e+00
      outer loop
         vertex -2.026047e+01 -4.000000e+00 6.347721e+01
         vertex -5.000000e+01 -4.000000e+00 7.000000e+01
         vertex -2.114907e+01 -4.000000e+00 6.296418e+01
      endloop
   endfacet
   facet normal 0.000000e+00 -1.000000e+00 0.000000e+00
      outer loop
         vertex -2.150000e+01 -4.000000e+00 6.200000e+01
         vertex -5.000000e+01 -4.000000e+00 7.000000e+01
         vertex -2.114907e+01 -4.000000e+00 6.103582e+01
      endloop
   endfacet
   facet normal 0.000000e+00 -1.000000e+00 0.000000e+00
      outer loop
         vertex -5.000000e+01 -4.000000e+00 7.000000e+01
         vertex -9.150000e+00 -4.000000e+00 2.532000e+01
         vertex -2.114907e+01 -4.000000e+00 6.103582e+01
      endloop
   endfacet
   facet normal 0.000000e+00 -1.000000e+00 0.000000e+00
      outer loop
         vertex -2.114907e+01 -4.000000e+00 6.103582e+01
         vertex -9.150000e+00 -4.000000e+00 2.532000e+01
         vertex -2.026047e+01 -4.000000e+00 6.052279e+01
      endloop
   endfacet
   facet normal 0.000000e+00 -1.000000e+00 0.000000e+00
      outer loop
         vertex -9.150000e+00 -4.000000e+00 2.532000e+01
         vertex 9.150000e+00 -4.000000e+00 2.532000e+01
         vertex -2.026047e+01 -4.000000e+00 6.052279e+01
      endloop
   endfacet
   facet normal 0.000000e+00 -1.000000e+00 0.000000e+00
      outer loop
         vertex -2.026047e+01 -4.000000e+00 6.052279e+01
         vertex 9.150000e+00 -4.000000e+00 2.532000e+01
         vertex -1.925000e+01 -4.000000e+00 6.070096e+01
      endloop
   endfacet
   facet normal 0.000000e+00 -1.000000e+00 0.000000e+00
      outer loop
         vertex 9.150000e+00 -4.000000e+00 1.000000e+01
         vertex 5.000000e+01 -4.000000e+00 0.000000e+00
         vertex 9.150000e+00 -4.000000e+00 2.532000e+01
      endloop
   endfacet
   facet normal 0.000000e+00 -1.000000e+00 0.000000e+00
      outer loop
         vertex 9.150000e+00 -4.000000e+00 2.532000e+01
         vertex 5.000000e+01 -4.000000e+00 0.000000e+00
         vertex -1.925000e+01 -4.000000e+00 6.070096e+01
      endloop
   endfacet
   facet normal -0.000000e+00 -1.000000e+00 -0.000000e+00
      outer loop
         vertex 5.000000e+01 -4.000000e+00 0.000000e+00
         vertex 1.973953e+01 -4.000000e+00 6.052279e+01
         vertex -1.925000e+01 -4.000000e+00 6.070096e+01
      endloop
   endfacet
   facet normal 0.000000e+00 -1.000000e+00 0.000000e+00
      outer loop
         vertex -1.925000e+01 -4.000000e+00 6.070096e+01
         vertex 1.973953e+01 -4.000000e+00 6.052279e+01
         vertex -1.859046e+01 -4.000000e+00 6.148697e+01
      endloop
   endfacet
   facet normal -0.000000e+00 -1.000000e+00 -0.000000e+00
      outer loop
         vertex 1.973953e+01 -4.000000e+00 6.052279e+01
         vertex 1.885093e+01 -4.000000e+00 6.103582e+01
         vertex -1.859046e+01 -4.000000e+00 6.148697e+01
      endloop
   endfacet
   facet normal 0.000000e+00 -1.000000e+00 0.000000e+00
      outer loop
         vertex -1.859046e+01 -4.000000e+00 6.148697e+01
         vertex 1.885093e+01 -4.000000e+00 6.103582e+01
         vertex -1.859046e+01 -4.000000e+00 6.251303e+01
      endloop
   endfacet
   facet normal -0.000000e+00 -1.000000e+00 -0.000000e+00
      outer loop
         vertex 1.885093e+01 -4.000000e+00 6.103582e+01
         vertex 1.850000e+01 -4.000000e+00 6.200000e+01
         vertex -1.859046e+01 -4.000000e+00 6.251303e+01
      endloop
   endfacet
   facet normal 0.000000e+00 -1.000000e+00 0.000000e+00
      outer loop
         vertex -1.859046e+01 -4.000000e+00 6.251303e+01
         vertex 1.850000e+01 -4.000000e+00 6.200000e+01
         vertex -1.925000e+01 -4.000000e+00 6.329904e+01
      endloop
   endfacet
   facet normal -0.000000e+00 -1.000000e+00 0.000000e+00
      outer loop
         vertex 1.850000e+01 -4.000000e+00 6.200000e+01
         vertex 1.885093e+01 -4.000000e+00 6.296418e+01
         vertex -1.925000e+01 -4.000000e+00 6.329904e+01
      endloop
   endfacet
   facet normal -0.000000e+00 -1.000000e+00 0.000000e+00
      outer loop
         vertex -1.925000e+01 -4.000000e+00 6.329904e+01
         vertex 1.973953e+01 -4.000000e+00 6.347721e+01
         vertex 5.000000e+01 -4.000000e+00 7.000000e+01
      endloop
   endfacet
   facet normal 0.000000e+00 -1.000000e+00 0.000000e+00
      outer loop
         vertex 1.973953e+01 -4.000000e+00 6.347721e+01
         vertex 2.075000e+01 -4.000000e+00 6.329904e+01
         vertex 5.000000e+01 -4.000000e+00 7.000000e+01
      endloop
   endfacet
   facet normal 0.000000e+00 -1.000000e+00 0.000000e+00
      outer loop
         vertex 1.973953e+01 -4.000000e+00 6.052279e+01
         vertex 5.000000e+01 -4.000000e+00 0.000000e+00
         vertex 2.075000e+01 -4.000000e+00 6.070096e+01
      endloop
   endfacet
   facet normal 0.000000e+00 -1.000000e+00 -0.000000e+00
      outer loop
         vertex 5.000000e+01 -4.000000e+00 0.000000e+00
         vertex 2.140954e+01 -4.000000e+00 6.148697e+01
         vertex 2.075000e+01 -4.000000e+00 6.070096e+01
      endloop
   endfacet
   facet normal 0.000000e+00 -1.000000e+00 0.000000e+00
      outer loop
         vertex 1.973953e+01 -4.000000e+00 6.347721e+01
         vertex -1.925000e+01 -4.000000e+00 6.329904e+01
         vertex 1.885093e+01 -4.000000e+00 6.296418e+01
      endloop
   endfacet
   facet normal 0.000000e+00 1.000000e+00 -0.000000e+00
      outer loop
         vertex 1.065000e+01 -3.000000e+00 2.682000e+01
         vertex 9.150000e+00 -3.000000e+00 2.532000e+01
         vertex -1.065000e+01 -3.000000e+00 2.682000e+01
      endloop
   endfacet
   facet normal 0.000000e+00 1.000000e+00 -0.000000e+00
      outer loop
         vertex 9.150000e+00 -3.000000e+00 2.532000e+01
         vertex -9.150000e+00 -3.000000e+00 2.532000e+01
         vertex -1.065000e+01 -3.000000e+00 2.682000e+01
      endloop
   endfacet
   facet normal 0.000000e+00 1.000000e+00 0.000000e+00
      outer loop
         vertex -1.065000e+01 -3.000000e+00 2.682000e+01
         vertex -9.150000e+00 -3.000000e+00 2.532000e+01
         vertex -1.065000e+01 -3.000000e+00 8.500000e+00
      endloop
   endfacet
   facet normal 0.000000e+00 1.000000e+00 -0.000000e+00
      outer loop
         vertex -9.150000e+00 -3.000000e+00 2.532000e+01
         vertex -9.150000e+00 -3.000000e+00 1.000000e+01
         vertex -1.065000e+01 -3.000000e+00 8.500000e+00
      endloop
   endfacet
   facet normal 0.000000e+00 1.000000e+00 0.000000e+00
      outer loop
         vertex -1.065000e+01 -3.000000e+00 8.500000e+00
         vertex -9.150000e+00 -3.000000e+00 1.000000e+01
         vertex 1.065000e+01 -3.000000e+00 8.500000e+00
      endloop
   endfacet
   facet normal 0.000000e+00 1.000000e+00 0.000000e+00
      outer loop
         vertex -9.150000e+00 -3.000000e+00 1.000000e+01
         vertex 9.150000e+00 -3.000000e+00 1.000000e+01
         vertex 1.065000e+01 -3.000000e+00 8.500000e+00
      endloop
   endfacet
   facet normal -0.000000e+00 1.000000e+00 0.000000e+00
      outer loop
         vertex 1.065000e+01 -3.000000e+00 8.500000e+00
         vertex 9.150000e+00 -3.000000e+00 1.000000e+01
         vertex 1.065000e+01 -3.000000e+00 2.682000e+01
      endloop
   endfacet
   facet normal -0.000000e+00 1.000000e+00 0.000000e+00
      outer loop
         vertex 9.150000e+00 -3.000000e+00 1.000000e+01
         vertex 9.150000e+00 -3.000000e+00 2.532000e+01
         vertex 1.065000e+01 -3.000000e+00 2.682000e+01
      endloop
   endfacet
   facet normal 0.000000e+00 0.000000e+00 1.000000e+00
      outer loop
         vertex 9.150000e+00 -4.000000e+00 1.000000e+01
         vertex 9.150000e+00 -3.000000e+00 1.000000e+01
         vertex -9.150000e+00 -3.000000e+00 1.000000e+01
      endloop
   endfacet
   facet normal 0.000000e+00 0.000000e+00 1.000000e+00
      outer loop
         vertex -9.150000e+00 -4.000000e+00 1.000000e+01
         vertex 9.150000e+00 -4.000000e+00 1.000000e+01
         vertex -9.150000e+00 -3.000000e+00 1.000000e+01
      endloop
   endfacet
   facet normal 1.000000e+00 0.000000e+00 -0.000000e+00
      outer loop
         vertex -9.150000e+00 -4.000000e+00 1.000000e+01
         vertex -9.150000e+00 -3.000000e+00 1.000000e+01
         vertex -9.150000e+00 -3.000000e+00 2.532000e+01
      endloop
   endfacet
   facet normal 1.000000e+00 0.000000e+00 0.000000e+00
      outer loop
         vertex -9.150000e+00 -4.000000e+00 2.532000e+01
         vertex -9.150000e+00 -4.000000e+00 1.000000e+01
         vertex -9.150000e+00 -3.000000e+00 2.532000e+01
      endloop
   endfacet
   facet normal 0.000000e+00 0.000000e+00 -1.000000e+00
      outer loop
         vertex -9.150000e+00 -4.000000e+00 2.532000e+01
         vertex -9.150000e+00 -3.000000e+00 2.532000e+01
         vertex 9.150000e+00 -3.000000e+00 2.532000e+01
      endloop
   endfacet
   facet normal 0.000000e+00 0.000000e+00 -1.000000e+00
      outer loop
         vertex 9.150000e+00 -4.000000e+00 2.532000e+01
         vertex -9.150000e+00 -4.000000e+00 2.532000e+01
         vertex 9.150000e+00 -3.000000e+00 2.532000e+01
      endloop
   endfacet
   facet normal -1.000000e+00 -0.000000e+00 -0.000000e+00
      outer loop
         vertex 9.150000e+00 -4.000000e+00 2.532000e+01
         vertex 9.150000e+00 -3.000000e+00 2.532000e+01
         vertex 9.150000e+00 -3.000000e+00 1.000000e+01
      endloop
   endfacet
   facet normal -1.000000e+00 0.000000e+00 0.000000e+00
      outer loop
         vertex 9.150000e+00 -4.000000e+00 1.000000e+01
         vertex 9.150000e+00 -4.000000e+00 2.532000e+01
         vertex 9.150000e+00 -3.000000e+00 1.000000e+01
      endloop
   endfacet
endsolid
